<?xml version="1.0" standalone="no"?>
<!DOCTYPE svg PUBLIC "-//W3C//DTD SVG 1.1//EN" "http://www.w3.org/Graphics/SVG/1.1/DTD/svg11.dtd" >
<svg xmlns="http://www.w3.org/2000/svg">
<metadata></metadata>
<defs>
<font id="ubuntu_monobold_italic" horiz-adv-x="500" >
<font-face units-per-em="1000" ascent="800" descent="-200" />
<missing-glyph horiz-adv-x="500" />
<glyph unicode=" " />
<glyph unicode="!" d="M405 452q-9 -36 -17 -65t-17 -55t-19 -51.5t-22 -55.5h-102q3 34 6.5 63.5t7.5 57.5t9.5 55.5t13.5 57.5l38 160h142zM255 155q32 0 53 -18.5t21 -55.5q0 -20 -7.5 -37t-20 -29.5t-28.5 -19.5t-34 -7q-31 0 -52.5 19t-21.5 56q0 21 7.5 38t20 29t29 18.5t33.5 6.5z" />
<glyph unicode="&#x22;" d="M358 679l-15 -63q-5 -23 -14 -50.5t-20 -56.5t-23 -57.5t-23 -53.5h-70q1 25 2.5 55.5t4.5 62t7.5 61.5t10.5 55l10 47h130zM555 679l-14 -63q-5 -23 -14 -50.5t-20 -56.5t-23 -57.5t-24 -53.5h-70q1 25 3 55.5t5 62t7 61.5t10 55l11 47h129z" />
<glyph unicode="#" d="M220 467l61 152h100l-61 -152h83l61 152h100l-62 -152h65l-24 -100h-80l-46 -114h98l-24 -100h-114l-62 -153h-100l62 153h-84l-61 -153h-100l61 153h-60l24 100h77l46 114h-95l24 100h111zM234 253h83l46 114h-83z" />
<glyph unicode="$" d="M236 108q20 0 40.5 2.5t37 10t26.5 21.5t10 37q0 16 -6.5 27.5t-17.5 21t-25.5 17.5t-30.5 16q-38 18 -63 37t-40.5 39.5t-22 44t-6.5 50.5q0 30 11 58t33.5 50.5t57 38.5t82.5 21l24 93h103l-24 -95q35 -8 64 -19t47 -22l-49 -88q-25 17 -58 26t-65 9q-41 0 -71 -16.5 t-30 -49.5q0 -25 17 -43t62 -40q25 -13 49 -28t42.5 -34.5t29.5 -45t11 -59.5q0 -82 -52 -126t-137 -52l-25 -107h-104l26 108q-47 7 -82 21.5t-53 25.5l50 92q22 -14 59 -28t80 -14z" />
<glyph unicode="%" d="M94 0h-90l518 619h89zM193 399q15 0 25.5 14.5t18 34t11 40t3.5 32.5q0 22 -8 29t-16 7q-15 0 -25.5 -14.5t-18 -34t-11 -39.5t-3.5 -32q0 -23 7.5 -30t16.5 -7zM179 322q-38 0 -62.5 27.5t-24.5 72.5q0 31 8 68t25.5 68.5t46 53t69.5 21.5q38 0 62.5 -27.5t24.5 -72.5 q0 -31 -8 -67.5t-25.5 -68.5t-46 -53.5t-69.5 -21.5zM422 220q-15 0 -25.5 -14.5t-18 -34t-11 -40t-3.5 -32.5q0 -22 8 -29t16 -7q15 0 26 14t18.5 33.5t11 40t3.5 32.5q0 23 -8 30t-17 7zM437 296q38 0 62 -27.5t24 -72.5q0 -31 -8 -67.5t-25.5 -68t-46 -53t-69.5 -21.5 q-38 0 -62 27.5t-24 72.5q0 31 8 67.5t25.5 68t46 53t69.5 21.5z" />
<glyph unicode="&#x26;" d="M384 216q16 24 27.5 54t21.5 62l92 -11q-15 -64 -40.5 -108.5t-48.5 -76.5q13 -27 26 -60.5t24 -75.5h-113q-5 20 -8.5 31.5t-8.5 25.5q-38 -36 -80.5 -51t-87.5 -15q-37 0 -64 11t-44.5 29.5t-26 43.5t-8.5 54q0 33 8.5 59.5t25 49.5t41.5 44.5t57 44.5l11 8 q-13 24 -20.5 49.5t-7.5 51.5q0 45 14.5 81t40 62t61 40t76.5 14q65 0 97 -31.5t32 -87.5q0 -22 -6.5 -45.5t-24 -49t-47.5 -52t-77 -54.5l-5 -3zM154 147q0 -26 16.5 -45t46.5 -19q26 0 53.5 14t46.5 35q-14 25 -38.5 61.5t-48.5 72.5q-25 -14 -40 -29.5t-23 -31.5 t-10.5 -31t-2.5 -27zM285 380q56 28 76.5 61t20.5 59q0 17 -9.5 29.5t-32.5 12.5q-33 0 -56 -25.5t-23 -69.5q0 -23 4 -39t12 -32z" />
<glyph unicode="'" d="M453 679l-19 -78q-12 -50 -35.5 -109.5t-46.5 -111.5h-72q1 26 3 57t5 62.5t7.5 62t10.5 55.5l15 62h132z" />
<glyph unicode="(" d="M536 623q-67 -42 -119.5 -96.5t-89 -115t-56 -123.5t-19.5 -122q0 -76 23 -138.5t82 -124.5l-74 -73q-32 27 -59 63.5t-46.5 78.5t-30.5 89t-11 96q0 91 27 173.5t75 153t113 128t140 98.5z" />
<glyph unicode=")" d="M43 -83q67 42 119.5 96.5t89 115t56 123.5t19.5 122q0 76 -23.5 138.5t-81.5 124.5l74 73q32 -27 59 -63.5t46.5 -78.5t30.5 -89t11 -96q0 -92 -27 -174t-75 -152.5t-113 -128t-140 -98.5z" />
<glyph unicode="*" d="M329 374q-3 -12 -9 -29t-12.5 -34t-14 -32t-14.5 -25l-19 -25l-94 67l19 25q7 10 19.5 22t26 24t27.5 22.5t24 17.5h-30.5t-35.5 1.5t-35 4.5t-28 7l-30 10l37 109l29 -9q12 -4 27 -12.5t30 -18.5t29.5 -20t24.5 -18q-5 12 -10 28.5t-9 34.5t-7 35t-3 29v31h116v-31 q0 -12 -3 -29t-7.5 -35t-10 -34.5l-9.5 -28.5q10 7 24.5 17t30.5 19.5t31 17.5t27 12l29 10l36 -111l-30 -9q-12 -4 -29 -6t-35 -3.5t-35.5 -1.5h-30.5q11 -7 25 -17.5t28 -22t26 -23.5t19 -22l19 -25l-94 -68l-18 25q-7 10 -14.5 25t-14.5 32.5t-13 34t-9 29.5z" />
<glyph unicode="+" d="M92 313h157l41 174h106l-41 -174h157l-25 -101h-157l-41 -174h-106l41 174h-157z" />
<glyph unicode="," d="M96 -72q21 1 42 5.5t39.5 13t32 19.5t18.5 26q-30 4 -47.5 23.5t-17.5 51.5q0 43 28 71.5t70 28.5q39 0 58.5 -23.5t19.5 -55.5q0 -44 -14 -85t-43 -74t-73.5 -54.5t-104.5 -25.5z" />
<glyph unicode="-" d="M168 317h274l-30 -121h-273z" />
<glyph unicode="." d="M259 167q35 0 57.5 -20t22.5 -59q0 -22 -8 -40.5t-21.5 -31.5t-31 -20.5t-35.5 -7.5q-35 0 -57.5 20t-22.5 60q0 22 8 40t21.5 31t31 20.5t35.5 7.5z" />
<glyph unicode="/" d="M118 -165h-129l462 864h129z" />
<glyph unicode="0" d="M366 633q80 0 125 -52t45 -140q0 -39 -6 -88t-20 -99.5t-36.5 -98.5t-55 -85.5t-76.5 -60t-100 -22.5q-40 0 -71.5 13.5t-53.5 39t-34 60.5t-12 79q0 39 6 88t20 99.5t36.5 98.5t55 85.5t76.5 60t101 22.5zM253 90q28 0 51.5 16.5t42.5 44t33 63t23.5 74t14 76.5t4.5 70 q0 41 -14.5 68.5t-52.5 27.5q-28 0 -52 -16.5t-43 -44t-33 -63.5t-23.5 -74t-14 -76t-4.5 -70q0 -41 15 -68.5t53 -27.5zM296 254q-25 0 -36 13t-11 32q0 22 7 38.5t17 27.5t22 16.5t22 5.5q25 0 35.5 -13.5t10.5 -32.5q0 -22 -7 -38.5t-17 -27t-21.5 -16t-21.5 -5.5z" />
<glyph unicode="1" d="M218 102l86 358q-34 -23 -73 -42t-65 -28l-29 100q27 9 57.5 23t61.5 31t60 36t52 39h97l-124 -517h123l-24 -102h-376l24 102h130z" />
<glyph unicode="2" d="M365 633q40 0 71 -11.5t52 -31.5t32 -46t11 -56q0 -44 -17 -80t-44.5 -66.5t-63.5 -57.5t-74 -54q-58 -40 -91.5 -69.5t-50.5 -58.5h276l-24 -102h-401q6 53 23.5 94.5t44.5 75.5t62 63.5t77 59.5q43 31 73.5 54.5t49.5 43t28 37.5t9 38q0 27 -16 43.5t-52 16.5 t-75.5 -15.5t-77.5 -44.5l-40 89q52 41 108 59.5t110 18.5z" />
<glyph unicode="3" d="M388 326q46 -21 68 -56.5t22 -77.5q0 -37 -14 -73.5t-46 -66t-83.5 -47.5t-125.5 -18q-49 0 -93.5 10t-85.5 33l42 96q28 -17 66 -28t78 -11q28 0 53 5.5t44 18.5t30.5 34t11.5 52q0 41 -31.5 60t-87.5 19h-41l25 97h51q20 0 42.5 4.5t42 16t32 30t12.5 46.5 q0 30 -22.5 46t-57.5 16q-26 0 -58 -9.5t-64 -27.5l-31 90q42 22 88.5 35t86.5 13q37 0 69.5 -8.5t57 -25.5t38.5 -42.5t14 -60.5q0 -55 -32 -99t-101 -71z" />
<glyph unicode="4" d="M396 484q-56 -52 -115.5 -115.5t-107.5 -124.5h165zM544 619l-90 -375h66l-24 -98h-66l-35 -146h-116l34 146h-273l22 92q28 39 70.5 88t91 100.5t100.5 101.5t100 91h120z" />
<glyph unicode="5" d="M78 128q32 -20 67 -29.5t68 -9.5q142 0 142 108q0 45 -52.5 71.5t-173.5 28.5q29 85 55 165.5t46 156.5h325l-24 -102h-226q-10 -37 -21 -72t-20 -58q55 -5 95 -20.5t66 -39.5t39 -55t13 -65q0 -100 -66 -160t-195 -60q-48 0 -95 10t-89 32z" />
<glyph unicode="6" d="M542 524q-52 0 -101 -7t-91 -25t-75.5 -51t-54.5 -85q32 19 66.5 26.5t59.5 7.5q33 0 61.5 -10.5t50 -31t34 -51t12.5 -71.5q0 -58 -19 -102.5t-51 -75t-74.5 -46t-89.5 -15.5q-41 0 -77 14t-62 41.5t-41 68t-15 93.5q0 79 26.5 154.5t82 134.5t141 94.5t202.5 35.5 q5 0 14.5 -0.5t14.5 -0.5zM387 217q0 24 -7 39.5t-19 24.5t-27.5 13t-33.5 4q-24 0 -49 -6t-48 -15q-5 -18 -8 -36.5t-3 -38.5q0 -23 5.5 -44t16.5 -36.5t27.5 -24.5t39.5 -9q48 0 77 34.5t29 94.5z" />
<glyph unicode="7" d="M118 0q18 67 51.5 139t74.5 140.5t86.5 129t88.5 105.5h-281l25 105h431l-22 -90q-35 -29 -81.5 -83.5t-93.5 -125.5t-88 -153t-65 -167h-126z" />
<glyph unicode="8" d="M62 138q0 29 8 53.5t25 47t44 44t65 45.5q-23 24 -39 51t-16 64q0 35 13 69t40 61t68 43.5t97 16.5q37 0 68.5 -10.5t54.5 -29t36.5 -45t13.5 -59.5q0 -20 -5 -41.5t-19 -44t-40 -45.5t-69 -44q33 -23 56.5 -54t23.5 -80q0 -40 -15.5 -75t-45.5 -61.5t-74.5 -41.5 t-102.5 -15q-32 0 -65.5 8t-60.5 25.5t-44 46.5t-17 71zM368 177q0 38 -26 60.5t-64 42.5q-31 -15 -50 -30.5t-30 -31.5t-15 -32t-4 -32q0 -35 24.5 -52.5t59.5 -17.5q21 0 40 6.5t33.5 18.5t23 29.5t8.5 38.5zM262 451q0 -32 20 -53t48 -38q57 27 76 55t19 55 q0 32 -19.5 48.5t-54.5 16.5q-42 0 -65.5 -24t-23.5 -60z" />
<glyph unicode="9" d="M310 325q23 0 48.5 6t48.5 15q5 19 7.5 36.5t2.5 36.5q0 46 -21.5 78.5t-66.5 32.5q-48 0 -77.5 -31t-29.5 -94q0 -46 26 -63t62 -17zM263 234q-33 0 -61.5 10t-50 30.5t-34 50.5t-12.5 71q0 58 19 102.5t51 74.5t74.5 45t89.5 15q41 0 77 -14t62.5 -41.5t41.5 -68 t15 -93.5q0 -80 -26.5 -155.5t-82 -134t-140 -94.5t-201.5 -36q-5 0 -14.5 0.5t-15.5 1.5l15 97q52 0 100.5 7t90.5 26t75.5 52.5t54.5 87.5q-32 -19 -67 -26.5t-61 -7.5z" />
<glyph unicode=":" d="M259 167q35 0 57.5 -20t22.5 -59q0 -22 -8 -40.5t-21.5 -31.5t-31 -20.5t-35.5 -7.5q-35 0 -57.5 20t-22.5 60q0 22 8 40t21.5 31t31 20.5t35.5 7.5zM331 470q35 0 57.5 -20t22.5 -59q0 -22 -8 -40.5t-21.5 -31.5t-31 -20.5t-35.5 -7.5q-35 0 -57.5 20t-22.5 60 q0 22 8 40t21.5 31t31 20.5t35.5 7.5z" />
<glyph unicode=";" d="M96 -72q21 1 42 5.5t39.5 13t32 19.5t18.5 26q-30 4 -47.5 23.5t-17.5 51.5q0 43 28 71.5t70 28.5q39 0 58.5 -23.5t19.5 -55.5q0 -44 -14 -85t-43 -74t-73.5 -54.5t-104.5 -25.5zM331 470q35 0 57.5 -20t22.5 -59q0 -22 -8 -40.5t-21.5 -31.5t-31 -20.5t-35.5 -7.5 q-35 0 -57.5 20t-22.5 60q0 22 8 40t21.5 31t31 20.5t35.5 7.5z" />
<glyph unicode="&#x3c;" d="M102 312l423 162l9 -110l-310 -108l255 -117l-51 -95l-350 169z" />
<glyph unicode="=" d="M465 114h-420l24 102h420zM511 309h-420l25 102h419z" />
<glyph unicode="&#x3e;" d="M485 206l-423 -162l-9 110l310 108l-255 117l51 95l350 -169z" />
<glyph unicode="?" d="M335 530q-33 0 -61 -10.5t-67 -27.5l-15 95q41 22 85 34t92 12q44 0 74.5 -10t50 -27.5t28.5 -40.5t9 -50q0 -30 -9 -53.5t-24.5 -43.5t-36.5 -37.5t-46 -34.5q-23 -17 -39 -29t-27.5 -24t-19.5 -25.5t-14 -32.5h-114q7 46 31.5 81t80.5 75q24 18 40.5 30.5t26 23.5 t14 22.5t4.5 26.5q0 46 -63 46zM244 155q32 0 53 -18.5t21 -55.5q0 -20 -7.5 -37t-20 -29.5t-28.5 -19.5t-34 -7q-31 0 -52.5 19t-21.5 56q0 21 7.5 38t20 29t29 18.5t33.5 6.5z" />
<glyph unicode="@" d="M313 -48q43 0 68.5 5.5t33.5 7.5l-7 -86q-26 -6 -53 -10t-56 -4q-118 0 -181 69t-63 213q0 105 24.5 194t68.5 154t104.5 101.5t133.5 36.5q90 0 132 -39.5t42 -113.5q0 -19 -3.5 -42.5t-8.5 -45.5l-81 -337q-28 -9 -58 -14.5t-56 -5.5q-32 0 -58.5 8.5t-45.5 27.5 t-29.5 49t-10.5 73q0 46 12 91t36.5 80t61 57t84.5 22q17 0 30.5 -3t20.5 -5q3 11 5 23.5t2 20.5q0 31 -21.5 49.5t-58.5 18.5q-47 0 -89.5 -26.5t-74.5 -77t-50.5 -122.5t-18.5 -162q0 -111 44 -159t121 -48zM363 130h8.5t9.5 2l50 209q-8 6 -25 6q-26 0 -44.5 -13.5 t-30 -35.5t-17 -49t-5.5 -55q0 -32 14 -48t40 -16z" />
<glyph unicode="A" d="M356 144h-176q-15 -34 -31 -70t-30 -74h-125q85 186 164 341.5t154 277.5h131q14 -118 22.5 -249.5t10.5 -280.5v-89h-124zM352 502q-13 -25 -25.5 -49t-27 -53.5t-32.5 -67.5t-41 -89h132q1 51 0.5 89t-1.5 67.5t-2.5 54t-2.5 48.5z" />
<glyph unicode="B" d="M207 -8q-15 0 -35.5 1t-43.5 3.5t-46.5 6.5t-42.5 10l143 594q20 5 42.5 8.5t44 6t41.5 3.5t35 1q43 0 78 -8t60 -26t39 -45.5t14 -66.5q0 -45 -24.5 -86.5t-88.5 -66.5q42 -20 61 -49.5t19 -73.5q0 -48 -19 -87t-56.5 -66.5t-93 -43t-127.5 -15.5zM221 272l-41 -171 q11 -2 28.5 -3t42.5 -1q18 0 41 5t43 17t34 33t14 53q0 40 -27 53.5t-70 13.5h-65zM246 371h38q25 0 49 4.5t43 15.5t31 29t12 44q0 32 -22 45t-61 13q-16 0 -30.5 -0.5t-25.5 -2.5z" />
<glyph unicode="C" d="M288 -13q-51 0 -89 15.5t-62.5 44t-36.5 69t-12 89.5q0 75 20.5 151.5t61.5 138t103.5 100t146.5 38.5q32 0 57 -6t44 -13.5t31 -16t17 -12.5l-46 -95q-20 15 -47 25.5t-69 10.5q-49 0 -85.5 -29t-61 -74t-36.5 -99.5t-12 -106.5q0 -27 5.5 -49t18 -38.5t33 -25.5 t50.5 -9q46 0 77 11t51 23l14 -99q-26 -16 -71 -29.5t-102 -13.5z" />
<glyph unicode="D" d="M177 100q5 -1 11 -1h11q57 0 96.5 29.5t63.5 75t35 99.5t11 102q0 24 -4 45t-14 36.5t-28 24t-46 8.5q-18 0 -36 -3zM529 409q0 -80 -19 -155.5t-61 -133.5t-108.5 -93t-160.5 -35q-32 0 -73 3.5t-76 11.5l146 604q44 9 74.5 12t62.5 3q100 0 157.5 -56.5t57.5 -160.5z " />
<glyph unicode="E" d="M53 0l148 619h367l-24 -102h-244l-34 -139h212l-24 -102h-212l-42 -174h266l-24 -102h-389z" />
<glyph unicode="F" d="M57 0l148 619h380l-24 -102h-256l-37 -150h224l-24 -102h-224l-64 -265h-123z" />
<glyph unicode="G" d="M263 -13q-93 0 -139 57t-46 161q0 75 21.5 151.5t64 138t106.5 100t150 38.5q32 0 57 -6t44 -13.5t31 -16t17 -12.5l-46 -95q-20 15 -47 25.5t-69 10.5q-51 0 -89.5 -29t-64.5 -74t-39 -99.5t-13 -106.5q0 -54 20 -88.5t68 -34.5q13 0 25.5 1t23.5 3l54 226h123l-74 -309 q-23 -8 -71.5 -18t-106.5 -10z" />
<glyph unicode="H" d="M586 619l-149 -619h-124l67 273h-165l-66 -273h-123l149 619h123l-59 -244h165l59 244h123z" />
<glyph unicode="I" d="M35 0l24 102h136l100 415h-136l24 102h393l-24 -102h-134l-100 -415h134l-24 -102h-393z" />
<glyph unicode="J" d="M459 207q-11 -47 -28 -87.5t-45 -70t-70.5 -46t-103.5 -16.5q-32 0 -59.5 6.5t-49 16.5t-38.5 22t-28 23l63 89q20 -18 47.5 -34t62.5 -16q48 0 79.5 25.5t48.5 94.5l72 303h-200l24 102h323z" />
<glyph unicode="K" d="M338 322q24 -30 46 -67.5t40.5 -80t33 -87t23.5 -87.5h-129q-7 35 -20.5 75.5t-31 79.5t-37.5 73.5t-40 58.5l-69 -287h-123l148 619h124l-62 -257q31 28 62.5 61.5t60.5 68t54.5 67.5t43.5 60h141q-23 -31 -52 -68t-63 -76.5t-72 -78.5t-78 -74z" />
<glyph unicode="L" d="M429 0h-384l148 619h123l-124 -517h261z" />
<glyph unicode="M" d="M291 619q2 -21 5.5 -55.5t6.5 -74t5.5 -81.5t4.5 -78l150 289h113q-20 -151 -50.5 -304.5t-65.5 -314.5h-113l124 486l-138 -267h-87q-2 66 -6.5 134t-9.5 128l-111 -481h-113q21 76 43.5 158t45.5 163.5t45.5 157.5t44.5 140h106z" />
<glyph unicode="N" d="M337 0q-17 103 -40.5 211t-55.5 233l-106 -444h-109l148 619h105q14 -44 29.5 -96t29 -105t25 -105t18.5 -95l95 401h109l-148 -619h-100z" />
<glyph unicode="O" d="M367 633q81 0 127 -52.5t46 -139.5q0 -39 -6 -88t-20 -99.5t-37 -98.5t-56 -85.5t-77.5 -60t-102.5 -22.5q-82 0 -128 52.5t-46 139.5q0 39 6 88t20.5 99.5t37 98.5t56 85.5t78 60t102.5 22.5zM255 94q41 0 71.5 35t50.5 86.5t30 110t10 106.5q0 39 -13.5 66.5 t-50.5 27.5q-41 0 -72 -35t-51 -86.5t-30 -110.5t-10 -106q0 -39 13.5 -66.5t51.5 -27.5z" />
<glyph unicode="P" d="M347 626q55 0 94.5 -12.5t65 -35.5t37 -54.5t11.5 -68.5q0 -63 -23.5 -109.5t-65.5 -76.5t-100 -44.5t-128 -14.5h-26l-51 -210h-123l147 611q47 8 88.5 11.5t73.5 3.5zM331 519q-14 0 -23 -0.5t-23 -2.5l-48 -200h30q81 0 122.5 32t41.5 89q0 38 -21 60t-79 22z" />
<glyph unicode="Q" d="M367 633q81 0 126.5 -52.5t45.5 -139.5q0 -37 -5.5 -83t-17.5 -94t-32.5 -94.5t-49.5 -84.5t-68.5 -63.5t-90.5 -32.5v-7q0 -29 40.5 -46t100.5 -24l-38 -82q-100 14 -150.5 48.5t-50.5 100.5v8t1 9q-53 19 -81.5 66.5t-28.5 116.5q0 39 6 88t20 99.5t37 98.5t56 85.5 t77.5 60t102.5 22.5zM255 94q41 0 71.5 35t50.5 86.5t30 110t10 106.5q0 39 -13.5 66.5t-50.5 27.5q-41 0 -72 -35t-51 -86.5t-30 -110.5t-10 -106q0 -39 13.5 -66.5t51.5 -27.5z" />
<glyph unicode="R" d="M381 253q15 -25 28.5 -56t25.5 -64.5t21.5 -67.5t15.5 -65h-120q-11 60 -31 116t-47 112h-64l-55 -228h-121l145 609q19 4 40.5 7.5t42.5 5.5t40 3t34 1q99 0 148 -43.5t49 -117.5q0 -35 -9.5 -68.5t-29 -62t-48 -50t-65.5 -31.5zM280 330q26 0 49.5 7t41.5 22t28.5 38 t10.5 54q0 35 -21 54t-72 19q-11 0 -20 -1t-17 -3l-46 -190h46z" />
<glyph unicode="S" d="M236 90q23 0 44 4.5t36.5 15t25 26.5t9.5 40q0 18 -7.5 32.5t-20.5 26.5t-30.5 22t-37.5 20q-25 13 -46.5 26t-37 31t-24.5 43t-9 61q0 88 59.5 141.5t169.5 53.5q36 0 64.5 -5t50.5 -12t37.5 -15t25.5 -14l-52 -95q-23 16 -58 27t-84 11q-38 0 -64.5 -17t-26.5 -59 q0 -34 22.5 -51.5t54.5 -31.5q30 -14 55 -29t43 -35t28.5 -47t10.5 -64q0 -102 -65.5 -155.5t-185.5 -53.5q-40 0 -71.5 6t-54.5 14t-39.5 17.5t-26.5 16.5l53 94q10 -6 25.5 -14t35 -15t42.5 -11.5t49 -4.5z" />
<glyph unicode="T" d="M603 619l-24 -102h-164l-124 -517h-123l124 517h-163l24 102h450z" />
<glyph unicode="U" d="M237 -13q-88 0 -129 42t-41 117q0 41 12 92l92 381h123l-91 -380q-5 -23 -9 -43.5t-4 -37.5q0 -30 14 -47t51 -17q22 0 38 6.5t28 22t21.5 41.5t18.5 65l94 390h123l-96 -399q-13 -55 -29.5 -98t-43.5 -73t-68.5 -46t-103.5 -16z" />
<glyph unicode="V" d="M170 0q-8 58 -14 127.5t-10.5 143t-7 148.5t-2.5 144v30t1 26h126q-2 -47 -3 -107.5t-1 -125.5q0 -70 1.5 -137t4.5 -124q27 52 58.5 118t62 133.5t57.5 131t46 111.5h128q-26 -60 -60.5 -134t-75 -155.5t-86.5 -166t-94 -163.5h-131z" />
<glyph unicode="W" d="M324 0q-2 21 -5.5 55.5t-6.5 74t-6 81t-4 77.5l-149 -288h-114q20 151 50.5 304.5t65.5 314.5h113l-123 -486l137 267h87q2 -66 7 -134t10 -128l111 481h112q-21 -76 -43 -158t-45 -163.5t-46 -157.5t-45 -140h-106z" />
<glyph unicode="X" d="M344 430q33 43 68.5 91.5t67.5 97.5h130q-54 -77 -110 -148t-113 -141q16 -43 31 -90t26.5 -91.5t19.5 -83t11 -65.5h-122q-7 51 -19.5 111.5t-29.5 116.5l-161 -228h-141l258 338l-110 281h126z" />
<glyph unicode="Y" d="M311 340q16 23 39 57.5t47 73t47.5 77.5t41.5 71h132q-31 -51 -61.5 -99t-62.5 -95t-67.5 -93.5t-75.5 -95.5l-57 -236h-123l56 235q-31 97 -51 189.5t-34 194.5h121q6 -72 19.5 -144.5t28.5 -134.5z" />
<glyph unicode="Z" d="M547 519q-58 -65 -107 -121t-92 -106.5t-82 -97.5t-76 -93h269l-25 -101h-406l20 81q31 42 66.5 88t79 98.5t97 114.5t119.5 136h-250l25 101h386z" />
<glyph unicode="[" d="M297 699h278l-23 -96h-160l-162 -672h160l-23 -96h-278z" />
<glyph unicode="\" d="M206 699h117l81 -864h-119z" />
<glyph unicode="]" d="M293 -165h-278l23 96h160l162 672h-160l23 96h278z" />
<glyph unicode="^" d="M537 306l-112 -48l-73 226l-182 -222l-93 56l251 301h104z" />
<glyph unicode="_" d="M-8 -58h447l-26 -107h-447z" />
<glyph unicode="`" d="M299 691l158 -118l-45 -67l-174 91z" />
<glyph unicode="a" d="M251 94q28 0 47 12.5t33 29.5q2 14 4 27t6 30l43 178q-11 3 -23 4t-23 1q-35 0 -63 -16.5t-48 -43.5t-30.5 -62t-10.5 -72q0 -26 4.5 -43t13 -27t20.5 -14t27 -4zM206 -11q-66 1 -104 47.5t-38 135.5q0 68 23 125t63 97.5t93.5 63t113.5 22.5q41 0 83 -8t85 -25l-62 -255 q-4 -18 -6 -35.5t-2 -35.5q0 -29 5.5 -56.5t14.5 -54.5l-108 -18l-5 10t-6 13t-5 12.5t-3 8.5q-20 -15 -54 -31t-88 -16z" />
<glyph unicode="b" d="M502 295q0 -68 -21 -125t-59 -97.5t-91 -63t-117 -22.5q-40 0 -88 8t-86 22l158 656l128 21l-57 -238q21 11 44.5 17t45.5 6q66 0 104.5 -44.5t38.5 -139.5zM182 97q11 -2 23 -3t23 -1q37 0 65 16t47.5 42.5t29.5 61t10 72.5q0 52 -17.5 71.5t-46.5 19.5q-16 0 -36.5 -6 t-34.5 -17z" />
<glyph unicode="c" d="M77 182q0 65 23 120t64.5 94.5t98.5 62t126 22.5q27 0 47.5 -2t37.5 -5.5t30.5 -8t26.5 -10.5l-44 -98q-16 7 -41 12.5t-57 5.5q-41 0 -75 -12.5t-59.5 -36.5t-39.5 -59t-14 -80q0 -20 5 -36.5t18.5 -28.5t37 -19t59.5 -7q39 0 72.5 7.5t50.5 15.5l12 -98q-12 -6 -26 -12 t-33 -10.5t-44.5 -7t-60.5 -2.5q-61 0 -102 15.5t-66 41.5t-36 61.5t-11 74.5z" />
<glyph unicode="d" d="M251 94q28 0 47 12.5t33 29.5q2 14 4 27t6 30l43 178q-11 3 -23 4t-23 1q-35 0 -63 -16.5t-48 -43.5t-30.5 -62t-10.5 -72q0 -26 4.5 -43t13 -27t20.5 -14t27 -4zM463 192q-4 -18 -6 -35.5t-2 -35.5q0 -29 5.5 -56.5t14.5 -54.5l-108 -18l-5 10t-6 13t-5 12.5t-3 8.5 q-20 -15 -54 -31t-88 -16q-66 1 -104 47.5t-38 135.5q0 68 23 124.5t62.5 96.5t93 62t113.5 22q27 0 52 -7l48 203l128 21z" />
<glyph unicode="e" d="M196 167q0 -18 6 -32.5t19.5 -24.5t36 -15.5t56.5 -5.5q40 0 76 8.5t53 16.5l8 -93q-24 -12 -67 -22.5t-94 -10.5q-57 0 -98 14.5t-67 40.5t-38 61.5t-12 78.5q0 58 19.5 112.5t57 95.5t91 66t122.5 25t113 -34t44 -95q0 -51 -25 -86.5t-69 -57.5t-103.5 -32t-128.5 -10z M342 384q-46 0 -87.5 -31.5t-57.5 -100.5q63 0 103.5 8t63.5 20.5t32 27.5t9 28q0 23 -16.5 35.5t-46.5 12.5z" />
<glyph unicode="f" d="M278 26q-19 -94 -72 -144t-141 -50q-30 0 -55 5.5t-45 14.5l34 104q13 -5 28.5 -8.5t35.5 -3.5q22 0 38 7t26.5 18.5t17 27t9.5 33.5l68 338h-101l25 102h97l5 27q12 57 33.5 94.5t51 60t65.5 32t76 9.5q32 0 61.5 -5t55.5 -17l-43 -100q-20 9 -37.5 13t-38.5 4 q-18 0 -33.5 -2.5t-28.5 -12t-23 -27.5t-16 -49l-5 -27h170l-25 -102h-165z" />
<glyph unicode="g" d="M438 55q-14 -58 -35 -100t-53.5 -69.5t-77.5 -40.5t-106 -13q-53 0 -90.5 9.5t-74.5 29.5l43 97q26 -11 58.5 -21t75.5 -10q60 0 90.5 25.5t40.5 67.5l6 26q-22 -11 -45 -17.5t-44 -6.5q-80 0 -115 45t-35 119q0 68 24.5 121t65.5 89t93.5 55t108.5 19q42 0 84.5 -6.5 t80.5 -22.5zM392 374q-24 6 -46 6q-34 0 -61.5 -14.5t-47 -38.5t-30.5 -56t-11 -66q0 -30 13 -52t53 -22q14 0 35.5 5.5t41.5 18.5z" />
<glyph unicode="h" d="M279 468q17 5 35 8.5t35 3.5q74 0 111 -35.5t37 -100.5q0 -17 -2.5 -37t-7.5 -42l-64 -265h-123l60 249q3 16 7 33t4 34q0 23 -12 40.5t-46 17.5q-13 0 -28.5 -2.5t-29.5 -8.5l-88 -363h-123l161 673l128 21z" />
<glyph unicode="i" d="M459 13q-37 -14 -69.5 -19t-60.5 -5q-71 0 -105 34.5t-34 97.5q0 33 11 77l40 170h-130l25 102h253l-68 -287q-6 -21 -6 -37q0 -50 51 -50q17 0 40 3.5t51 13.5zM332 527q-32 0 -51.5 17t-19.5 53q0 19 7 35.5t18.5 27.5t26.5 17.5t31 6.5q29 0 50.5 -17t21.5 -55 q0 -18 -7.5 -34t-19.5 -27t-27 -17.5t-30 -6.5z" />
<glyph unicode="j" d="M367 25q-14 -57 -33.5 -95t-45.5 -60t-59 -31t-74 -9q-51 0 -93 12.5t-68 32.5l48 99q22 -14 47 -25t57 -11q38 0 62 18.5t36 68.5l82 343h-190l25 102h313zM396 527q-32 0 -52 17t-20 53q0 19 7 35.5t18.5 27.5t26.5 17.5t31 6.5q30 0 51.5 -17t21.5 -55q0 -18 -7.5 -34 t-19.5 -27t-27 -17.5t-30 -6.5z" />
<glyph unicode="k" d="M567 470q-48 -58 -108 -114.5t-114 -101.5q18 -22 36.5 -53.5t36.5 -66.5t33 -70t25 -64h-133q-8 25 -21 57t-28 64t-31 60t-31 46l-54 -227h-124l162 673l128 21l-97 -404q18 15 42 37t49 46.5t48.5 50t40.5 46.5h140z" />
<glyph unicode="l" d="M455 20q-4 -2 -15.5 -7.5t-30.5 -10.5t-44.5 -9t-56.5 -4q-68 0 -102 35t-34 98q0 17 2.5 35.5t7.5 38.5l93 390h-130l24 102h253l-118 -500q-2 -10 -4.5 -21.5t-2.5 -20.5q0 -20 11 -35t45 -15q14 0 28.5 2.5t27.5 6.5t23 7t15 5z" />
<glyph unicode="m" d="M129 449q37 13 67.5 19.5t59.5 6.5q26 0 48.5 -8t36.5 -27q23 18 49.5 26.5t47.5 8.5q40 0 65.5 -24.5t25.5 -76.5q0 -12 -1.5 -25.5t-5.5 -27.5l-76 -321h-100l78 330q2 7 3 14.5t1 11.5q0 30 -27 30q-10 0 -19 -5t-17 -12q0 -23 -6 -48l-34 -142h-97l35 149q2 6 4 14 t2 16q0 10 -5 18.5t-20 8.5q-17 0 -32 -5l-91 -380h-100z" />
<glyph unicode="n" d="M152 450q31 10 81 20t107 10q84 0 120.5 -36t36.5 -100q0 -17 -2.5 -37t-7.5 -42l-65 -265h-123l61 249q3 16 7 33t4 34q0 23 -12.5 40.5t-45.5 17.5q-14 0 -29 -2.5t-29 -8.5l-88 -363h-123z" />
<glyph unicode="o" d="M256 94q30 0 53 18t39.5 45t25 58.5t8.5 59.5q0 47 -13.5 74t-55.5 27q-29 0 -52.5 -18t-39.5 -45t-24.5 -58.5t-8.5 -59.5q0 -47 13.5 -74t54.5 -27zM231 -13q-84 0 -125 48t-41 128q0 60 18 117t53 102t87 72.5t120 27.5q73 0 117.5 -44.5t44.5 -132.5q0 -59 -17 -116 t-51.5 -102t-86 -72.5t-119.5 -27.5z" />
<glyph unicode="p" d="M327 480q93 0 136 -47.5t43 -122.5q0 -62 -18 -120t-54.5 -102.5t-92.5 -71t-131 -26.5q-20 0 -31 1t-19 3l-39 -159h-123l148 613q21 9 45 15t48.5 10t47 5.5t40.5 1.5zM185 98q5 -2 11 -2h13q41 0 74 16.5t55.5 44.5t34.5 65.5t12 78.5q0 15 -3 29t-11 25t-23 17.5 t-39 6.5q-20 0 -33.5 -2t-24.5 -5z" />
<glyph unicode="q" d="M72 172q0 69 23 125.5t63 97t93.5 63t113.5 22.5q41 0 83 -8t85 -25l-147 -612h-123l42 178q-44 -22 -91 -22q-65 0 -103.5 46t-38.5 135zM392 371q-11 3 -23 4t-23 1q-35 0 -63 -16.5t-48 -43.5t-30.5 -62t-10.5 -72q0 -26 4.5 -43t13 -27t20.5 -14t27 -4q16 0 36.5 6.5 t34.5 17.5z" />
<glyph unicode="r" d="M488 348q-19 7 -45 11t-64 4q-26 0 -53.5 -3.5t-50.5 -11.5l-83 -348h-123l105 439q47 19 101.5 29.5t102.5 10.5q56 0 91.5 -5t65.5 -13z" />
<glyph unicode="s" d="M234 91q53 0 73 14t20 33q0 9 -3.5 16t-12 13.5t-23.5 13t-38 15.5q-28 10 -49 21t-35 25.5t-21 33.5t-7 45q0 73 51.5 117t154.5 44q51 0 93.5 -9t67.5 -21l-45 -97q-23 11 -52.5 18t-74.5 7q-10 0 -22.5 -1.5t-23.5 -6.5t-18.5 -13.5t-7.5 -21.5q0 -9 2.5 -15.5 t10.5 -13t23 -13.5t40 -16q30 -12 51.5 -24t36 -27t21 -35t6.5 -48q0 -29 -12 -57t-37.5 -50.5t-66.5 -36.5t-98 -14q-41 0 -72 5t-54 12t-38.5 14.5t-24.5 12.5l46 97q20 -11 55 -24t84 -13z" />
<glyph unicode="t" d="M204 368h-94l25 102h93l28 118l129 20l-34 -138h179l-25 -102h-178l-44 -183q-5 -25 -5 -39q0 -30 20.5 -40t46.5 -10q27 0 55.5 6.5t55.5 17.5l-1 -103q-31 -14 -68.5 -21t-74.5 -7q-80 0 -119.5 34.5t-39.5 100.5q0 16 2 32.5t7 35.5z" />
<glyph unicode="u" d="M221 -11q-81 0 -113 38t-32 104q0 46 14 107l56 232h123l-53 -224q-8 -30 -12 -54.5t-4 -43.5q0 -52 50 -52q28 0 44.5 11.5t31.5 28.5q2 14 3.5 27t6.5 30l66 277h123l-67 -278q-4 -18 -6.5 -35.5t-2.5 -35.5q0 -29 6 -56.5t15 -54.5l-108 -18l-5 10t-6 13t-5 12.5 t-3 8.5q-20 -15 -52 -31t-70 -16z" />
<glyph unicode="v" d="M174 0q-23 91 -41.5 209.5t-26.5 260.5h128q1 -36 3 -79t5.5 -86.5t8 -86.5t9.5 -79q21 30 45 71.5t46.5 87t41.5 90.5t30 82h132q-24 -64 -57 -131.5t-69.5 -130t-74 -116.5t-69.5 -92h-111z" />
<glyph unicode="w" d="M307 0q-5 53 -8.5 107.5t-7.5 124.5q-18 -37 -33 -66.5t-30.5 -55.5t-32 -52.5t-36.5 -57.5h-95q0 44 2 97.5t6.5 114t11.5 125.5t18 133h107q-17 -87 -32 -170.5t-26 -176.5q23 40 41 74t33 64t28 57.5t26 56.5h81q2 -56 4.5 -114t6.5 -138q16 48 29.5 91t25 85t22.5 84 t22 87h108q-44 -137 -87.5 -258t-91.5 -212h-92z" />
<glyph unicode="x" d="M238 470l69 -150q30 36 59 74.5t54 75.5h130q-38 -54 -83 -111.5t-104 -120.5q35 -66 60.5 -122t45.5 -116h-126q-16 42 -33.5 81.5t-32.5 70.5l-132 -152h-135l213 239l-114 231h129z" />
<glyph unicode="y" d="M549 470q-26 -69 -51 -128t-51.5 -112t-55.5 -101.5t-62 -95.5q-25 -36 -53.5 -71.5t-62 -64.5t-73.5 -47t-87 -18q-62 0 -96 21l39 98q16 -7 30 -10.5t36 -3.5q73 0 121 72q-24 96 -43.5 208.5t-26.5 252.5h128q1 -36 3.5 -79t6.5 -87t9.5 -87t12.5 -78q46 70 81 151.5 t64 179.5h131z" />
<glyph unicode="z" d="M509 380q-20 -17 -52.5 -47.5t-71.5 -68t-81 -79.5t-80 -83h225l-25 -102h-375l21 81q27 32 61.5 69.5t72 76t74.5 75t69 66.5h-203l25 102h361z" />
<glyph unicode="{" d="M247 267q34 -15 46 -41t12 -56q0 -14 -1.5 -28.5t-5.5 -28.5l-22 -99q-2 -10 -4.5 -22t-2.5 -22q0 -17 10 -28t36 -11h90l-23 -96h-93q-29 0 -53.5 6t-42.5 19.5t-28.5 36t-10.5 54.5q0 26 9 62l25 109q3 12 5.5 24t2.5 24q0 20 -10.5 34.5t-39.5 14.5h-47l23 96h49 q31 0 53 21.5t31 62.5l35 148q9 37 21.5 65.5t33 47.5t51.5 29t76 10h107l-24 -96h-75q-21 0 -34.5 -4.5t-22.5 -14t-15 -25t-11 -36.5l-30 -127q-14 -56 -40.5 -87.5t-79.5 -41.5z" />
<glyph unicode="|" d="M333 699h123l-207 -864h-124z" />
<glyph unicode="}" d="M335 267q-34 15 -46 41t-12 56q0 14 2 28.5t5 28.5l22 99q2 10 4.5 22t2.5 22q0 17 -9.5 28t-36.5 11h-90l23 96h93q29 0 54 -6t43 -19.5t28 -36t10 -54.5q0 -14 -2 -29t-6 -32l-26 -110q-3 -12 -5 -24t-2 -24q0 -20 10 -34.5t39 -14.5h47l-23 -96h-48q-31 0 -53.5 -21.5 t-31.5 -62.5l-35 -148q-9 -37 -21.5 -65.5t-33 -47.5t-51.5 -29t-76 -10h-106l23 96h76q21 0 34 4.5t22 14t15 25t11 36.5l30 127q14 56 40.5 87.5t79.5 41.5z" />
<glyph unicode="~" d="M530 328q-12 -32 -28 -60.5t-36.5 -49.5t-46.5 -33.5t-58 -12.5t-54.5 13t-41.5 27q-15 10 -31 19t-33 9q-10 0 -18 -2t-15.5 -8.5t-16 -19.5t-18.5 -35l-83 25q10 30 25.5 58.5t36.5 50t47.5 34.5t58.5 13t54.5 -12.5t42.5 -26.5q14 -10 30.5 -19.5t32.5 -9.5q10 0 18 2 t15.5 9t15.5 20t19 35z" />
<glyph unicode="&#xa0;" />
<glyph unicode="&#xa1;" d="M318 303q-32 0 -53 18.5t-21 55.5q0 20 7.5 37t20 29.5t28.5 19.5t34 7q31 0 52.5 -19t21.5 -56q0 -21 -7.5 -38t-20 -29t-29 -18.5t-33.5 -6.5zM167 6q9 36 17 65t17 55t19 51.5t22 55.5h102q-3 -35 -6.5 -64t-7.5 -57t-10 -55.5t-13 -57.5l-38 -160h-142z" />
<glyph unicode="&#xa2;" d="M313 -97h-124l32 134q-37 8 -62.5 25.5t-41 41.5t-22.5 52.5t-7 59.5q0 56 17.5 103t49.5 82.5t76.5 58.5t98.5 30l31 129h123l-31 -131q26 -4 46.5 -11t37.5 -14l-45 -98q-15 7 -42 14.5t-59 7.5q-38 0 -71 -10t-57 -29.5t-37.5 -49t-13.5 -68.5q0 -45 28.5 -70.5 t97.5 -25.5q39 0 68 8.5t46 16.5l12 -98q-20 -11 -51 -20t-71 -12z" />
<glyph unicode="&#xa3;" d="M310 349h158l-24 -102h-158q-8 -32 -21.5 -71t-26.5 -73h246l-24 -103h-384q34 75 53.5 135.5t33.5 111.5h-79l24 103h80l23 92q13 52 37 88.5t55.5 59t68.5 32.5t75 10t73 -7.5t61 -24.5l-50 -93q-20 11 -41.5 16t-42.5 5t-39 -4.5t-33.5 -17t-27.5 -34.5t-21 -58z" />
<glyph unicode="&#xa4;" d="M305 134q-45 0 -84 18l-67 -64l-81 80l65 62q-19 35 -19 81q0 47 19 81l-65 63l82 80l67 -64q19 8 38.5 12.5t44.5 4.5q43 0 83 -17l67 64l81 -80l-64 -63q18 -35 18 -80q0 -46 -18 -82l64 -62l-82 -80l-67 64q-19 -9 -38.5 -13.5t-43.5 -4.5zM305 231q31 0 53 20.5 t22 60.5q0 38 -22 58.5t-53 20.5q-32 0 -54 -20.5t-22 -59.5t22 -59.5t54 -20.5z" />
<glyph unicode="&#xa5;" d="M322 376q89 107 166 243h133q-25 -40 -49 -75.5t-49.5 -70t-53 -70t-60.5 -75.5h98l-19 -78h-131l-16 -71h131l-19 -78h-132l-24 -101h-130l25 101h-130l18 78h131l16 71h-130l19 78h106q-29 77 -54 154t-39 137h128q6 -30 12 -57t13.5 -55.5t17 -60t22.5 -70.5z" />
<glyph unicode="&#xa6;" d="M253 345l85 354h123l-85 -354h-123zM338 189l-84 -354h-124l85 354h123z" />
<glyph unicode="&#xa7;" d="M301 490q0 -21 18 -33.5t60 -33.5l17 -9q17 -8 33.5 -18t29.5 -23.5t21 -32.5t8 -46q0 -42 -28.5 -84t-82.5 -73q17 -18 22.5 -37.5t5.5 -39.5q0 -29 -13 -57.5t-39.5 -50.5t-67.5 -35.5t-97 -13.5q-42 0 -83.5 9t-70.5 27l42 90q28 -16 54.5 -22.5t55.5 -6.5 q55 0 78.5 16t23.5 39t-18 35.5t-59 33.5l-18 9q-17 8 -33.5 18t-29.5 24.5t-21 33.5t-8 46q0 44 29 85.5t80 72.5q-14 16 -20 36.5t-6 40.5q0 27 13 53t39 46t65 32t90 12q39 0 77 -8.5t67 -24.5l-42 -89q-28 14 -54 20t-50 6q-45 0 -66.5 -13.5t-21.5 -33.5zM211 277 q0 -19 14.5 -39t45.5 -34l40 -19q30 18 49 41t19 47q0 23 -15.5 42t-53.5 36l-34 15q-29 -19 -47 -40.5t-18 -48.5z" />
<glyph unicode="&#xa8;" d="M268 538q-26 0 -43 16t-17 43q0 17 6.5 31t16.5 24t23 15.5t26 5.5q25 0 43 -16.5t18 -43.5q0 -17 -7 -30.5t-17.5 -23.5t-23.5 -15.5t-25 -5.5zM466 538q-26 0 -43 16t-17 43q0 34 23 55t50 21q25 0 42.5 -16.5t17.5 -43.5q0 -17 -7 -30.5t-17.5 -23.5t-23.5 -15.5 t-25 -5.5z" />
<glyph unicode="&#xa9;" d="M364 120q-17 -8 -35.5 -12t-34.5 -4q-29 0 -50.5 10.5t-36 28t-21.5 40t-7 46.5t7 47t21 41t36 29t52 11q15 0 32.5 -2.5t35.5 -10.5l-21 -54q-11 5 -21.5 6.5t-20.5 1.5q-31 0 -44.5 -20t-13.5 -45q0 -32 16 -50.5t47 -18.5q8 0 20 2t22 7zM63 231q0 61 19 107t50 76.5 t71.5 45.5t84.5 15t84.5 -15t72 -45.5t50.5 -76.5t19 -107t-19 -106.5t-50.5 -76t-72 -46t-84.5 -15.5t-84.5 15.5t-71.5 46t-50 76t-19 106.5zM288 51q29 0 57.5 11.5t51 34.5t36 57t13.5 78q0 43 -13.5 76.5t-36 56.5t-50.5 35t-58 12t-58.5 -12t-51 -35t-36 -56.5 t-13.5 -76.5q0 -44 13.5 -78t36 -57t51 -34.5t58.5 -11.5z" />
<glyph unicode="&#xaa;" d="M398 542q-6 1 -12 1.5t-11 0.5q-24 0 -45.5 -8.5t-38 -23.5t-26 -36.5t-9.5 -48.5t14 -46t43 -19q13 0 26 4t27 15q-1 3 -1 13q0 14 3 27.5t6 27.5zM472 450q-3 -15 -6.5 -33t-4 -38.5t3 -43t13.5 -47.5l-84 -12l-12 28q-47 -32 -94 -32q-31 0 -54.5 12t-39.5 32t-24 46 t-8 55q0 37 14 75.5t43.5 69.5t73.5 50.5t104 19.5q26 0 54.5 -3.5t60.5 -12.5z" />
<glyph unicode="&#xab;" d="M198 251l58 -169l-69 -36l-98 213l174 204l62 -45zM398 251l58 -169l-69 -36l-98 213l174 204l62 -45z" />
<glyph unicode="&#xac;" d="M439 42h-105l53 219h-299l25 102h403z" />
<glyph unicode="&#xad;" d="M168 317h274l-30 -121h-273z" />
<glyph unicode="&#xae;" d="M257 187v-77h-53v238q13 4 30.5 6.5t36.5 2.5q57 0 84 -22t27 -64q0 -49 -39 -71q11 -17 24.5 -40.5t26.5 -49.5h-57q-13 24 -23.5 42.5t-19.5 34.5h-37zM257 237h19q27 0 40 7t13 30q0 20 -16 26.5t-33 6.5q-7 0 -12.5 -0.5t-10.5 -1.5v-68zM63 231q0 61 19 107t50 76.5 t71.5 45.5t84.5 15t84.5 -15t72 -45.5t50.5 -76.5t19 -107t-19 -106.5t-50.5 -76t-72 -46t-84.5 -15.5t-84.5 15.5t-71.5 46t-50 76t-19 106.5zM288 51q29 0 57.5 11.5t51 34.5t36 57t13.5 78q0 43 -13.5 76.5t-36 56.5t-50.5 35t-58 12t-58.5 -12t-51 -35t-36 -56.5 t-13.5 -76.5q0 -44 13.5 -78t36 -57t51 -34.5t58.5 -11.5z" />
<glyph unicode="&#xaf;" d="M236 647h287l-21 -87h-288z" />
<glyph unicode="&#xb0;" d="M348 698q31 0 57.5 -9.5t45.5 -27.5t30 -44t11 -58t-11 -57.5t-30 -43.5t-45.5 -27.5t-57.5 -9.5q-65 0 -104.5 36.5t-39.5 101.5t40 102t104 37zM348 505q24 0 39.5 13.5t15.5 41.5t-15.5 41t-39.5 13q-22 0 -38 -13t-16 -41t15.5 -41.5t38.5 -13.5z" />
<glyph unicode="&#xb1;" d="M47 102h419l-24 -102h-419zM118 402h157l37 156h106l-37 -156h157l-24 -102h-157l-38 -157h-106l38 157h-157z" />
<glyph unicode="&#xb2;" d="M454 351l-20 -81h-256q0 27 5 51t18.5 45.5t37.5 41.5t61 40q26 15 41 25t23 18.5t10.5 16t2.5 16.5q0 11 -9 18.5t-24 7.5q-17 0 -39.5 -10t-51.5 -33l-33 71q29 26 65.5 40.5t76.5 14.5q22 0 42 -5.5t35 -16.5t24 -29t9 -42q0 -41 -21 -72t-70 -61q-12 -8 -24.5 -15.5 t-23.5 -15t-19 -14t-11 -11.5h151z" />
<glyph unicode="&#xb3;" d="M204 366q17 -11 42.5 -17.5t51.5 -6.5q29 0 50.5 10t21.5 33q0 15 -13.5 23.5t-43.5 8.5h-45l18 69h40q29 0 44.5 13t15.5 29q0 11 -10 19t-31 8q-23 0 -46 -7.5t-41 -16.5l-19 72q23 11 58.5 20.5t70.5 9.5q21 0 40.5 -4t34 -14t23 -26.5t8.5 -41.5q0 -26 -15 -50.5 t-44 -37.5q20 -10 31.5 -30t11.5 -44q0 -33 -14.5 -56.5t-37.5 -38.5t-52.5 -21.5t-60.5 -6.5q-35 0 -68.5 7.5t-56.5 21.5z" />
<glyph unicode="&#xb4;" d="M495 597l-174 -91l-45 67l158 118z" />
<glyph unicode="&#xb5;" d="M462 199q-11 -39 -11 -65q0 -36 39 -43l-35 -101q-45 1 -67.5 13t-36.5 33q-20 -17 -49 -32t-66 -15q-26 0 -47 7t-34 18q-1 -26 -4.5 -48t-9.5 -48l-20 -83h-120l152 635h122l-54 -225q-6 -23 -11.5 -47.5t-5.5 -44.5q0 -25 11.5 -41t40.5 -16q28 0 46 10t32 20 q-3 16 -1.5 33t5.5 34l67 277h122z" />
<glyph unicode="&#xb6;" d="M210 232q-59 12 -88 48.5t-29 90.5q0 61 25 109t68 80t98.5 49t117.5 17q48 0 96.5 -5.5t83.5 -15.5l-185 -770h-101l165 687q-7 1 -22 2t-32 1h-13.5t-12.5 -1l-165 -689h-102z" />
<glyph unicode="&#xb7;" d="M297 354q35 0 57.5 -20t22.5 -59q0 -22 -8 -40.5t-21.5 -31.5t-31 -20.5t-35.5 -7.5q-35 0 -57.5 20t-22.5 60q0 22 8 40t21.5 31t31 20.5t35.5 7.5z" />
<glyph unicode="&#xb8;" d="M295 -25q22 -11 31 -26t9 -33q0 -41 -34.5 -63.5t-88.5 -22.5q-48 0 -86 20l26 58q11 -6 25.5 -9.5t28.5 -3.5q23 0 30.5 9t7.5 16q0 11 -5.5 18.5t-20.5 12.5l-18 6q12 19 22 32.5t21 28.5h82q-8 -10 -15 -21t-15 -22z" />
<glyph unicode="&#xb9;" d="M176 351h95l38 160q-20 -11 -40.5 -18.5t-49.5 -18.5l-10 78q42 15 81 34t71 40h77l-66 -275h81l-20 -81h-277z" />
<glyph unicode="&#xba;" d="M266 407q0 -33 16 -43t36 -10t38 11t32 30.5t22.5 46t8.5 57.5q0 33 -16 43.5t-36 10.5t-38 -11.5t-32 -31t-22.5 -46t-8.5 -57.5zM173 400q0 45 13 87t38.5 74.5t64 52t88.5 19.5q70 0 102.5 -34t32.5 -93q0 -44 -13 -86t-38.5 -74.5t-64 -52.5t-88.5 -20 q-70 0 -102.5 34t-32.5 93z" />
<glyph unicode="&#xbb;" d="M391 258l-58 169l70 36l97 -213l-173 -204l-63 45zM191 258l-58 169l70 36l97 -213l-173 -204l-63 45z" />
<glyph unicode="&#xbc;" d="M499 250l-36 -151h36l-14 -60h-36l-10 -39h-72l10 39h-128l12 49q18 23 33.5 42.5t31 38.5t33.5 38.5t40 42.5h100zM113 557q38 15 66 30.5t59 38.5h63l-61 -250h-86l37 150q-22 -11 -37.5 -17t-35.5 -11zM413 188q-20 -20 -39.5 -44.5t-35.5 -44.5h53zM574 619 l-465 -619h-96l464 619h97z" />
<glyph unicode="&#xbd;" d="M572 619l-465 -619h-95l464 619h96zM113 557q38 15 66 30.5t59 38.5h63l-61 -250h-86l37 150q-22 -11 -37.5 -17t-35.5 -11zM484 62l-15 -62h-201q2 47 23.5 71.5t61.5 44.5q37 19 53.5 30t16.5 25q0 9 -6.5 13.5t-17.5 4.5q-16 0 -32.5 -8t-32.5 -21l-28 52 q20 21 50.5 34t62.5 13q42 0 62 -19.5t20 -51.5q0 -21 -6.5 -36t-17.5 -26.5t-25 -20t-30 -16.5l-26 -13t-22 -14h110z" />
<glyph unicode="&#xbe;" d="M593 619l-465 -619h-96l464 619h97zM112 445q10 -5 28 -10t38 -5q7 0 16 0.5t17 3t13.5 7.5t5.5 15q0 22 -54 22h-20l13 52h23q8 0 17.5 1t17.5 3.5t13 7.5t5 13q0 9 -8 13t-21 4q-20 0 -39.5 -6.5t-30.5 -11.5l-12 54q17 11 46 18t58 7q47 0 66.5 -16.5t19.5 -38.5 t-10 -37.5t-37 -30.5q22 -8 30 -20.5t8 -27.5q0 -26 -12 -44t-30.5 -29.5t-42 -16.5t-45.5 -5q-38 0 -62 5.5t-38 13.5zM499 250l-36 -151h36l-14 -60h-36l-10 -39h-72l10 39h-128l12 49q18 23 33.5 42.5t31 38.5t33.5 38.5t40 42.5h100zM413 188q-20 -20 -39.5 -44.5 t-35.5 -44.5h53z" />
<glyph unicode="&#xbf;" d="M341 303q-32 0 -53 18.5t-21 55.5q0 20 7.5 37t20 29.5t28.5 19.5t34 7q31 0 52.5 -19t21.5 -56q0 -21 -7.5 -38t-20 -29t-29 -18.5t-33.5 -6.5zM247 -67q33 0 61 10.5t67 27.5l15 -95q-41 -22 -85 -34t-92 -12q-44 0 -74.5 10t-50 27.5t-28.5 40.5t-9 50q0 30 9 53.5 t24.5 43.5t36.5 37.5t46 34.5q23 16 39 28.5t27.5 24.5t19.5 25.5t14 32.5h114q-4 -23 -11.5 -42.5t-20.5 -38.5t-32.5 -37t-47.5 -38q-24 -18 -40.5 -30.5t-26 -23.5t-14 -22.5t-4.5 -26.5q0 -46 63 -46z" />
<glyph unicode="&#xc0;" d="M356 144h-176q-15 -34 -31 -70t-30 -74h-125q85 186 164 341.5t154 277.5h131q14 -118 22.5 -249.5t10.5 -280.5v-89h-124zM352 502q-13 -25 -25.5 -49t-27 -53.5t-32.5 -67.5t-41 -89h132q1 51 0.5 89t-1.5 67.5t-2.5 54t-2.5 48.5zM333 830l158 -118l-45 -67l-174 91z " />
<glyph unicode="&#xc1;" d="M356 144h-176q-15 -34 -31 -70t-30 -74h-125q85 186 164 341.5t154 277.5h131q14 -118 22.5 -249.5t10.5 -280.5v-89h-124zM352 502q-13 -25 -25.5 -49t-27 -53.5t-32.5 -67.5t-41 -89h132q1 51 0.5 89t-1.5 67.5t-2.5 54t-2.5 48.5zM529 736l-174 -91l-45 67l158 118z " />
<glyph unicode="&#xc2;" d="M356 144h-176q-15 -34 -31 -70t-30 -74h-125q85 186 164 341.5t154 277.5h131q14 -118 22.5 -249.5t10.5 -280.5v-89h-124zM352 502q-13 -25 -25.5 -49t-27 -53.5t-32.5 -67.5t-41 -89h132q1 51 0.5 89t-1.5 67.5t-2.5 54t-2.5 48.5zM535 695l-54 -46l-74 69l-101 -69 l-41 55l160 126z" />
<glyph unicode="&#xc3;" d="M356 144h-176q-15 -34 -31 -70t-30 -74h-125q85 186 164 341.5t154 277.5h131q14 -118 22.5 -249.5t10.5 -280.5v-89h-124zM352 502q-13 -25 -25.5 -49t-27 -53.5t-32.5 -67.5t-41 -89h132q1 51 0.5 89t-1.5 67.5t-2.5 54t-2.5 48.5zM442 681q-17 0 -30.5 5t-25 10.5 t-22 10.5t-21.5 5q-13 0 -23 -7t-25 -29l-60 36q21 49 49 72.5t70 23.5q16 0 29.5 -5t25 -10.5t22.5 -10.5t22 -5q13 0 23 7t25 29l60 -36q-21 -49 -49 -72.5t-70 -23.5z" />
<glyph unicode="&#xc4;" d="M356 144h-176q-15 -34 -31 -70t-30 -74h-125q85 186 164 341.5t154 277.5h131q14 -118 22.5 -249.5t10.5 -280.5v-89h-124zM352 502q-13 -25 -25.5 -49t-27 -53.5t-32.5 -67.5t-41 -89h132q1 51 0.5 89t-1.5 67.5t-2.5 54t-2.5 48.5zM302 677q-26 0 -43 16t-17 43 q0 17 6.5 31t16.5 24t23 15.5t26 5.5q25 0 43 -16.5t18 -43.5q0 -17 -7 -30.5t-17.5 -23.5t-23.5 -15.5t-25 -5.5zM500 677q-26 0 -43 16t-17 43q0 34 23 55t50 21q25 0 42.5 -16.5t17.5 -43.5q0 -17 -7 -30.5t-17.5 -23.5t-23.5 -15.5t-25 -5.5z" />
<glyph unicode="&#xc5;" d="M356 144h-176q-15 -34 -31 -70t-30 -74h-125q84 183 162 337t152 275q-13 13 -20.5 31.5t-7.5 41.5q0 25 8.5 44.5t23 32.5t33.5 19.5t39 6.5q43 0 74.5 -26t31.5 -77q0 -31 -12.5 -52.5t-32.5 -33.5q14 -132 23.5 -280t7.5 -319h-124zM352 502q-13 -25 -25.5 -49 t-27 -53.5t-32.5 -67.5t-41 -89h132q1 51 0.5 89t-1.5 67.5t-2.5 54t-2.5 48.5zM425 685q0 21 -12 31.5t-29 10.5q-15 0 -27.5 -10.5t-12.5 -31.5q0 -20 12.5 -31t27.5 -11q17 0 29 11t12 31z" />
<glyph unicode="&#xc6;" d="M271 144h-99l-62 -144h-123q51 106 91.5 188t78 152.5t76 137t86.5 141.5h286l-24 -102h-112l-34 -139h89l-24 -102h-89l-42 -174h126l-24 -102h-234zM365 536q-38 -67 -74 -138t-74 -155h78z" />
<glyph unicode="&#xc7;" d="M300 -25q22 -11 31 -26t9 -33q0 -41 -34.5 -63.5t-88.5 -22.5q-48 0 -86 20l26 58q11 -6 25.5 -9.5t28.5 -3.5q23 0 30.5 9t7.5 16q0 11 -5.5 18.5t-20.5 12.5l-18 6l24 36q-72 17 -106.5 72.5t-34.5 139.5q0 75 20.5 151.5t61.5 138t103.5 100t146.5 38.5q32 0 57 -6 t44 -13.5t31 -16t17 -12.5l-46 -95q-20 15 -47 25.5t-69 10.5q-49 0 -85.5 -29t-61 -74t-36.5 -99.5t-12 -106.5q0 -27 5.5 -49t18 -38.5t33 -25.5t50.5 -9q46 0 77 11t51 23l14 -99q-23 -14 -62.5 -27t-90.5 -15z" />
<glyph unicode="&#xc8;" d="M53 0l148 619h367l-24 -102h-244l-34 -139h212l-24 -102h-212l-42 -174h266l-24 -102h-389zM346 830l158 -118l-45 -67l-174 91z" />
<glyph unicode="&#xc9;" d="M53 0l148 619h367l-24 -102h-244l-34 -139h212l-24 -102h-212l-42 -174h266l-24 -102h-389zM530 736l-174 -91l-45 67l158 118z" />
<glyph unicode="&#xca;" d="M53 0l148 619h367l-24 -102h-244l-34 -139h212l-24 -102h-212l-42 -174h266l-24 -102h-389zM541 695l-54 -46l-74 69l-101 -69l-41 55l160 126z" />
<glyph unicode="&#xcb;" d="M53 0l148 619h367l-24 -102h-244l-34 -139h212l-24 -102h-212l-42 -174h266l-24 -102h-389zM303 677q-26 0 -43 16t-17 43q0 17 6.5 31t16.5 24t23 15.5t26 5.5q25 0 43 -16.5t18 -43.5q0 -17 -7 -30.5t-17.5 -23.5t-23.5 -15.5t-25 -5.5zM501 677q-26 0 -43 16t-17 43 q0 34 23 55t50 21q25 0 42.5 -16.5t17.5 -43.5q0 -17 -7 -30.5t-17.5 -23.5t-23.5 -15.5t-25 -5.5z" />
<glyph unicode="&#xcc;" d="M35 0l24 102h136l100 415h-136l24 102h393l-24 -102h-134l-100 -415h134l-24 -102h-393zM335 830l158 -118l-45 -67l-174 91z" />
<glyph unicode="&#xcd;" d="M35 0l24 102h136l100 415h-136l24 102h393l-24 -102h-134l-100 -415h134l-24 -102h-393zM531 736l-174 -91l-45 67l158 118z" />
<glyph unicode="&#xce;" d="M35 0l24 102h136l100 415h-136l24 102h393l-24 -102h-134l-100 -415h134l-24 -102h-393zM537 695l-54 -46l-74 69l-101 -69l-41 55l160 126z" />
<glyph unicode="&#xcf;" d="M35 0l24 102h136l100 415h-136l24 102h393l-24 -102h-134l-100 -415h134l-24 -102h-393zM304 677q-26 0 -43 16t-17 43q0 17 6.5 31t16.5 24t23 15.5t26 5.5q25 0 43 -16.5t18 -43.5q0 -17 -7 -30.5t-17.5 -23.5t-23.5 -15.5t-25 -5.5zM502 677q-26 0 -43 16t-17 43 q0 34 23 55t50 21q25 0 42.5 -16.5t17.5 -43.5q0 -17 -7 -30.5t-17.5 -23.5t-23.5 -15.5t-25 -5.5z" />
<glyph unicode="&#xd0;" d="M529 409q0 -80 -19 -155.5t-60 -133.5t-105 -93t-155 -35q-33 0 -69 3.5t-71 11.5l63 263h-58l25 102h57l58 239q38 9 68.5 12t60.5 3q46 0 83.5 -14.5t64.5 -42.5t42 -68t15 -92zM234 270l-41 -170q5 -1 11 -1h8q54 0 91 29.5t60 75t33 99.5t10 102q0 49 -17.5 81.5 t-66.5 32.5h-15.5t-13.5 -1l-34 -146h61l-25 -102h-61z" />
<glyph unicode="&#xd1;" d="M337 0q-17 103 -40.5 211t-55.5 233l-106 -444h-109l148 619h105q14 -44 29.5 -96t29 -105t25 -105t18.5 -95l95 401h109l-148 -619h-100zM446 681q-17 0 -30.5 5t-25 10.5t-22 10.5t-21.5 5q-13 0 -23 -7t-25 -29l-60 36q21 49 49 72.5t70 23.5q16 0 29.5 -5t25 -10.5 t22.5 -10.5t22 -5q13 0 23 7t25 29l60 -36q-21 -49 -49 -72.5t-70 -23.5z" />
<glyph unicode="&#xd2;" d="M367 633q81 0 127 -52.5t46 -139.5q0 -39 -6 -88t-20 -99.5t-37 -98.5t-56 -85.5t-77.5 -60t-102.5 -22.5q-82 0 -128 52.5t-46 139.5q0 39 6 88t20.5 99.5t37 98.5t56 85.5t78 60t102.5 22.5zM255 94q41 0 71.5 35t50.5 86.5t30 110t10 106.5q0 39 -13.5 66.5 t-50.5 27.5q-41 0 -72 -35t-51 -86.5t-30 -110.5t-10 -106q0 -39 13.5 -66.5t51.5 -27.5zM350 830l158 -118l-45 -67l-174 91z" />
<glyph unicode="&#xd3;" d="M367 633q81 0 127 -52.5t46 -139.5q0 -39 -6 -88t-20 -99.5t-37 -98.5t-56 -85.5t-77.5 -60t-102.5 -22.5q-82 0 -128 52.5t-46 139.5q0 39 6 88t20.5 99.5t37 98.5t56 85.5t78 60t102.5 22.5zM255 94q41 0 71.5 35t50.5 86.5t30 110t10 106.5q0 39 -13.5 66.5 t-50.5 27.5q-41 0 -72 -35t-51 -86.5t-30 -110.5t-10 -106q0 -39 13.5 -66.5t51.5 -27.5zM506 736l-174 -91l-45 67l158 118z" />
<glyph unicode="&#xd4;" d="M367 633q81 0 127 -52.5t46 -139.5q0 -39 -6 -88t-20 -99.5t-37 -98.5t-56 -85.5t-77.5 -60t-102.5 -22.5q-82 0 -128 52.5t-46 139.5q0 39 6 88t20.5 99.5t37 98.5t56 85.5t78 60t102.5 22.5zM255 94q41 0 71.5 35t50.5 86.5t30 110t10 106.5q0 39 -13.5 66.5 t-50.5 27.5q-41 0 -72 -35t-51 -86.5t-30 -110.5t-10 -106q0 -39 13.5 -66.5t51.5 -27.5zM522 695l-54 -46l-74 69l-101 -69l-41 55l160 126z" />
<glyph unicode="&#xd5;" d="M367 633q81 0 127 -52.5t46 -139.5q0 -39 -6 -88t-20 -99.5t-37 -98.5t-56 -85.5t-77.5 -60t-102.5 -22.5q-82 0 -128 52.5t-46 139.5q0 39 6 88t20.5 99.5t37 98.5t56 85.5t78 60t102.5 22.5zM255 94q41 0 71.5 35t50.5 86.5t30 110t10 106.5q0 39 -13.5 66.5 t-50.5 27.5q-41 0 -72 -35t-51 -86.5t-30 -110.5t-10 -106q0 -39 13.5 -66.5t51.5 -27.5zM449 681q-17 0 -30.5 5t-25 10.5t-22 10.5t-21.5 5q-13 0 -23 -7t-25 -29l-60 36q21 49 49 72.5t70 23.5q16 0 29.5 -5t25 -10.5t22.5 -10.5t22 -5q13 0 23 7t25 29l60 -36 q-21 -49 -49 -72.5t-70 -23.5z" />
<glyph unicode="&#xd6;" d="M367 633q81 0 127 -52.5t46 -139.5q0 -39 -6 -88t-20 -99.5t-37 -98.5t-56 -85.5t-77.5 -60t-102.5 -22.5q-82 0 -128 52.5t-46 139.5q0 39 6 88t20.5 99.5t37 98.5t56 85.5t78 60t102.5 22.5zM255 94q41 0 71.5 35t50.5 86.5t30 110t10 106.5q0 39 -13.5 66.5 t-50.5 27.5q-41 0 -72 -35t-51 -86.5t-30 -110.5t-10 -106q0 -39 13.5 -66.5t51.5 -27.5zM297 677q-26 0 -43 16t-17 43q0 17 6.5 31t16.5 24t23 15.5t26 5.5q25 0 43 -16.5t18 -43.5q0 -17 -7 -30.5t-17.5 -23.5t-23.5 -15.5t-25 -5.5zM495 677q-26 0 -43 16t-17 43 q0 34 23 55t50 21q25 0 42.5 -16.5t17.5 -43.5q0 -17 -7 -30.5t-17.5 -23.5t-23.5 -15.5t-25 -5.5z" />
<glyph unicode="&#xd7;" d="M75 144l153 123l-98 129l86 69l98 -128l158 128l59 -78l-157 -128l96 -124l-88 -69l-94 124l-153 -124z" />
<glyph unicode="&#xd8;" d="M367 633q49 0 86 -20l30 46l72 -40l-42 -64q13 -24 20 -52.5t7 -61.5q0 -39 -6 -88t-20 -99.5t-37 -98.5t-56 -85.5t-77.5 -60t-102.5 -22.5q-26 0 -48.5 5.5t-41.5 15.5l-32 -48l-71 40l45 68q-26 46 -26 111q0 39 6 88t20.5 99.5t37 98.5t56 85.5t78 60t102.5 22.5z M255 88q39 0 69.5 32t52.5 81t33.5 106.5t11.5 108.5l-209 -313q7 -6 18 -10.5t24 -4.5zM352 530q-38 0 -69 -31t-53 -78t-33.5 -104.5t-11.5 -109.5l206 313q-7 5 -17.5 7.5t-21.5 2.5z" />
<glyph unicode="&#xd9;" d="M237 -13q-88 0 -129 42t-41 117q0 41 12 92l92 381h123l-91 -380q-5 -23 -9 -43.5t-4 -37.5q0 -30 14 -47t51 -17q22 0 38 6.5t28 22t21.5 41.5t18.5 65l94 390h123l-96 -399q-13 -55 -29.5 -98t-43.5 -73t-68.5 -46t-103.5 -16zM309 830l158 -118l-45 -67l-174 91z" />
<glyph unicode="&#xda;" d="M237 -13q-88 0 -129 42t-41 117q0 41 12 92l92 381h123l-91 -380q-5 -23 -9 -43.5t-4 -37.5q0 -30 14 -47t51 -17q22 0 38 6.5t28 22t21.5 41.5t18.5 65l94 390h123l-96 -399q-13 -55 -29.5 -98t-43.5 -73t-68.5 -46t-103.5 -16zM515 736l-174 -91l-45 67l158 118z" />
<glyph unicode="&#xdb;" d="M237 -13q-88 0 -129 42t-41 117q0 41 12 92l92 381h123l-91 -380q-5 -23 -9 -43.5t-4 -37.5q0 -30 14 -47t51 -17q22 0 38 6.5t28 22t21.5 41.5t18.5 65l94 390h123l-96 -399q-13 -55 -29.5 -98t-43.5 -73t-68.5 -46t-103.5 -16zM537 695l-54 -46l-74 69l-101 -69l-41 55 l160 126z" />
<glyph unicode="&#xdc;" d="M237 -13q-88 0 -129 42t-41 117q0 41 12 92l92 381h123l-91 -380q-5 -23 -9 -43.5t-4 -37.5q0 -30 14 -47t51 -17q22 0 38 6.5t28 22t21.5 41.5t18.5 65l94 390h123l-96 -399q-13 -55 -29.5 -98t-43.5 -73t-68.5 -46t-103.5 -16zM304 677q-26 0 -43 16t-17 43 q0 17 6.5 31t16.5 24t23 15.5t26 5.5q25 0 43 -16.5t18 -43.5q0 -17 -7 -30.5t-17.5 -23.5t-23.5 -15.5t-25 -5.5zM502 677q-26 0 -43 16t-17 43q0 34 23 55t50 21q25 0 42.5 -16.5t17.5 -43.5q0 -17 -7 -30.5t-17.5 -23.5t-23.5 -15.5t-25 -5.5z" />
<glyph unicode="&#xdd;" d="M311 340q16 23 39 57.5t47 73t47.5 77.5t41.5 71h132q-31 -51 -61.5 -99t-62.5 -95t-67.5 -93.5t-75.5 -95.5l-57 -236h-123l56 235q-31 97 -51 189.5t-34 194.5h121q6 -72 19.5 -144.5t28.5 -134.5zM540 736l-174 -91l-45 67l158 118z" />
<glyph unicode="&#xde;" d="M288 529q8 1 18 1h18q57 0 96.5 -12.5t64 -34.5t35.5 -53.5t11 -68.5q0 -64 -23 -110.5t-64.5 -76.5t-99 -44.5t-127.5 -14.5h-29l-27 -115h-123l149 619h123zM309 425q-22 0 -46 -3l-50 -201h33q80 0 121 32.5t41 89.5q0 38 -20.5 60t-78.5 22z" />
<glyph unicode="&#xdf;" d="M140 476q10 48 27.5 87.5t46.5 68.5t71 45t102 16q41 0 70 -10t47 -26.5t26 -38.5t8 -45q0 -48 -21 -82.5t-46 -60.5t-45 -47.5t-20 -43.5q0 -23 16 -40t35 -36t35 -45t16 -66q0 -74 -48.5 -118.5t-135.5 -44.5q-47 0 -70.5 9t-39.5 18l41 96q12 -8 27.5 -14t37.5 -6 q26 0 46.5 13.5t20.5 40.5q0 25 -15 43.5t-32.5 36.5t-32.5 39t-15 51q0 41 22 71.5t49 59.5q20 22 37.5 45t17.5 55q0 20 -14.5 30.5t-39.5 10.5q-38 0 -64 -29t-37 -80l-92 -453q-19 -94 -69 -144t-134 -50q-26 0 -48 5.5t-42 14.5l34 104q13 -5 26.5 -8.5t27.5 -3.5 q19 0 32.5 7t23 18.5t15.5 27t10 33.5z" />
<glyph unicode="&#xe0;" d="M251 94q28 0 47 12.5t33 29.5q2 14 4 27t6 30l43 178q-11 3 -23 4t-23 1q-35 0 -63 -16.5t-48 -43.5t-30.5 -62t-10.5 -72q0 -26 4.5 -43t13 -27t20.5 -14t27 -4zM206 -11q-66 1 -104 47.5t-38 135.5q0 68 23 125t63 97.5t93.5 63t113.5 22.5q41 0 83 -8t85 -25l-62 -255 q-4 -18 -6 -35.5t-2 -35.5q0 -29 5.5 -56.5t14.5 -54.5l-108 -18l-5 10t-6 13t-5 12.5t-3 8.5q-20 -15 -54 -31t-88 -16zM328 691l158 -118l-45 -67l-174 91z" />
<glyph unicode="&#xe1;" d="M251 94q28 0 47 12.5t33 29.5q2 14 4 27t6 30l43 178q-11 3 -23 4t-23 1q-35 0 -63 -16.5t-48 -43.5t-30.5 -62t-10.5 -72q0 -26 4.5 -43t13 -27t20.5 -14t27 -4zM206 -11q-66 1 -104 47.5t-38 135.5q0 68 23 125t63 97.5t93.5 63t113.5 22.5q41 0 83 -8t85 -25l-62 -255 q-4 -18 -6 -35.5t-2 -35.5q0 -29 5.5 -56.5t14.5 -54.5l-108 -18l-5 10t-6 13t-5 12.5t-3 8.5q-20 -15 -54 -31t-88 -16zM524 597l-174 -91l-45 67l158 118z" />
<glyph unicode="&#xe2;" d="M251 94q28 0 47 12.5t33 29.5q2 14 4 27t6 30l43 178q-11 3 -23 4t-23 1q-35 0 -63 -16.5t-48 -43.5t-30.5 -62t-10.5 -72q0 -26 4.5 -43t13 -27t20.5 -14t27 -4zM206 -11q-66 1 -104 47.5t-38 135.5q0 68 23 125t63 97.5t93.5 63t113.5 22.5q41 0 83 -8t85 -25l-62 -255 q-4 -18 -6 -35.5t-2 -35.5q0 -29 5.5 -56.5t14.5 -54.5l-108 -18l-5 10t-6 13t-5 12.5t-3 8.5q-20 -15 -54 -31t-88 -16zM520 556l-54 -46l-74 69l-101 -69l-41 55l160 126z" />
<glyph unicode="&#xe3;" d="M251 94q28 0 47 12.5t33 29.5q2 14 4 27t6 30l43 178q-11 3 -23 4t-23 1q-35 0 -63 -16.5t-48 -43.5t-30.5 -62t-10.5 -72q0 -26 4.5 -43t13 -27t20.5 -14t27 -4zM206 -11q-66 1 -104 47.5t-38 135.5q0 68 23 125t63 97.5t93.5 63t113.5 22.5q41 0 83 -8t85 -25l-62 -255 q-4 -18 -6 -35.5t-2 -35.5q0 -29 5.5 -56.5t14.5 -54.5l-108 -18l-5 10t-6 13t-5 12.5t-3 8.5q-20 -15 -54 -31t-88 -16zM437 542q-17 0 -30.5 5t-25 10.5t-22 10.5t-21.5 5q-13 0 -23 -7t-25 -29l-60 36q21 49 49 72.5t70 23.5q16 0 29.5 -5t25 -10.5t22.5 -10.5t22 -5 q13 0 23 7t25 29l60 -36q-21 -49 -49 -72.5t-70 -23.5z" />
<glyph unicode="&#xe4;" d="M251 94q28 0 47 12.5t33 29.5q2 14 4 27t6 30l43 178q-11 3 -23 4t-23 1q-35 0 -63 -16.5t-48 -43.5t-30.5 -62t-10.5 -72q0 -26 4.5 -43t13 -27t20.5 -14t27 -4zM206 -11q-66 1 -104 47.5t-38 135.5q0 68 23 125t63 97.5t93.5 63t113.5 22.5q41 0 83 -8t85 -25l-62 -255 q-4 -18 -6 -35.5t-2 -35.5q0 -29 5.5 -56.5t14.5 -54.5l-108 -18l-5 10t-6 13t-5 12.5t-3 8.5q-20 -15 -54 -31t-88 -16zM297 538q-26 0 -43 16t-17 43q0 17 6.5 31t16.5 24t23 15.5t26 5.5q25 0 43 -16.5t18 -43.5q0 -17 -7 -30.5t-17.5 -23.5t-23.5 -15.5t-25 -5.5z M495 538q-26 0 -43 16t-17 43q0 34 23 55t50 21q25 0 42.5 -16.5t17.5 -43.5q0 -17 -7 -30.5t-17.5 -23.5t-23.5 -15.5t-25 -5.5z" />
<glyph unicode="&#xe5;" d="M251 94q28 0 47 12.5t33 29.5q2 14 4 27t6 30l43 178q-11 3 -23 4t-23 1q-35 0 -63 -16.5t-48 -43.5t-30.5 -62t-10.5 -72q0 -26 4.5 -43t13 -27t20.5 -14t27 -4zM206 -11q-66 1 -104 47.5t-38 135.5q0 68 23 125t63 97.5t93.5 63t113.5 22.5q41 0 83 -8t85 -25l-62 -255 q-4 -18 -6 -35.5t-2 -35.5q0 -29 5.5 -56.5t14.5 -54.5l-108 -18l-5 10t-6 13t-5 12.5t-3 8.5q-20 -15 -54 -31t-88 -16zM509 624q0 -50 -31.5 -76t-74.5 -26q-20 0 -39 6.5t-33.5 19.5t-23 32t-8.5 44t8.5 44.5t23 32.5t33.5 19.5t39 6.5q43 0 74.5 -26t31.5 -77zM444 624 q0 21 -12 31.5t-29 10.5q-15 0 -27.5 -10.5t-12.5 -31.5q0 -20 12.5 -31t27.5 -11q17 0 29 11t12 31z" />
<glyph unicode="&#xe6;" d="M457 359q0 14 -6 24t-24 10q-10 0 -22.5 -8t-25 -25t-24 -44t-19.5 -66q26 0 48.5 8.5t38.5 23t25 34.5t9 43zM147 77q10 0 22.5 8t25 25t24 44t19.5 66q-26 0 -48.5 -8.5t-38.5 -23.5t-25 -35t-9 -42q0 -14 6 -24t24 -10zM30 93q0 50 17.5 87.5t46.5 63t68 39.5t83 18 q1 4 1 7.5v6.5q0 36 -15.5 56t-54.5 20q-17 0 -35 -7t-35 -19l-12 88q21 14 47.5 21.5t54.5 7.5q45 0 78 -23t44 -71q24 47 58 70.5t72 23.5q18 0 35.5 -5.5t31 -18t21.5 -32.5t8 -49q0 -50 -17 -87.5t-46.5 -63t-68.5 -39.5t-82 -18q-1 -5 -1 -8v-7q0 -35 15 -55t54 -20 q36 0 70 25l12 -87q-21 -14 -47.5 -22t-53.5 -8q-46 0 -79 23.5t-44 71.5q-24 -47 -58 -71t-72 -24q-18 0 -35.5 5.5t-31 18t-21.5 32.5t-8 50z" />
<glyph unicode="&#xe7;" d="M311 -25q22 -11 31 -26t9 -33q0 -41 -34.5 -63.5t-88.5 -22.5q-48 0 -86 20l26 58q11 -6 25.5 -9.5t28.5 -3.5q23 0 30.5 9t7.5 16q0 11 -5.5 18.5t-20.5 12.5l-18 6q7 11 12.5 19.5t11.5 16.5q-46 6 -77 23t-50 42.5t-27.5 57t-8.5 66.5q0 65 23 120t64.5 94.5t98.5 62 t126 22.5q27 0 47.5 -2t37.5 -5.5t30.5 -8t26.5 -10.5l-44 -98q-16 7 -41 12.5t-57 5.5q-41 0 -75 -12.5t-59.5 -36.5t-39.5 -59t-14 -80q0 -20 5 -36.5t18.5 -28.5t37 -19t59.5 -7q39 0 72.5 7.5t50.5 15.5l12 -98q-11 -6 -23 -11t-28 -9t-36.5 -7t-48.5 -4z" />
<glyph unicode="&#xe8;" d="M196 167q0 -18 6 -32.5t19.5 -24.5t36 -15.5t56.5 -5.5q40 0 76 8.5t53 16.5l8 -93q-24 -12 -67 -22.5t-94 -10.5q-57 0 -98 14.5t-67 40.5t-38 61.5t-12 78.5q0 58 19.5 112.5t57 95.5t91 66t122.5 25t113 -34t44 -95q0 -51 -25 -86.5t-69 -57.5t-103.5 -32t-128.5 -10z M342 384q-46 0 -87.5 -31.5t-57.5 -100.5q63 0 103.5 8t63.5 20.5t32 27.5t9 28q0 23 -16.5 35.5t-46.5 12.5zM317 691l158 -118l-45 -67l-174 91z" />
<glyph unicode="&#xe9;" d="M196 167q0 -18 6 -32.5t19.5 -24.5t36 -15.5t56.5 -5.5q40 0 76 8.5t53 16.5l8 -93q-24 -12 -67 -22.5t-94 -10.5q-57 0 -98 14.5t-67 40.5t-38 61.5t-12 78.5q0 58 19.5 112.5t57 95.5t91 66t122.5 25t113 -34t44 -95q0 -51 -25 -86.5t-69 -57.5t-103.5 -32t-128.5 -10z M342 384q-46 0 -87.5 -31.5t-57.5 -100.5q63 0 103.5 8t63.5 20.5t32 27.5t9 28q0 23 -16.5 35.5t-46.5 12.5zM505 597l-174 -91l-45 67l158 118z" />
<glyph unicode="&#xea;" d="M196 167q0 -18 6 -32.5t19.5 -24.5t36 -15.5t56.5 -5.5q40 0 76 8.5t53 16.5l8 -93q-24 -12 -67 -22.5t-94 -10.5q-57 0 -98 14.5t-67 40.5t-38 61.5t-12 78.5q0 58 19.5 112.5t57 95.5t91 66t122.5 25t113 -34t44 -95q0 -51 -25 -86.5t-69 -57.5t-103.5 -32t-128.5 -10z M342 384q-46 0 -87.5 -31.5t-57.5 -100.5q63 0 103.5 8t63.5 20.5t32 27.5t9 28q0 23 -16.5 35.5t-46.5 12.5zM511 556l-54 -46l-74 69l-101 -69l-41 55l160 126z" />
<glyph unicode="&#xeb;" d="M196 167q0 -18 6 -32.5t19.5 -24.5t36 -15.5t56.5 -5.5q40 0 76 8.5t53 16.5l8 -93q-24 -12 -67 -22.5t-94 -10.5q-57 0 -98 14.5t-67 40.5t-38 61.5t-12 78.5q0 58 19.5 112.5t57 95.5t91 66t122.5 25t113 -34t44 -95q0 -51 -25 -86.5t-69 -57.5t-103.5 -32t-128.5 -10z M342 384q-46 0 -87.5 -31.5t-57.5 -100.5q63 0 103.5 8t63.5 20.5t32 27.5t9 28q0 23 -16.5 35.5t-46.5 12.5zM269 538q-26 0 -43 16t-17 43q0 17 6.5 31t16.5 24t23 15.5t26 5.5q25 0 43 -16.5t18 -43.5q0 -17 -7 -30.5t-17.5 -23.5t-23.5 -15.5t-25 -5.5zM467 538 q-26 0 -43 16t-17 43q0 34 23 55t50 21q25 0 42.5 -16.5t17.5 -43.5q0 -17 -7 -30.5t-17.5 -23.5t-23.5 -15.5t-25 -5.5z" />
<glyph unicode="&#xec;" d="M459 13q-37 -14 -69.5 -19t-60.5 -5q-71 0 -105 34.5t-34 97.5q0 33 11 77l40 170h-130l25 102h253l-68 -287q-6 -21 -6 -37q0 -50 51 -50q17 0 40 3.5t51 13.5zM265 691l158 -118l-45 -67l-174 91z" />
<glyph unicode="&#xed;" d="M459 13q-37 -14 -69.5 -19t-60.5 -5q-71 0 -105 34.5t-34 97.5q0 33 11 77l40 170h-130l25 102h253l-68 -287q-6 -21 -6 -37q0 -50 51 -50q17 0 40 3.5t51 13.5zM461 597l-174 -91l-45 67l158 118z" />
<glyph unicode="&#xee;" d="M459 13q-37 -14 -69.5 -19t-60.5 -5q-71 0 -105 34.5t-34 97.5q0 33 11 77l40 170h-130l25 102h253l-68 -287q-6 -21 -6 -37q0 -50 51 -50q17 0 40 3.5t51 13.5zM467 556l-54 -46l-74 69l-101 -69l-41 55l160 126z" />
<glyph unicode="&#xef;" d="M459 13q-37 -14 -69.5 -19t-60.5 -5q-71 0 -105 34.5t-34 97.5q0 33 11 77l40 170h-130l25 102h253l-68 -287q-6 -21 -6 -37q0 -50 51 -50q17 0 40 3.5t51 13.5zM234 538q-26 0 -43 16t-17 43q0 17 6.5 31t16.5 24t23 15.5t26 5.5q25 0 43 -16.5t18 -43.5q0 -17 -7 -30.5 t-17.5 -23.5t-23.5 -15.5t-25 -5.5zM432 538q-26 0 -43 16t-17 43q0 34 23 55t50 21q25 0 42.5 -16.5t17.5 -43.5q0 -17 -7 -30.5t-17.5 -23.5t-23.5 -15.5t-25 -5.5z" />
<glyph unicode="&#xf0;" d="M488 534q17 -71 17 -143q0 -40 -5 -83t-16.5 -85t-30 -81t-46.5 -72q-32 -38 -77.5 -60.5t-105.5 -22.5q-42 0 -72 14t-50 37t-29.5 54t-9.5 64q0 51 15.5 99t46 85t75.5 59t104 22q27 0 50.5 -7t39.5 -19q0 23 -2.5 53t-10.5 53l-101 -31l-9 74l79 25q-9 16 -26.5 35 t-34.5 31l82 58q26 -18 50 -41t40 -49l111 35l14 -74zM373 294q-14 17 -34.5 23t-40.5 6q-29 0 -50.5 -14.5t-35.5 -37.5t-21.5 -51t-7.5 -54q0 -30 12.5 -51t40.5 -21q34 0 58 21t39.5 51.5t25 65t14.5 62.5z" />
<glyph unicode="&#xf1;" d="M152 450q31 10 81 20t107 10q84 0 120.5 -36t36.5 -100q0 -17 -2.5 -37t-7.5 -42l-65 -265h-123l61 249q3 16 7 33t4 34q0 23 -12.5 40.5t-45.5 17.5q-14 0 -29 -2.5t-29 -8.5l-88 -363h-123zM408 542q-17 0 -30.5 5t-25 10.5t-22 10.5t-21.5 5q-13 0 -23 -7t-25 -29 l-60 36q21 49 49 72.5t70 23.5q16 0 29.5 -5t25 -10.5t22.5 -10.5t22 -5q13 0 23 7t25 29l60 -36q-21 -49 -49 -72.5t-70 -23.5z" />
<glyph unicode="&#xf2;" d="M256 94q30 0 53 18t39.5 45t25 58.5t8.5 59.5q0 47 -13.5 74t-55.5 27q-29 0 -52.5 -18t-39.5 -45t-24.5 -58.5t-8.5 -59.5q0 -47 13.5 -74t54.5 -27zM231 -13q-84 0 -125 48t-41 128q0 60 18 117t53 102t87 72.5t120 27.5q73 0 117.5 -44.5t44.5 -132.5q0 -59 -17 -116 t-51.5 -102t-86 -72.5t-119.5 -27.5zM299 691l158 -118l-45 -67l-174 91z" />
<glyph unicode="&#xf3;" d="M256 94q30 0 53 18t39.5 45t25 58.5t8.5 59.5q0 47 -13.5 74t-55.5 27q-29 0 -52.5 -18t-39.5 -45t-24.5 -58.5t-8.5 -59.5q0 -47 13.5 -74t54.5 -27zM231 -13q-84 0 -125 48t-41 128q0 60 18 117t53 102t87 72.5t120 27.5q73 0 117.5 -44.5t44.5 -132.5q0 -59 -17 -116 t-51.5 -102t-86 -72.5t-119.5 -27.5zM485 597l-174 -91l-45 67l158 118z" />
<glyph unicode="&#xf4;" d="M256 94q30 0 53 18t39.5 45t25 58.5t8.5 59.5q0 47 -13.5 74t-55.5 27q-29 0 -52.5 -18t-39.5 -45t-24.5 -58.5t-8.5 -59.5q0 -47 13.5 -74t54.5 -27zM231 -13q-84 0 -125 48t-41 128q0 60 18 117t53 102t87 72.5t120 27.5q73 0 117.5 -44.5t44.5 -132.5q0 -59 -17 -116 t-51.5 -102t-86 -72.5t-119.5 -27.5zM501 556l-54 -46l-74 69l-101 -69l-41 55l160 126z" />
<glyph unicode="&#xf5;" d="M256 94q30 0 53 18t39.5 45t25 58.5t8.5 59.5q0 47 -13.5 74t-55.5 27q-29 0 -52.5 -18t-39.5 -45t-24.5 -58.5t-8.5 -59.5q0 -47 13.5 -74t54.5 -27zM231 -13q-84 0 -125 48t-41 128q0 60 18 117t53 102t87 72.5t120 27.5q73 0 117.5 -44.5t44.5 -132.5q0 -59 -17 -116 t-51.5 -102t-86 -72.5t-119.5 -27.5zM408 542q-17 0 -30.5 5t-25 10.5t-22 10.5t-21.5 5q-13 0 -23 -7t-25 -29l-60 36q21 49 49 72.5t70 23.5q16 0 29.5 -5t25 -10.5t22.5 -10.5t22 -5q13 0 23 7t25 29l60 -36q-21 -49 -49 -72.5t-70 -23.5z" />
<glyph unicode="&#xf6;" d="M256 94q30 0 53 18t39.5 45t25 58.5t8.5 59.5q0 47 -13.5 74t-55.5 27q-29 0 -52.5 -18t-39.5 -45t-24.5 -58.5t-8.5 -59.5q0 -47 13.5 -74t54.5 -27zM231 -13q-84 0 -125 48t-41 128q0 60 18 117t53 102t87 72.5t120 27.5q73 0 117.5 -44.5t44.5 -132.5q0 -59 -17 -116 t-51.5 -102t-86 -72.5t-119.5 -27.5zM268 538q-26 0 -43 16t-17 43q0 17 6.5 31t16.5 24t23 15.5t26 5.5q25 0 43 -16.5t18 -43.5q0 -17 -7 -30.5t-17.5 -23.5t-23.5 -15.5t-25 -5.5zM466 538q-26 0 -43 16t-17 43q0 34 23 55t50 21q25 0 42.5 -16.5t17.5 -43.5 q0 -17 -7 -30.5t-17.5 -23.5t-23.5 -15.5t-25 -5.5z" />
<glyph unicode="&#xf7;" d="M353 518q28 0 46.5 -15t18.5 -49q0 -39 -24.5 -61t-56.5 -22q-29 0 -47 15t-18 49q0 39 24.5 61t56.5 22zM105 313h420l-24 -101h-420zM263 154q28 0 46.5 -15t18.5 -49q0 -39 -24.5 -61t-56.5 -22q-29 0 -47 15t-18 49q0 39 24.5 61t56.5 22z" />
<glyph unicode="&#xf8;" d="M238 100q10 -6 20.5 -8t21.5 -2q34 0 59 18t41 46.5t23.5 65t7.5 73.5zM264 -13q-17 0 -29 0.5t-22 2.5t-20 5.5t-22 9.5l-43 -50l-58 48l46 52q-19 32 -23 61.5t-4 58.5q0 61 20.5 116.5t56.5 98t85 67.5t106 25q23 0 45.5 -3t47.5 -15l41 48l58 -48l-45 -51 q14 -25 19.5 -53.5t5.5 -63.5q0 -53 -17 -108t-50.5 -99.5t-83 -73t-114.5 -28.5zM380 371q-16 10 -39 10q-35 0 -60.5 -18.5t-42 -47.5t-24.5 -65t-8 -71z" />
<glyph unicode="&#xf9;" d="M221 -11q-81 0 -113 38t-32 104q0 46 14 107l56 232h123l-53 -224q-8 -30 -12 -54.5t-4 -43.5q0 -52 50 -52q28 0 44.5 11.5t31.5 28.5q2 14 3.5 27t6.5 30l66 277h123l-67 -278q-4 -18 -6.5 -35.5t-2.5 -35.5q0 -29 6 -56.5t15 -54.5l-108 -18l-5 10t-6 13t-5 12.5 t-3 8.5q-20 -15 -52 -31t-70 -16zM283 691l158 -118l-45 -67l-174 91z" />
<glyph unicode="&#xfa;" d="M221 -11q-81 0 -113 38t-32 104q0 46 14 107l56 232h123l-53 -224q-8 -30 -12 -54.5t-4 -43.5q0 -52 50 -52q28 0 44.5 11.5t31.5 28.5q2 14 3.5 27t6.5 30l66 277h123l-67 -278q-4 -18 -6.5 -35.5t-2.5 -35.5q0 -29 6 -56.5t15 -54.5l-108 -18l-5 10t-6 13t-5 12.5 t-3 8.5q-20 -15 -52 -31t-70 -16zM479 597l-174 -91l-45 67l158 118z" />
<glyph unicode="&#xfb;" d="M221 -11q-81 0 -113 38t-32 104q0 46 14 107l56 232h123l-53 -224q-8 -30 -12 -54.5t-4 -43.5q0 -52 50 -52q28 0 44.5 11.5t31.5 28.5q2 14 3.5 27t6.5 30l66 277h123l-67 -278q-4 -18 -6.5 -35.5t-2.5 -35.5q0 -29 6 -56.5t15 -54.5l-108 -18l-5 10t-6 13t-5 12.5 t-3 8.5q-20 -15 -52 -31t-70 -16zM494 556l-54 -46l-74 69l-101 -69l-41 55l160 126z" />
<glyph unicode="&#xfc;" d="M221 -11q-81 0 -113 38t-32 104q0 46 14 107l56 232h123l-53 -224q-8 -30 -12 -54.5t-4 -43.5q0 -52 50 -52q28 0 44.5 11.5t31.5 28.5q2 14 3.5 27t6.5 30l66 277h123l-67 -278q-4 -18 -6.5 -35.5t-2.5 -35.5q0 -29 6 -56.5t15 -54.5l-108 -18l-5 10t-6 13t-5 12.5 t-3 8.5q-20 -15 -52 -31t-70 -16zM252 538q-26 0 -43 16t-17 43q0 17 6.5 31t16.5 24t23 15.5t26 5.5q25 0 43 -16.5t18 -43.5q0 -17 -7 -30.5t-17.5 -23.5t-23.5 -15.5t-25 -5.5zM450 538q-26 0 -43 16t-17 43q0 34 23 55t50 21q25 0 42.5 -16.5t17.5 -43.5q0 -17 -7 -30.5 t-17.5 -23.5t-23.5 -15.5t-25 -5.5z" />
<glyph unicode="&#xfd;" d="M549 470q-26 -69 -51 -128t-51.5 -112t-55.5 -101.5t-62 -95.5q-25 -36 -53.5 -71.5t-62 -64.5t-73.5 -47t-87 -18q-62 0 -96 21l39 98q16 -7 30 -10.5t36 -3.5q73 0 121 72q-24 96 -43.5 208.5t-26.5 252.5h128q1 -36 3.5 -79t6.5 -87t9.5 -87t12.5 -78q46 70 81 151.5 t64 179.5h131zM478 597l-174 -91l-45 67l158 118z" />
<glyph unicode="&#xfe;" d="M185 98q5 -2 11 -2h13q41 0 74 16.5t55.5 44.5t34.5 65.5t12 78.5q0 15 -3 28.5t-11 24t-23 17t-39 6.5q-20 0 -34 -3t-25 -5zM344 480q81 0 121.5 -47.5t40.5 -122.5q0 -62 -18 -120t-54.5 -102.5t-92.5 -71t-131 -26.5q-20 0 -31 1t-19 3l-39 -159h-123l202 838l128 21 l-55 -226q17 5 35.5 8.5t35.5 3.5z" />
<glyph unicode="&#xff;" d="M549 470q-26 -69 -51 -128t-51.5 -112t-55.5 -101.5t-62 -95.5q-25 -36 -53.5 -71.5t-62 -64.5t-73.5 -47t-87 -18q-62 0 -96 21l39 98q16 -7 30 -10.5t36 -3.5q73 0 121 72q-24 96 -43.5 208.5t-26.5 252.5h128q1 -36 3.5 -79t6.5 -87t9.5 -87t12.5 -78q46 70 81 151.5 t64 179.5h131zM251 538q-26 0 -43 16t-17 43q0 17 6.5 31t16.5 24t23 15.5t26 5.5q25 0 43 -16.5t18 -43.5q0 -17 -7 -30.5t-17.5 -23.5t-23.5 -15.5t-25 -5.5zM449 538q-26 0 -43 16t-17 43q0 34 23 55t50 21q25 0 42.5 -16.5t17.5 -43.5q0 -17 -7 -30.5t-17.5 -23.5 t-23.5 -15.5t-25 -5.5z" />
<glyph unicode="&#x100;" d="M356 144h-176q-15 -34 -31 -70t-30 -74h-125q85 186 164 341.5t154 277.5h131q14 -118 22.5 -249.5t10.5 -280.5v-89h-124zM352 502q-13 -25 -25.5 -49t-27 -53.5t-32.5 -67.5t-41 -89h132q1 51 0.5 89t-1.5 67.5t-2.5 54t-2.5 48.5zM272 786h287l-21 -87h-288z" />
<glyph unicode="&#x101;" d="M251 94q28 0 47 12.5t33 29.5q2 14 4 27t6 30l43 178q-11 3 -23 4t-23 1q-35 0 -63 -16.5t-48 -43.5t-30.5 -62t-10.5 -72q0 -26 4.5 -43t13 -27t20.5 -14t27 -4zM206 -11q-66 1 -104 47.5t-38 135.5q0 68 23 125t63 97.5t93.5 63t113.5 22.5q41 0 83 -8t85 -25l-62 -255 q-4 -18 -6 -35.5t-2 -35.5q0 -29 5.5 -56.5t14.5 -54.5l-108 -18l-5 10t-6 13t-5 12.5t-3 8.5q-20 -15 -54 -31t-88 -16zM272 647h287l-21 -87h-288z" />
<glyph unicode="&#x102;" d="M356 144h-176q-15 -34 -31 -70t-30 -74h-125q85 186 164 341.5t154 277.5h131q14 -118 22.5 -249.5t10.5 -280.5v-89h-124zM352 502q-13 -25 -25.5 -49t-27 -53.5t-32.5 -67.5t-41 -89h132q1 51 0.5 89t-1.5 67.5t-2.5 54t-2.5 48.5zM372 821q-1 -5 -1.5 -9t-0.5 -9 q0 -21 9.5 -33t31.5 -12t38.5 15.5t21.5 47.5h91q-3 -37 -18 -65t-37.5 -46.5t-50 -27.5t-54.5 -9q-24 0 -46.5 7t-39.5 22t-27.5 37t-10.5 52q0 17 4 30h90z" />
<glyph unicode="&#x103;" d="M251 94q28 0 47 12.5t33 29.5q2 14 4 27t6 30l43 178q-11 3 -23 4t-23 1q-35 0 -63 -16.5t-48 -43.5t-30.5 -62t-10.5 -72q0 -26 4.5 -43t13 -27t20.5 -14t27 -4zM206 -11q-66 1 -104 47.5t-38 135.5q0 68 23 125t63 97.5t93.5 63t113.5 22.5q41 0 83 -8t85 -25l-62 -255 q-4 -18 -6 -35.5t-2 -35.5q0 -29 5.5 -56.5t14.5 -54.5l-108 -18l-5 10t-6 13t-5 12.5t-3 8.5q-20 -15 -54 -31t-88 -16zM356 682q-1 -5 -1.5 -9t-0.5 -9q0 -21 9.5 -33t31.5 -12t38.5 15.5t21.5 47.5h91q-3 -37 -18 -65t-37.5 -46.5t-50 -27.5t-54.5 -9q-24 0 -46.5 7 t-39.5 22t-27.5 37t-10.5 52q0 17 4 30h90z" />
<glyph unicode="&#x104;" d="M368 144h-176q-15 -34 -31 -70t-30 -74h-125q85 186 164 341.5t154 277.5h131q15 -128 24 -269t9 -305v-45l-4 -3q-45 -33 -63 -52.5t-18 -31.5q0 -14 22 -14q13 0 27.5 3.5t20.5 5.5l-8 -64q-17 -6 -39.5 -10t-45.5 -4q-55 0 -77 16t-22 37q0 29 22 56.5t78 60.5h-17z M364 502q-13 -25 -25.5 -49t-27 -53.5t-32.5 -67.5t-41 -89h132q0 20 0.5 37t0.5 33q0 33 -1 59.5t-2 48.5t-2 41.5t-2 39.5z" />
<glyph unicode="&#x105;" d="M437 -156q-17 -6 -39.5 -10t-45.5 -4q-55 0 -77 16t-22 37q0 29 23 58t84 64q-4 9 -7.5 18t-4.5 13q-20 -15 -54 -31t-88 -16q-66 1 -104 47.5t-38 135.5q0 68 23 125t63 97.5t93.5 63t113.5 22.5q41 0 83 -8t85 -25l-62 -255q-4 -18 -6 -35.5t-2 -35.5q0 -29 5.5 -56.5 t14.5 -54.5l-19 -13q-46 -32 -63.5 -52t-17.5 -32q0 -14 22 -14q13 0 27.5 3.5t20.5 5.5zM251 94q28 0 47 12.5t33 29.5q2 14 4 27t6 30l43 178q-11 3 -23 4t-23 1q-35 0 -63 -16.5t-48 -43.5t-30.5 -62t-10.5 -72q0 -26 4.5 -43t13 -27t20.5 -14t27 -4z" />
<glyph unicode="&#x106;" d="M288 -13q-51 0 -89 15.5t-62.5 44t-36.5 69t-12 89.5q0 75 20.5 151.5t61.5 138t103.5 100t146.5 38.5q32 0 57 -6t44 -13.5t31 -16t17 -12.5l-46 -95q-20 15 -47 25.5t-69 10.5q-49 0 -85.5 -29t-61 -74t-36.5 -99.5t-12 -106.5q0 -27 5.5 -49t18 -38.5t33 -25.5 t50.5 -9q46 0 77 11t51 23l14 -99q-26 -16 -71 -29.5t-102 -13.5zM540 736l-174 -91l-45 67l158 118z" />
<glyph unicode="&#x107;" d="M77 182q0 65 23 120t64.5 94.5t98.5 62t126 22.5q27 0 47.5 -2t37.5 -5.5t30.5 -8t26.5 -10.5l-44 -98q-16 7 -41 12.5t-57 5.5q-41 0 -75 -12.5t-59.5 -36.5t-39.5 -59t-14 -80q0 -20 5 -36.5t18.5 -28.5t37 -19t59.5 -7q39 0 72.5 7.5t50.5 15.5l12 -98q-12 -6 -26 -12 t-33 -10.5t-44.5 -7t-60.5 -2.5q-61 0 -102 15.5t-66 41.5t-36 61.5t-11 74.5zM531 597l-174 -91l-45 67l158 118z" />
<glyph unicode="&#x108;" d="M288 -13q-51 0 -89 15.5t-62.5 44t-36.5 69t-12 89.5q0 75 20.5 151.5t61.5 138t103.5 100t146.5 38.5q32 0 57 -6t44 -13.5t31 -16t17 -12.5l-46 -95q-20 15 -47 25.5t-69 10.5q-49 0 -85.5 -29t-61 -74t-36.5 -99.5t-12 -106.5q0 -27 5.5 -49t18 -38.5t33 -25.5 t50.5 -9q46 0 77 11t51 23l14 -99q-26 -16 -71 -29.5t-102 -13.5zM572 695l-54 -46l-74 69l-101 -69l-41 55l160 126z" />
<glyph unicode="&#x109;" d="M77 182q0 65 23 120t64.5 94.5t98.5 62t126 22.5q27 0 47.5 -2t37.5 -5.5t30.5 -8t26.5 -10.5l-44 -98q-16 7 -41 12.5t-57 5.5q-41 0 -75 -12.5t-59.5 -36.5t-39.5 -59t-14 -80q0 -20 5 -36.5t18.5 -28.5t37 -19t59.5 -7q39 0 72.5 7.5t50.5 15.5l12 -98q-12 -6 -26 -12 t-33 -10.5t-44.5 -7t-60.5 -2.5q-61 0 -102 15.5t-66 41.5t-36 61.5t-11 74.5zM537 556l-54 -46l-74 69l-101 -69l-41 55l160 126z" />
<glyph unicode="&#x10a;" d="M288 -13q-51 0 -89 15.5t-62.5 44t-36.5 69t-12 89.5q0 75 20.5 151.5t61.5 138t103.5 100t146.5 38.5q32 0 57 -6t44 -13.5t31 -16t17 -12.5l-46 -95q-20 15 -47 25.5t-69 10.5q-49 0 -85.5 -29t-61 -74t-36.5 -99.5t-12 -106.5q0 -27 5.5 -49t18 -38.5t33 -25.5 t50.5 -9q46 0 77 11t51 23l14 -99q-26 -16 -71 -29.5t-102 -13.5zM422 675q-28 0 -45.5 16t-17.5 45q0 38 23.5 58t52.5 20q27 0 46 -16t19 -46q0 -18 -7 -32t-18 -24t-25 -15.5t-28 -5.5z" />
<glyph unicode="&#x10b;" d="M77 182q0 65 23 120t64.5 94.5t98.5 62t126 22.5q27 0 47.5 -2t37.5 -5.5t30.5 -8t26.5 -10.5l-44 -98q-16 7 -41 12.5t-57 5.5q-41 0 -75 -12.5t-59.5 -36.5t-39.5 -59t-14 -80q0 -20 5 -36.5t18.5 -28.5t37 -19t59.5 -7q39 0 72.5 7.5t50.5 15.5l12 -98q-12 -6 -26 -12 t-33 -10.5t-44.5 -7t-60.5 -2.5q-61 0 -102 15.5t-66 41.5t-36 61.5t-11 74.5zM395 536q-28 0 -45.5 16t-17.5 45q0 38 23.5 58t52.5 20q27 0 46 -16t19 -46q0 -18 -7 -32t-18 -24t-25 -15.5t-28 -5.5z" />
<glyph unicode="&#x10c;" d="M288 -13q-51 0 -89 15.5t-62.5 44t-36.5 69t-12 89.5q0 75 20.5 151.5t61.5 138t103.5 100t146.5 38.5q32 0 57 -6t44 -13.5t31 -16t17 -12.5l-46 -95q-20 15 -47 25.5t-69 10.5q-49 0 -85.5 -29t-61 -74t-36.5 -99.5t-12 -106.5q0 -27 5.5 -49t18 -38.5t33 -25.5 t50.5 -9q46 0 77 11t51 23l14 -99q-26 -16 -71 -29.5t-102 -13.5zM310 784l54 46l74 -69l101 69l41 -55l-160 -126z" />
<glyph unicode="&#x10d;" d="M77 182q0 65 23 120t64.5 94.5t98.5 62t126 22.5q27 0 47.5 -2t37.5 -5.5t30.5 -8t26.5 -10.5l-44 -98q-16 7 -41 12.5t-57 5.5q-41 0 -75 -12.5t-59.5 -36.5t-39.5 -59t-14 -80q0 -20 5 -36.5t18.5 -28.5t37 -19t59.5 -7q39 0 72.5 7.5t50.5 15.5l12 -98q-12 -6 -26 -12 t-33 -10.5t-44.5 -7t-60.5 -2.5q-61 0 -102 15.5t-66 41.5t-36 61.5t-11 74.5zM283 645l54 46l74 -69l101 69l41 -55l-160 -126z" />
<glyph unicode="&#x10e;" d="M177 100q5 -1 11 -1h11q57 0 96.5 29.5t63.5 75t35 99.5t11 102q0 24 -4 45t-14 36.5t-28 24t-46 8.5q-18 0 -36 -3zM529 409q0 -80 -19 -155.5t-61 -133.5t-108.5 -93t-160.5 -35q-32 0 -73 3.5t-76 11.5l146 604q44 9 74.5 12t62.5 3q100 0 157.5 -56.5t57.5 -160.5z M247 784l54 46l74 -69l101 69l41 -55l-160 -126z" />
<glyph unicode="&#x10f;" d="M193 94q23 0 39 12.5t29 29.5q2 14 4 27t6 30l43 178q-8 3 -17 4t-17 1q-28 0 -51 -16.5t-39 -43.5t-25 -62t-9 -72q0 -26 2.5 -43t7.5 -27t12 -14t15 -4zM393 192q-4 -18 -6 -35.5t-2 -35.5q0 -29 5.5 -56.5t14.5 -54.5l-108 -18l-5 10t-6 13t-5 12.5t-3 8.5 q-18 -15 -47.5 -31t-71.5 -16q-60 1 -92.5 42t-32.5 133q0 71 21 129t57 99t84 63t102 22q20 0 40 -7l48 203l128 21zM665 693l-83 -218h-79l50 218h112z" />
<glyph unicode="&#x110;" d="M529 409q0 -80 -19 -155.5t-60 -133.5t-105 -93t-155 -35q-33 0 -69 3.5t-71 11.5l63 263h-58l25 102h57l58 239q38 9 68.5 12t60.5 3q46 0 83.5 -14.5t64.5 -42.5t42 -68t15 -92zM234 270l-41 -170q5 -1 11 -1h8q54 0 91 29.5t60 75t33 99.5t10 102q0 49 -17.5 81.5 t-66.5 32.5h-15.5t-13.5 -1l-34 -146h61l-25 -102h-61z" />
<glyph unicode="&#x111;" d="M238 94q26 0 43.5 12.5t31.5 29.5q2 14 4 27t6 30l43 178q-10 3 -20.5 4t-19.5 1q-32 0 -58 -16.5t-44 -43.5t-28 -62t-10 -72q0 -26 3.5 -43t10.5 -27t16.5 -14t21.5 -4zM613 615l-20 -83h-66l-81 -340q-9 -36 -9 -71q0 -29 6 -56.5t14 -54.5l-108 -18l-5 10t-6 13 t-5 12.5t-3 8.5q-19 -15 -51.5 -31t-84.5 -16q-60 1 -95 47.5t-35 135.5q0 68 22 124.5t60 96.5t89 62t109 22q24 0 46 -7l15 62h-144l19 83h145l13 58l128 21l-19 -79h66z" />
<glyph unicode="&#x112;" d="M53 0l148 619h367l-24 -102h-244l-34 -139h212l-24 -102h-212l-42 -174h266l-24 -102h-389zM290 786h287l-21 -87h-288z" />
<glyph unicode="&#x113;" d="M196 167q0 -18 6 -32.5t19.5 -24.5t36 -15.5t56.5 -5.5q40 0 76 8.5t53 16.5l8 -93q-24 -12 -67 -22.5t-94 -10.5q-57 0 -98 14.5t-67 40.5t-38 61.5t-12 78.5q0 58 19.5 112.5t57 95.5t91 66t122.5 25t113 -34t44 -95q0 -51 -25 -86.5t-69 -57.5t-103.5 -32t-128.5 -10z M342 384q-46 0 -87.5 -31.5t-57.5 -100.5q63 0 103.5 8t63.5 20.5t32 27.5t9 28q0 23 -16.5 35.5t-46.5 12.5zM266 647h287l-21 -87h-288z" />
<glyph unicode="&#x114;" d="M53 0l148 619h367l-24 -102h-244l-34 -139h212l-24 -102h-212l-42 -174h266l-24 -102h-389zM390 821q-1 -5 -1.5 -9t-0.5 -9q0 -21 9.5 -33t31.5 -12t38.5 15.5t21.5 47.5h91q-3 -37 -18 -65t-37.5 -46.5t-50 -27.5t-54.5 -9q-24 0 -46.5 7t-39.5 22t-27.5 37t-10.5 52 q0 17 4 30h90z" />
<glyph unicode="&#x115;" d="M196 167q0 -18 6 -32.5t19.5 -24.5t36 -15.5t56.5 -5.5q40 0 76 8.5t53 16.5l8 -93q-24 -12 -67 -22.5t-94 -10.5q-57 0 -98 14.5t-67 40.5t-38 61.5t-12 78.5q0 58 19.5 112.5t57 95.5t91 66t122.5 25t113 -34t44 -95q0 -51 -25 -86.5t-69 -57.5t-103.5 -32t-128.5 -10z M342 384q-46 0 -87.5 -31.5t-57.5 -100.5q63 0 103.5 8t63.5 20.5t32 27.5t9 28q0 23 -16.5 35.5t-46.5 12.5zM366 682q-1 -5 -1.5 -9t-0.5 -9q0 -21 9.5 -33t31.5 -12t38.5 15.5t21.5 47.5h91q-3 -37 -18 -65t-37.5 -46.5t-50 -27.5t-54.5 -9q-24 0 -46.5 7t-39.5 22 t-27.5 37t-10.5 52q0 17 4 30h90z" />
<glyph unicode="&#x116;" d="M53 0l148 619h367l-24 -102h-244l-34 -139h212l-24 -102h-212l-42 -174h266l-24 -102h-389zM413 675q-28 0 -45.5 16t-17.5 45q0 38 23.5 58t52.5 20q27 0 46 -16t19 -46q0 -18 -7 -32t-18 -24t-25 -15.5t-28 -5.5z" />
<glyph unicode="&#x117;" d="M196 167q0 -18 6 -32.5t19.5 -24.5t36 -15.5t56.5 -5.5q40 0 76 8.5t53 16.5l8 -93q-24 -12 -67 -22.5t-94 -10.5q-57 0 -98 14.5t-67 40.5t-38 61.5t-12 78.5q0 58 19.5 112.5t57 95.5t91 66t122.5 25t113 -34t44 -95q0 -51 -25 -86.5t-69 -57.5t-103.5 -32t-128.5 -10z M342 384q-46 0 -87.5 -31.5t-57.5 -100.5q63 0 103.5 8t63.5 20.5t32 27.5t9 28q0 23 -16.5 35.5t-46.5 12.5zM389 536q-28 0 -45.5 16t-17.5 45q0 38 23.5 58t52.5 20q27 0 46 -16t19 -46q0 -18 -7 -32t-18 -24t-25 -15.5t-28 -5.5z" />
<glyph unicode="&#x118;" d="M419 -156q-17 -6 -39.5 -10t-45.5 -4q-55 0 -77 16t-22 37q0 29 21 56.5t77 60.5h-280l148 619h367l-24 -102h-244l-34 -139h212l-24 -102h-212l-42 -174h266l-24 -102l-7 -5q-45 -32 -61.5 -51t-16.5 -31q0 -14 22 -14q13 0 27.5 3.5t20.5 5.5z" />
<glyph unicode="&#x119;" d="M396 -156q-17 -6 -39.5 -10t-45.5 -4q-55 0 -77 16t-22 37q0 26 17.5 51t62.5 54h-2q-57 0 -98 14.5t-67 40.5t-38 61.5t-12 78.5q0 58 19.5 112.5t57 95.5t91 66t122.5 25t113 -34t44 -95q0 -51 -25 -86.5t-69 -57.5t-103.5 -32t-128.5 -10q0 -18 6 -32.5t19.5 -24.5 t36 -15.5t56.5 -5.5q40 0 76 8.5t53 16.5l8 -93l-36 -24q-47 -31 -64 -51.5t-17 -32.5q0 -14 22 -14q13 0 27.5 3.5t20.5 5.5zM342 384q-46 0 -87.5 -31.5t-57.5 -100.5q63 0 103.5 8t63.5 20.5t32 27.5t9 28q0 23 -16.5 35.5t-46.5 12.5z" />
<glyph unicode="&#x11a;" d="M53 0l148 619h367l-24 -102h-244l-34 -139h212l-24 -102h-212l-42 -174h266l-24 -102h-389zM301 784l54 46l74 -69l101 69l41 -55l-160 -126z" />
<glyph unicode="&#x11b;" d="M196 167q0 -18 6 -32.5t19.5 -24.5t36 -15.5t56.5 -5.5q40 0 76 8.5t53 16.5l8 -93q-24 -12 -67 -22.5t-94 -10.5q-57 0 -98 14.5t-67 40.5t-38 61.5t-12 78.5q0 58 19.5 112.5t57 95.5t91 66t122.5 25t113 -34t44 -95q0 -51 -25 -86.5t-69 -57.5t-103.5 -32t-128.5 -10z M342 384q-46 0 -87.5 -31.5t-57.5 -100.5q63 0 103.5 8t63.5 20.5t32 27.5t9 28q0 23 -16.5 35.5t-46.5 12.5zM257 645l54 46l74 -69l101 69l41 -55l-160 -126z" />
<glyph unicode="&#x11c;" d="M263 -13q-93 0 -139 57t-46 161q0 75 21.5 151.5t64 138t106.5 100t150 38.5q32 0 57 -6t44 -13.5t31 -16t17 -12.5l-46 -95q-20 15 -47 25.5t-69 10.5q-51 0 -89.5 -29t-64.5 -74t-39 -99.5t-13 -106.5q0 -54 20 -88.5t68 -34.5q13 0 25.5 1t23.5 3l54 226h123l-74 -309 q-23 -8 -71.5 -18t-106.5 -10zM555 695l-54 -46l-74 69l-101 -69l-41 55l160 126z" />
<glyph unicode="&#x11d;" d="M438 55q-14 -58 -35 -100t-53.5 -69.5t-77.5 -40.5t-106 -13q-53 0 -90.5 9.5t-74.5 29.5l43 97q26 -11 58.5 -21t75.5 -10q60 0 90.5 25.5t40.5 67.5l6 26q-22 -11 -45 -17.5t-44 -6.5q-80 0 -115 45t-35 119q0 68 24.5 121t65.5 89t93.5 55t108.5 19q42 0 84.5 -6.5 t80.5 -22.5zM392 374q-24 6 -46 6q-34 0 -61.5 -14.5t-47 -38.5t-30.5 -56t-11 -66q0 -30 13 -52t53 -22q14 0 35.5 5.5t41.5 18.5zM537 556l-54 -46l-74 69l-101 -69l-41 55l160 126z" />
<glyph unicode="&#x11e;" d="M263 -13q-93 0 -139 57t-46 161q0 75 21.5 151.5t64 138t106.5 100t150 38.5q32 0 57 -6t44 -13.5t31 -16t17 -12.5l-46 -95q-20 15 -47 25.5t-69 10.5q-51 0 -89.5 -29t-64.5 -74t-39 -99.5t-13 -106.5q0 -54 20 -88.5t68 -34.5q13 0 25.5 1t23.5 3l54 226h123l-74 -309 q-23 -8 -71.5 -18t-106.5 -10zM390 821q-1 -5 -1.5 -9t-0.5 -9q0 -21 9.5 -33t31.5 -12t38.5 15.5t21.5 47.5h91q-3 -37 -18 -65t-37.5 -46.5t-50 -27.5t-54.5 -9q-24 0 -46.5 7t-39.5 22t-27.5 37t-10.5 52q0 17 4 30h90z" />
<glyph unicode="&#x11f;" d="M438 55q-14 -58 -35 -100t-53.5 -69.5t-77.5 -40.5t-106 -13q-53 0 -90.5 9.5t-74.5 29.5l43 97q26 -11 58.5 -21t75.5 -10q60 0 90.5 25.5t40.5 67.5l6 26q-22 -11 -45 -17.5t-44 -6.5q-80 0 -115 45t-35 119q0 68 24.5 121t65.5 89t93.5 55t108.5 19q42 0 84.5 -6.5 t80.5 -22.5zM392 374q-24 6 -46 6q-34 0 -61.5 -14.5t-47 -38.5t-30.5 -56t-11 -66q0 -30 13 -52t53 -22q14 0 35.5 5.5t41.5 18.5zM372 682q-1 -5 -1.5 -9t-0.5 -9q0 -21 9.5 -33t31.5 -12t38.5 15.5t21.5 47.5h91q-3 -37 -18 -65t-37.5 -46.5t-50 -27.5t-54.5 -9 q-24 0 -46.5 7t-39.5 22t-27.5 37t-10.5 52q0 17 4 30h90z" />
<glyph unicode="&#x120;" d="M263 -13q-93 0 -139 57t-46 161q0 75 21.5 151.5t64 138t106.5 100t150 38.5q32 0 57 -6t44 -13.5t31 -16t17 -12.5l-46 -95q-20 15 -47 25.5t-69 10.5q-51 0 -89.5 -29t-64.5 -74t-39 -99.5t-13 -106.5q0 -54 20 -88.5t68 -34.5q13 0 25.5 1t23.5 3l54 226h123l-74 -309 q-23 -8 -71.5 -18t-106.5 -10zM423 675q-28 0 -45.5 16t-17.5 45q0 38 23.5 58t52.5 20q27 0 46 -16t19 -46q0 -18 -7 -32t-18 -24t-25 -15.5t-28 -5.5z" />
<glyph unicode="&#x121;" d="M438 55q-14 -58 -35 -100t-53.5 -69.5t-77.5 -40.5t-106 -13q-53 0 -90.5 9.5t-74.5 29.5l43 97q26 -11 58.5 -21t75.5 -10q60 0 90.5 25.5t40.5 67.5l6 26q-22 -11 -45 -17.5t-44 -6.5q-80 0 -115 45t-35 119q0 68 24.5 121t65.5 89t93.5 55t108.5 19q42 0 84.5 -6.5 t80.5 -22.5zM392 374q-24 6 -46 6q-34 0 -61.5 -14.5t-47 -38.5t-30.5 -56t-11 -66q0 -30 13 -52t53 -22q14 0 35.5 5.5t41.5 18.5zM395 536q-28 0 -45.5 16t-17.5 45q0 38 23.5 58t52.5 20q27 0 46 -16t19 -46q0 -18 -7 -32t-18 -24t-25 -15.5t-28 -5.5z" />
<glyph unicode="&#x122;" d="M263 -13q-93 0 -139 57t-46 161q0 75 21.5 151.5t64 138t106.5 100t150 38.5q32 0 57 -6t44 -13.5t31 -16t17 -12.5l-46 -95q-20 15 -47 25.5t-69 10.5q-51 0 -89.5 -29t-64.5 -74t-39 -99.5t-13 -106.5q0 -54 20 -88.5t68 -34.5q13 0 25.5 1t23.5 3l54 226h123l-74 -309 q-23 -8 -71.5 -18t-106.5 -10zM211 -45h95q-12 -125 -145 -125q-14 0 -31 2.5t-22 4.5l14 59q17 0 30.5 1t24.5 6.5t19 16t13 28.5z" />
<glyph unicode="&#x123;" d="M438 55q-14 -58 -35 -100t-53.5 -69.5t-77.5 -40.5t-106 -13q-53 0 -90.5 9.5t-74.5 29.5l43 97q26 -11 58.5 -21t75.5 -10q60 0 90.5 25.5t40.5 67.5l6 26q-22 -11 -45 -17.5t-44 -6.5q-80 0 -115 45t-35 119q0 68 24.5 121t65.5 89t93.5 55t108.5 19q42 0 84.5 -6.5 t80.5 -22.5zM392 374q-24 6 -46 6q-34 0 -61.5 -14.5t-47 -38.5t-30.5 -56t-11 -66q0 -30 13 -52t53 -22q14 0 35.5 5.5t41.5 18.5zM324 535q1 6 1.5 12t2.5 12q16 63 52 98.5t96 50.5l32 -58q-33 -13 -51 -38t-24 -77h-109z" />
<glyph unicode="&#x124;" d="M586 619l-149 -619h-124l67 273h-165l-66 -273h-123l149 619h123l-59 -244h165l59 244h123zM537 695l-54 -46l-74 69l-101 -69l-41 55l160 126z" />
<glyph unicode="&#x125;" d="M279 468q17 5 35 8.5t35 3.5q74 0 111 -35.5t37 -100.5q0 -17 -2.5 -37t-7.5 -42l-64 -265h-123l60 249q3 16 7 33t4 34q0 23 -12 40.5t-46 17.5q-13 0 -28.5 -2.5t-29.5 -8.5l-88 -363h-123l152 633l128 21zM471 730l-48 -52l-72 53l-100 -54l-31 52l141 100z" />
<glyph unicode="&#x126;" d="M518 448l-108 -448h-123l66 273h-111l-66 -273h-123l108 448h-55l24 99h54l18 72h123l-18 -72h111l18 72h123l-18 -72h56l-24 -99h-55zM377 375l18 73h-111l-18 -73h111z" />
<glyph unicode="&#x127;" d="M204 615l15 58l127 21l-19 -79h128l-20 -83h-128l-16 -66q12 5 31 9t45 4q34 0 58.5 -11t40.5 -30t23 -44.5t7 -55.5q0 -18 -2.5 -36.5t-7.5 -38.5l-63 -263h-123l59 247q3 13 6.5 30t3.5 35q0 24 -9.5 43t-38.5 19q-14 0 -26 -1.5t-26 -3.5l-89 -369h-123l128 532h-55 l20 83h54z" />
<glyph unicode="&#x128;" d="M35 0l24 102h136l100 415h-136l24 102h393l-24 -102h-134l-100 -415h134l-24 -102h-393zM444 681q-17 0 -30.5 5t-25 10.5t-22 10.5t-21.5 5q-13 0 -23 -7t-25 -29l-60 36q21 49 49 72.5t70 23.5q16 0 29.5 -5t25 -10.5t22.5 -10.5t22 -5q13 0 23 7t25 29l60 -36 q-21 -49 -49 -72.5t-70 -23.5z" />
<glyph unicode="&#x129;" d="M459 13q-37 -14 -69.5 -19t-60.5 -5q-71 0 -105 34.5t-34 97.5q0 33 11 77l40 170h-130l25 102h253l-68 -287q-6 -21 -6 -37q0 -50 51 -50q17 0 40 3.5t51 13.5zM391 542q-17 0 -30.5 5t-25 10.5t-22 10.5t-21.5 5q-13 0 -23 -7t-25 -29l-60 36q21 49 49 72.5t70 23.5 q16 0 29.5 -5t25 -10.5t22.5 -10.5t22 -5q13 0 23 7t25 29l60 -36q-21 -49 -49 -72.5t-70 -23.5z" />
<glyph unicode="&#x12a;" d="M35 0l24 102h136l100 415h-136l24 102h393l-24 -102h-134l-100 -415h134l-24 -102h-393zM282 786h287l-21 -87h-288z" />
<glyph unicode="&#x12b;" d="M459 13q-37 -14 -69.5 -19t-60.5 -5q-71 0 -105 34.5t-34 97.5q0 33 11 77l40 170h-130l25 102h253l-68 -287q-6 -21 -6 -37q0 -50 51 -50q17 0 40 3.5t51 13.5zM219 647h287l-21 -87h-288z" />
<glyph unicode="&#x12c;" d="M35 0l24 102h136l100 415h-136l24 102h393l-24 -102h-134l-100 -415h134l-24 -102h-393zM372 821q-1 -5 -1.5 -9t-0.5 -9q0 -21 9.5 -33t31.5 -12t38.5 15.5t21.5 47.5h91q-3 -37 -18 -65t-37.5 -46.5t-50 -27.5t-54.5 -9q-24 0 -46.5 7t-39.5 22t-27.5 37t-10.5 52 q0 17 4 30h90z" />
<glyph unicode="&#x12d;" d="M459 13q-37 -14 -69.5 -19t-60.5 -5q-71 0 -105 34.5t-34 97.5q0 33 11 77l40 170h-130l25 102h253l-68 -287q-6 -21 -6 -37q0 -50 51 -50q17 0 40 3.5t51 13.5zM319 682q-1 -5 -1.5 -9t-0.5 -9q0 -21 9.5 -33t31.5 -12t38.5 15.5t21.5 47.5h91q-3 -37 -18 -65 t-37.5 -46.5t-50 -27.5t-54.5 -9q-24 0 -46.5 7t-39.5 22t-27.5 37t-10.5 52q0 17 4 30h90z" />
<glyph unicode="&#x12e;" d="M272 -156q-17 -6 -39.5 -10t-45.5 -4q-55 0 -77 16t-22 37q0 29 21 56.5t77 60.5h-151l24 102h136l100 415h-136l24 102h393l-24 -102h-134l-100 -415h134l-24 -102h-133l-4 -3q-46 -32 -63.5 -52t-17.5 -32q0 -14 22 -14q13 0 27.5 3.5t20.5 5.5z" />
<glyph unicode="&#x12f;" d="M417 -156q-17 -6 -39.5 -10t-45.5 -4q-55 0 -77 16t-22 37q0 26 18 52t64 55q-64 3 -94.5 37t-30.5 94q0 33 11 77l40 170h-130l25 102h253l-68 -287q-6 -21 -6 -37q0 -50 51 -50q17 0 40 3.5t51 13.5l2 -100l-23 -16q-46 -32 -63.5 -52t-17.5 -32q0 -14 22 -14 q13 0 27.5 3.5t20.5 5.5zM332 527q-32 0 -51.5 17t-19.5 53q0 19 7 35.5t18.5 27.5t26.5 17.5t31 6.5q29 0 50.5 -17t21.5 -55q0 -18 -7.5 -34t-19.5 -27t-27 -17.5t-30 -6.5z" />
<glyph unicode="&#x130;" d="M35 0l24 102h136l100 415h-136l24 102h393l-24 -102h-134l-100 -415h134l-24 -102h-393zM395 675q-28 0 -45.5 16t-17.5 45q0 38 23.5 58t52.5 20q27 0 46 -16t19 -46q0 -18 -7 -32t-18 -24t-25 -15.5t-28 -5.5z" />
<glyph unicode="&#x131;" d="M459 13q-37 -14 -69.5 -19t-60.5 -5q-71 0 -105 34.5t-34 97.5q0 33 11 77l40 170h-130l25 102h253l-68 -287q-6 -21 -6 -37q0 -50 51 -50q17 0 40 3.5t51 13.5z" />
<glyph unicode="&#x132;" d="M13 0l150 619h114l-149 -619h-115zM504 207q-9 -47 -23 -87.5t-37 -70t-56.5 -46t-82.5 -16.5t-85 17.5t-55 40.5l57 79q14 -15 35 -27t40 -12t32.5 6t24 20t18.5 37t16 57l100 414h114z" />
<glyph unicode="&#x133;" d="M190 0h-123l113 470h124zM265 527q-32 0 -52 17t-20 53q0 19 7 35.5t18.5 27.5t26.5 17.5t31 6.5q29 0 50.5 -17t21.5 -55q0 -18 -7.5 -34t-19 -27t-26.5 -17.5t-30 -6.5zM221 -165q-25 0 -44.5 4.5t-39.5 12.5l34 105q13 -5 24.5 -7.5t26.5 -2.5q32 0 48.5 19t24.5 55 l108 449h124l-109 -453q-23 -92 -68 -137t-129 -45zM487 527q-32 0 -52 17t-20 53q0 19 7 35.5t18.5 27.5t26.5 17.5t31 6.5q30 0 51.5 -17t21.5 -55q0 -18 -7.5 -34t-19.5 -27t-27 -17.5t-30 -6.5z" />
<glyph unicode="&#x134;" d="M459 207q-11 -47 -28 -87.5t-45 -70t-70.5 -46t-103.5 -16.5q-32 0 -59.5 6.5t-49 16.5t-38.5 22t-28 23l63 89q20 -18 47.5 -34t62.5 -16q48 0 79.5 25.5t48.5 94.5l72 303h-200l24 102h323zM561 695l-54 -46l-74 69l-101 -69l-41 55l160 126z" />
<glyph unicode="&#x135;" d="M367 25q-14 -57 -33.5 -95t-45.5 -60t-59 -31t-74 -9q-51 0 -93 12.5t-68 32.5l48 99q22 -14 47 -25t57 -11q38 0 62 18.5t36 68.5l82 343h-190l25 102h313zM501 556l-54 -46l-74 69l-101 -69l-41 55l160 126z" />
<glyph unicode="&#x136;" d="M338 322q24 -30 46 -67.5t40.5 -80t33 -87t23.5 -87.5h-129q-7 35 -20.5 75.5t-31 79.5t-37.5 73.5t-40 58.5l-69 -287h-123l148 619h124l-62 -257q31 28 62.5 61.5t60.5 68t54.5 67.5t43.5 60h141q-23 -31 -52 -68t-63 -76.5t-72 -78.5t-78 -74zM184 -45h95 q-12 -125 -145 -125q-14 0 -31 2.5t-22 4.5l14 59q17 0 30.5 1t24.5 6.5t19 16t13 28.5z" />
<glyph unicode="&#x137;" d="M567 470q-48 -58 -108 -114.5t-114 -101.5q18 -22 36.5 -53.5t36.5 -66.5t33 -70t25 -64h-133q-8 25 -21 57t-28 64t-31 60t-31 46l-54 -227h-124l162 673l128 21l-97 -404q18 15 42 37t49 46.5t48.5 50t40.5 46.5h140zM201 -45h95q-12 -125 -145 -125q-14 0 -31 2.5 t-22 4.5l14 59q17 0 30.5 1t24.5 6.5t19 16t13 28.5z" />
<glyph unicode="&#x138;" d="M567 470q-48 -58 -108 -114.5t-114 -101.5q18 -22 36.5 -53.5t36.5 -66.5t33 -70t25 -64h-133q-8 25 -21 57t-28 64t-31 60t-31 46l-54 -227h-124l113 470h123l-43 -180q18 15 42 37t49 46.5t48.5 50t40.5 46.5h140z" />
<glyph unicode="&#x139;" d="M429 0h-384l148 619h123l-124 -517h261zM425 736l-174 -91l-45 67l158 118z" />
<glyph unicode="&#x13a;" d="M455 20q-4 -2 -15.5 -7.5t-30.5 -10.5t-44.5 -9t-56.5 -4q-68 0 -102 35t-34 98q0 17 2.5 35.5t7.5 38.5l82 347h-130l24 102h253l-107 -457q-2 -10 -4.5 -21.5t-2.5 -20.5q0 -20 11 -35t45 -15q14 0 28.5 2.5t27.5 6.5t23 7t15 5zM488 738l-203 -60l-16 58l194 94z" />
<glyph unicode="&#x13b;" d="M429 0h-384l148 619h123l-124 -517h261zM201 -45h95q-12 -125 -145 -125q-14 0 -31 2.5t-22 4.5l14 59q17 0 30.5 1t24.5 6.5t19 16t13 28.5z" />
<glyph unicode="&#x13c;" d="M455 20q-4 -2 -15.5 -7.5t-30.5 -10.5t-44.5 -9t-56.5 -4q-68 0 -102 35t-34 98q0 17 2.5 35.5t7.5 38.5l93 390h-130l24 102h253l-118 -500q-2 -10 -4.5 -21.5t-2.5 -20.5q0 -20 11 -35t45 -15q14 0 28.5 2.5t27.5 6.5t23 7t15 5zM255 -45h95q-12 -125 -145 -125 q-14 0 -31 2.5t-22 4.5l14 59q17 0 30.5 1t24.5 6.5t19 16t13 28.5z" />
<glyph unicode="&#x13d;" d="M429 0h-384l148 619h123l-124 -517h261zM513 621l-83 -218h-79l50 218h112z" />
<glyph unicode="&#x13e;" d="M455 20q-4 -2 -15.5 -7.5t-30.5 -10.5t-44.5 -9t-56.5 -4q-68 0 -102 35t-34 98q0 17 2.5 35.5t7.5 38.5l93 390h-130l24 102h253l-118 -500q-2 -10 -4.5 -21.5t-2.5 -20.5q0 -20 11 -35t45 -15q14 0 28.5 2.5t27.5 6.5t23 7t15 5zM615 693l-83 -218h-79l50 218h112z" />
<glyph unicode="&#x13f;" d="M429 0h-384l148 619h123l-124 -517h261zM416 258q-28 0 -45.5 16t-17.5 45q0 38 23.5 58t52.5 20q27 0 46 -16t19 -46q0 -18 -7 -32t-18 -24t-25 -15.5t-28 -5.5z" />
<glyph unicode="&#x140;" d="M455 20q-4 -2 -15.5 -7.5t-30.5 -10.5t-44.5 -9t-56.5 -4q-68 0 -102 35t-34 98q0 17 2.5 35.5t7.5 38.5l93 390h-130l24 102h253l-118 -500q-2 -10 -4.5 -21.5t-2.5 -20.5q0 -20 11 -35t45 -15q14 0 28.5 2.5t27.5 6.5t23 7t15 5zM518 258q-28 0 -45.5 16t-17.5 45 q0 38 23.5 58t52.5 20q27 0 46 -16t19 -46q0 -18 -7 -32t-18 -24t-25 -15.5t-28 -5.5z" />
<glyph unicode="&#x141;" d="M429 0h-349l58 240l-70 -33l-22 90l119 56l64 266h123l-48 -201l97 46l22 -90l-147 -69l-48 -203h225z" />
<glyph unicode="&#x142;" d="M455 20q-4 -2 -15.5 -7.5t-30.5 -10.5t-44.5 -9t-56.5 -4q-68 0 -102 35t-34 98q0 17 2.5 35.5t7.5 38.5l24 102l-61 -27l-20 83l106 46l44 186h-130l24 102h253l-53 -226l71 32l21 -82l-117 -53l-40 -171q-2 -10 -4.5 -21.5t-2.5 -20.5q0 -20 11 -35t45 -15 q14 0 28.5 2.5t27.5 6.5t23 7t15 5z" />
<glyph unicode="&#x143;" d="M337 0q-17 103 -40.5 211t-55.5 233l-106 -444h-109l148 619h105q14 -44 29.5 -96t29 -105t25 -105t18.5 -95l95 401h109l-148 -619h-100zM531 736l-174 -91l-45 67l158 118z" />
<glyph unicode="&#x144;" d="M152 450q31 10 81 20t107 10q84 0 120.5 -36t36.5 -100q0 -17 -2.5 -37t-7.5 -42l-65 -265h-123l61 249q3 16 7 33t4 34q0 23 -12.5 40.5t-45.5 17.5q-14 0 -29 -2.5t-29 -8.5l-88 -363h-123zM495 597l-174 -91l-45 67l158 118z" />
<glyph unicode="&#x145;" d="M337 0q-17 103 -40.5 211t-55.5 233l-106 -444h-109l148 619h105q14 -44 29.5 -96t29 -105t25 -105t18.5 -95l95 401h109l-148 -619h-100zM184 -45h95q-12 -125 -145 -125q-14 0 -31 2.5t-22 4.5l14 59q17 0 30.5 1t24.5 6.5t19 16t13 28.5z" />
<glyph unicode="&#x146;" d="M152 450q31 10 81 20t107 10q84 0 120.5 -36t36.5 -100q0 -17 -2.5 -37t-7.5 -42l-65 -265h-123l61 249q3 16 7 33t4 34q0 23 -12.5 40.5t-45.5 17.5q-14 0 -29 -2.5t-29 -8.5l-88 -363h-123zM184 -45h95q-12 -125 -145 -125q-14 0 -31 2.5t-22 4.5l14 59q17 0 30.5 1 t24.5 6.5t19 16t13 28.5z" />
<glyph unicode="&#x147;" d="M337 0q-17 103 -40.5 211t-55.5 233l-106 -444h-109l148 619h105q14 -44 29.5 -96t29 -105t25 -105t18.5 -95l95 401h109l-148 -619h-100zM283 784l54 46l74 -69l101 69l41 -55l-160 -126z" />
<glyph unicode="&#x148;" d="M247 645l54 46l74 -69l101 69l41 -55l-160 -126zM152 450q31 10 81 20t107 10q84 0 120.5 -36t36.5 -100q0 -17 -2.5 -37t-7.5 -42l-65 -265h-123l61 249q3 16 7 33t4 34q0 23 -12.5 40.5t-45.5 17.5q-14 0 -29 -2.5t-29 -8.5l-88 -363h-123z" />
<glyph unicode="&#x149;" d="M165 450q31 10 81 20t107 10q84 0 120.5 -36t36.5 -100q0 -17 -2.5 -37t-7.5 -42l-65 -265h-123l61 249q3 16 7 33t4 34q0 23 -12.5 40.5t-45.5 17.5q-14 0 -29 -2.5t-29 -8.5l-88 -363h-123zM290 693q-9 -36 -18.5 -62.5t-21.5 -48.5t-27 -43t-35 -45l-79 28 q15 24 26.5 44.5t19 40.5t12 41t7.5 45h116z" />
<glyph unicode="&#x14a;" d="M255 -167q-51 0 -84 18l36 95q11 -4 21 -6t27 -2q35 0 51 18.5t24 50.5l4 14q-8 45 -18.5 96.5t-22.5 106.5t-25.5 110.5t-27.5 109.5l-105 -444h-109l148 619h105q14 -44 29.5 -96t29 -105t25 -105t18.5 -95l95 401h109l-144 -600q-11 -46 -25 -81t-35.5 -58t-52 -35 t-73.5 -12z" />
<glyph unicode="&#x14b;" d="M428 19q-11 -46 -23.5 -81t-32.5 -58t-50 -35t-77 -12q-19 0 -40.5 5t-36.5 12l35 98q11 -4 19 -6t23 -2q29 0 40.5 23.5t19.5 55.5l55 230q3 16 7 33t4 34q0 23 -12.5 40.5t-45.5 17.5q-14 0 -28.5 -1.5t-29.5 -3.5l-88 -369h-123l109 455q35 9 77.5 17t99.5 8 q85 0 126 -35.5t41 -100.5q0 -17 -2.5 -37t-7.5 -42z" />
<glyph unicode="&#x14c;" d="M367 633q81 0 127 -52.5t46 -139.5q0 -39 -6 -88t-20 -99.5t-37 -98.5t-56 -85.5t-77.5 -60t-102.5 -22.5q-82 0 -128 52.5t-46 139.5q0 39 6 88t20.5 99.5t37 98.5t56 85.5t78 60t102.5 22.5zM255 94q41 0 71.5 35t50.5 86.5t30 110t10 106.5q0 39 -13.5 66.5 t-50.5 27.5q-41 0 -72 -35t-51 -86.5t-30 -110.5t-10 -106q0 -39 13.5 -66.5t51.5 -27.5zM281 786h287l-21 -87h-288z" />
<glyph unicode="&#x14d;" d="M256 94q30 0 53 18t39.5 45t25 58.5t8.5 59.5q0 47 -13.5 74t-55.5 27q-29 0 -52.5 -18t-39.5 -45t-24.5 -58.5t-8.5 -59.5q0 -47 13.5 -74t54.5 -27zM231 -13q-84 0 -125 48t-41 128q0 60 18 117t53 102t87 72.5t120 27.5q73 0 117.5 -44.5t44.5 -132.5q0 -59 -17 -116 t-51.5 -102t-86 -72.5t-119.5 -27.5zM236 647h287l-21 -87h-288z" />
<glyph unicode="&#x14e;" d="M367 633q81 0 127 -52.5t46 -139.5q0 -39 -6 -88t-20 -99.5t-37 -98.5t-56 -85.5t-77.5 -60t-102.5 -22.5q-82 0 -128 52.5t-46 139.5q0 39 6 88t20.5 99.5t37 98.5t56 85.5t78 60t102.5 22.5zM255 94q41 0 71.5 35t50.5 86.5t30 110t10 106.5q0 39 -13.5 66.5 t-50.5 27.5q-41 0 -72 -35t-51 -86.5t-30 -110.5t-10 -106q0 -39 13.5 -66.5t51.5 -27.5zM381 821q-1 -5 -1.5 -9t-0.5 -9q0 -21 9.5 -33t31.5 -12t38.5 15.5t21.5 47.5h91q-3 -37 -18 -65t-37.5 -46.5t-50 -27.5t-54.5 -9q-24 0 -46.5 7t-39.5 22t-27.5 37t-10.5 52 q0 17 4 30h90z" />
<glyph unicode="&#x14f;" d="M256 94q30 0 53 18t39.5 45t25 58.5t8.5 59.5q0 47 -13.5 74t-55.5 27q-29 0 -52.5 -18t-39.5 -45t-24.5 -58.5t-8.5 -59.5q0 -47 13.5 -74t54.5 -27zM231 -13q-84 0 -125 48t-41 128q0 60 18 117t53 102t87 72.5t120 27.5q73 0 117.5 -44.5t44.5 -132.5q0 -59 -17 -116 t-51.5 -102t-86 -72.5t-119.5 -27.5zM336 682q-1 -5 -1.5 -9t-0.5 -9q0 -21 9.5 -33t31.5 -12t38.5 15.5t21.5 47.5h91q-3 -37 -18 -65t-37.5 -46.5t-50 -27.5t-54.5 -9q-24 0 -46.5 7t-39.5 22t-27.5 37t-10.5 52q0 17 4 30h90z" />
<glyph unicode="&#x150;" d="M367 633q81 0 127 -52.5t46 -139.5q0 -39 -6 -88t-20 -99.5t-37 -98.5t-56 -85.5t-77.5 -60t-102.5 -22.5q-82 0 -128 52.5t-46 139.5q0 39 6 88t20.5 99.5t37 98.5t56 85.5t78 60t102.5 22.5zM255 94q41 0 71.5 35t50.5 86.5t30 110t10 106.5q0 39 -13.5 66.5 t-50.5 27.5q-41 0 -72 -35t-51 -86.5t-30 -110.5t-10 -106q0 -39 13.5 -66.5t51.5 -27.5zM636 751l-154 -102l-47 59l142 122zM436 751l-154 -102l-47 59l142 122z" />
<glyph unicode="&#x151;" d="M256 94q30 0 53 18t39.5 45t25 58.5t8.5 59.5q0 47 -13.5 74t-55.5 27q-29 0 -52.5 -18t-39.5 -45t-24.5 -58.5t-8.5 -59.5q0 -47 13.5 -74t54.5 -27zM231 -13q-84 0 -125 48t-41 128q0 60 18 117t53 102t87 72.5t120 27.5q73 0 117.5 -44.5t44.5 -132.5q0 -59 -17 -116 t-51.5 -102t-86 -72.5t-119.5 -27.5zM591 612l-154 -102l-47 59l142 122zM391 612l-154 -102l-47 59l142 122z" />
<glyph unicode="&#x152;" d="M229 99q15 0 33 5l99 412q-15 5 -31 5q-37 0 -66.5 -36t-50.5 -88.5t-32.5 -111t-11.5 -103.5q0 -40 13 -61.5t47 -21.5zM262 0q-13 -3 -26 -4t-27 -1q-75 0 -115 46.5t-40 132.5q0 41 6.5 91t20.5 100t37 97t55.5 83t76 58t99.5 22q15 0 31.5 -2t29.5 -4h199l-24 -102 h-113l-34 -139h90l-24 -102h-90l-42 -174h126l-24 -102h-212z" />
<glyph unicode="&#x153;" d="M271 329q0 27 -10 39t-24 12q-17 0 -35.5 -17.5t-34.5 -48t-26 -72.5t-10 -90q0 -28 9.5 -45t29.5 -17q16 0 34 19t33 51.5t24.5 76t9.5 92.5zM469 359q0 14 -6 24t-25 10q-10 0 -22 -8t-25 -25t-24.5 -44t-19.5 -66q27 0 49 8.5t38.5 23t25.5 34.5t9 43zM390 -13 q-48 0 -76 21t-42 55q-20 -38 -54 -57t-69 -19q-28 0 -49 11.5t-35.5 31t-21.5 46.5t-7 58q0 76 18 140t48 110.5t69.5 72t81.5 25.5q76 0 96 -63q21 27 51.5 45t59.5 18q18 0 35.5 -5.5t30.5 -18t21 -32.5t8 -49q0 -50 -17 -87.5t-46.5 -63t-68.5 -39.5t-82 -18 q-1 -5 -1 -8v-7q0 -35 15.5 -55t54.5 -20q34 0 70 25l12 -87q-22 -14 -48 -22t-54 -8z" />
<glyph unicode="&#x154;" d="M381 253q15 -25 28.5 -56t25.5 -64.5t21.5 -67.5t15.5 -65h-120q-11 60 -31 116t-47 112h-64l-55 -228h-121l145 609q19 4 40.5 7.5t42.5 5.5t40 3t34 1q99 0 148 -43.5t49 -117.5q0 -35 -9.5 -68.5t-29 -62t-48 -50t-65.5 -31.5zM280 330q26 0 49.5 7t41.5 22t28.5 38 t10.5 54q0 35 -21 54t-72 19q-11 0 -20 -1t-17 -3l-46 -190h46zM513 736l-174 -91l-45 67l158 118z" />
<glyph unicode="&#x155;" d="M488 348q-19 7 -45 11t-64 4q-26 0 -53.5 -3.5t-50.5 -11.5l-83 -348h-123l105 439q47 19 101.5 29.5t102.5 10.5q56 0 91.5 -5t65.5 -13zM515 597l-174 -91l-45 67l158 118z" />
<glyph unicode="&#x156;" d="M381 253q15 -25 28.5 -56t25.5 -64.5t21.5 -67.5t15.5 -65h-120q-11 60 -31 116t-47 112h-64l-55 -228h-121l145 609q19 4 40.5 7.5t42.5 5.5t40 3t34 1q99 0 148 -43.5t49 -117.5q0 -35 -9.5 -68.5t-29 -62t-48 -50t-65.5 -31.5zM280 330q26 0 49.5 7t41.5 22t28.5 38 t10.5 54q0 35 -21 54t-72 19q-11 0 -20 -1t-17 -3l-46 -190h46zM184 -45h95q-12 -125 -145 -125q-14 0 -31 2.5t-22 4.5l14 59q17 0 30.5 1t24.5 6.5t19 16t13 28.5z" />
<glyph unicode="&#x157;" d="M488 348q-19 7 -45 11t-64 4q-26 0 -53.5 -3.5t-50.5 -11.5l-83 -348h-123l105 439q47 19 101.5 29.5t102.5 10.5q56 0 91.5 -5t65.5 -13zM68 -45h95q-12 -125 -145 -125q-14 0 -31 2.5t-22 4.5l14 59q17 0 30.5 1t24.5 6.5t19 16t13 28.5z" />
<glyph unicode="&#x158;" d="M381 253q15 -25 28.5 -56t25.5 -64.5t21.5 -67.5t15.5 -65h-120q-11 60 -31 116t-47 112h-64l-55 -228h-121l145 609q19 4 40.5 7.5t42.5 5.5t40 3t34 1q99 0 148 -43.5t49 -117.5q0 -35 -9.5 -68.5t-29 -62t-48 -50t-65.5 -31.5zM280 330q26 0 49.5 7t41.5 22t28.5 38 t10.5 54q0 35 -21 54t-72 19q-11 0 -20 -1t-17 -3l-46 -190h46zM247 784l54 46l74 -69l101 69l41 -55l-160 -126z" />
<glyph unicode="&#x159;" d="M488 348q-19 7 -45 11t-64 4q-26 0 -53.5 -3.5t-50.5 -11.5l-83 -348h-123l105 439q47 19 101.5 29.5t102.5 10.5q56 0 91.5 -5t65.5 -13zM277 645l54 46l74 -69l101 69l41 -55l-160 -126z" />
<glyph unicode="&#x15a;" d="M236 90q23 0 44 4.5t36.5 15t25 26.5t9.5 40q0 18 -7.5 32.5t-20.5 26.5t-30.5 22t-37.5 20q-25 13 -46.5 26t-37 31t-24.5 43t-9 61q0 88 59.5 141.5t169.5 53.5q36 0 64.5 -5t50.5 -12t37.5 -15t25.5 -14l-52 -95q-23 16 -58 27t-84 11q-38 0 -64.5 -17t-26.5 -59 q0 -34 22.5 -51.5t54.5 -31.5q30 -14 55 -29t43 -35t28.5 -47t10.5 -64q0 -102 -65.5 -155.5t-185.5 -53.5q-40 0 -71.5 6t-54.5 14t-39.5 17.5t-26.5 16.5l53 94q10 -6 25.5 -14t35 -15t42.5 -11.5t49 -4.5zM513 736l-174 -91l-45 67l158 118z" />
<glyph unicode="&#x15b;" d="M234 91q53 0 73 14t20 33q0 9 -3.5 16t-12 13.5t-23.5 13t-38 15.5q-28 10 -49 21t-35 25.5t-21 33.5t-7 45q0 73 51.5 117t154.5 44q51 0 93.5 -9t67.5 -21l-45 -97q-23 11 -52.5 18t-74.5 7q-10 0 -22.5 -1.5t-23.5 -6.5t-18.5 -13.5t-7.5 -21.5q0 -9 2.5 -15.5 t10.5 -13t23 -13.5t40 -16q30 -12 51.5 -24t36 -27t21 -35t6.5 -48q0 -29 -12 -57t-37.5 -50.5t-66.5 -36.5t-98 -14q-41 0 -72 5t-54 12t-38.5 14.5t-24.5 12.5l46 97q20 -11 55 -24t84 -13zM495 597l-174 -91l-45 67l158 118z" />
<glyph unicode="&#x15c;" d="M236 90q23 0 44 4.5t36.5 15t25 26.5t9.5 40q0 18 -7.5 32.5t-20.5 26.5t-30.5 22t-37.5 20q-25 13 -46.5 26t-37 31t-24.5 43t-9 61q0 88 59.5 141.5t169.5 53.5q36 0 64.5 -5t50.5 -12t37.5 -15t25.5 -14l-52 -95q-23 16 -58 27t-84 11q-38 0 -64.5 -17t-26.5 -59 q0 -34 22.5 -51.5t54.5 -31.5q30 -14 55 -29t43 -35t28.5 -47t10.5 -64q0 -102 -65.5 -155.5t-185.5 -53.5q-40 0 -71.5 6t-54.5 14t-39.5 17.5t-26.5 16.5l53 94q10 -6 25.5 -14t35 -15t42.5 -11.5t49 -4.5zM537 695l-54 -46l-74 69l-101 -69l-41 55l160 126z" />
<glyph unicode="&#x15d;" d="M234 91q53 0 73 14t20 33q0 9 -3.5 16t-12 13.5t-23.5 13t-38 15.5q-28 10 -49 21t-35 25.5t-21 33.5t-7 45q0 73 51.5 117t154.5 44q51 0 93.5 -9t67.5 -21l-45 -97q-23 11 -52.5 18t-74.5 7q-10 0 -22.5 -1.5t-23.5 -6.5t-18.5 -13.5t-7.5 -21.5q0 -9 2.5 -15.5 t10.5 -13t23 -13.5t40 -16q30 -12 51.5 -24t36 -27t21 -35t6.5 -48q0 -29 -12 -57t-37.5 -50.5t-66.5 -36.5t-98 -14q-41 0 -72 5t-54 12t-38.5 14.5t-24.5 12.5l46 97q20 -11 55 -24t84 -13zM511 556l-54 -46l-74 69l-101 -69l-41 55l160 126z" />
<glyph unicode="&#x15e;" d="M249 -25q22 -11 31 -26t9 -33q0 -41 -34.5 -63.5t-88.5 -22.5q-48 0 -86 20l26 58q11 -6 25.5 -9.5t28.5 -3.5q23 0 30.5 9t7.5 16q0 11 -5.5 18.5t-20.5 12.5l-18 6q6 10 11 17.5t10 15.5q-58 6 -92.5 22.5t-51.5 28.5l53 94q10 -6 25.5 -14t35 -15t42.5 -11.5t49 -4.5 q23 0 44 4.5t36.5 15t25 26.5t9.5 40q0 18 -7.5 32.5t-20.5 26.5t-30.5 22t-37.5 20q-25 13 -46.5 26t-37 31t-24.5 43t-9 61q0 88 59.5 141.5t169.5 53.5q36 0 64.5 -5t50.5 -12t37.5 -15t25.5 -14l-52 -95q-23 16 -58 27t-84 11q-38 0 -64.5 -17t-26.5 -59 q0 -34 22.5 -51.5t54.5 -31.5q30 -14 55 -29t43 -35t28.5 -47t10.5 -64q0 -94 -56.5 -147t-160.5 -61z" />
<glyph unicode="&#x15f;" d="M258 -25q22 -11 31 -26t9 -33q0 -41 -34.5 -63.5t-88.5 -22.5q-48 0 -86 20l26 58q11 -6 25.5 -9.5t28.5 -3.5q23 0 30.5 9t7.5 16q0 11 -5.5 18.5t-20.5 12.5l-18 6q6 10 11.5 17.5t10.5 15.5q-57 6 -89 19.5t-47 21.5l46 97q20 -11 55 -24t84 -13q53 0 73 14t20 33 q0 9 -3.5 16t-12 13.5t-23.5 13t-38 15.5q-28 10 -49 21t-35 25.5t-21 33.5t-7 45q0 73 51.5 117t154.5 44q51 0 93.5 -9t67.5 -21l-45 -97q-23 11 -52.5 18t-74.5 7q-10 0 -22.5 -1.5t-23.5 -6.5t-18.5 -13.5t-7.5 -21.5q0 -9 2.5 -15.5t10.5 -13t23 -13.5t40 -16 q30 -12 51.5 -24t36 -27t21 -35t6.5 -48q0 -27 -10.5 -53.5t-33 -48.5t-58 -36.5t-84.5 -18.5z" />
<glyph unicode="&#x160;" d="M236 90q23 0 44 4.5t36.5 15t25 26.5t9.5 40q0 18 -7.5 32.5t-20.5 26.5t-30.5 22t-37.5 20q-25 13 -46.5 26t-37 31t-24.5 43t-9 61q0 88 59.5 141.5t169.5 53.5q36 0 64.5 -5t50.5 -12t37.5 -15t25.5 -14l-52 -95q-23 16 -58 27t-84 11q-38 0 -64.5 -17t-26.5 -59 q0 -34 22.5 -51.5t54.5 -31.5q30 -14 55 -29t43 -35t28.5 -47t10.5 -64q0 -102 -65.5 -155.5t-185.5 -53.5q-40 0 -71.5 6t-54.5 14t-39.5 17.5t-26.5 16.5l53 94q10 -6 25.5 -14t35 -15t42.5 -11.5t49 -4.5zM280 784l54 46l74 -69l101 69l41 -55l-160 -126z" />
<glyph unicode="&#x161;" d="M234 91q53 0 73 14t20 33q0 9 -3.5 16t-12 13.5t-23.5 13t-38 15.5q-28 10 -49 21t-35 25.5t-21 33.5t-7 45q0 73 51.5 117t154.5 44q51 0 93.5 -9t67.5 -21l-45 -97q-23 11 -52.5 18t-74.5 7q-10 0 -22.5 -1.5t-23.5 -6.5t-18.5 -13.5t-7.5 -21.5q0 -9 2.5 -15.5 t10.5 -13t23 -13.5t40 -16q30 -12 51.5 -24t36 -27t21 -35t6.5 -48q0 -29 -12 -57t-37.5 -50.5t-66.5 -36.5t-98 -14q-41 0 -72 5t-54 12t-38.5 14.5t-24.5 12.5l46 97q20 -11 55 -24t84 -13zM256 645l54 46l74 -69l101 69l41 -55l-160 -126z" />
<glyph unicode="&#x162;" d="M259 -25q22 -11 31 -26t9 -33q0 -41 -34.5 -63.5t-88.5 -22.5q-48 0 -86 20l26 58q11 -6 25.5 -9.5t28.5 -3.5q23 0 30.5 9t7.5 16q0 11 -5.5 18.5t-20.5 12.5l-18 6l29 43h-25l124 517h-163l24 102h450l-24 -102h-164l-124 -517h-15z" />
<glyph unicode="&#x163;" d="M322 -25q22 -11 31 -26t9 -33q0 -41 -34.5 -63.5t-88.5 -22.5q-48 0 -86 20l26 58q11 -6 25.5 -9.5t28.5 -3.5q23 0 30.5 9t7.5 16q0 11 -5.5 18.5t-20.5 12.5l-18 6q7 11 12.5 19.5t11.5 16.5q-56 9 -83.5 42.5t-27.5 88.5q0 16 2 32.5t7 35.5l42 176h-94l25 102h93 l28 118l129 20l-34 -138h179l-25 -102h-178l-44 -183q-5 -25 -5 -39q0 -30 20.5 -40t46.5 -10q27 0 55.5 6.5t55.5 17.5l-1 -103q-49 -21 -110 -26z" />
<glyph unicode="&#x164;" d="M603 619l-24 -102h-164l-124 -517h-123l124 517h-163l24 102h450zM283 784l54 46l74 -69l101 69l41 -55l-160 -126z" />
<glyph unicode="&#x165;" d="M204 368h-94l25 102h93l28 118l129 20l-34 -138h179l-25 -102h-178l-44 -183q-5 -25 -5 -39q0 -30 20.5 -40t46.5 -10q27 0 55.5 6.5t55.5 17.5l-1 -103q-31 -14 -68.5 -21t-74.5 -7q-80 0 -119.5 34.5t-39.5 100.5q0 16 2 32.5t7 35.5zM575 693l-75 -171h-76l40 171h111 z" />
<glyph unicode="&#x166;" d="M603 619l-24 -102h-164l-44 -180h110l-24 -99h-109l-57 -238h-123l57 238h-106l24 99h105l44 180h-163l24 102h450z" />
<glyph unicode="&#x167;" d="M164 204h-93l19 83h94l20 81h-94l25 102h93l28 118l129 20l-34 -138h179l-25 -102h-178l-20 -81h190l-20 -83h-189l-5 -19q-5 -25 -5 -39q0 -30 20.5 -40t46.5 -10q27 0 55.5 6.5t55.5 17.5l-1 -103q-31 -14 -68.5 -21t-74.5 -7q-80 0 -119.5 34.5t-39.5 100.5 q0 16 2 32.5t7 35.5z" />
<glyph unicode="&#x168;" d="M237 -13q-88 0 -129 42t-41 117q0 41 12 92l92 381h123l-91 -380q-5 -23 -9 -43.5t-4 -37.5q0 -30 14 -47t51 -17q22 0 38 6.5t28 22t21.5 41.5t18.5 65l94 390h123l-96 -399q-13 -55 -29.5 -98t-43.5 -73t-68.5 -46t-103.5 -16zM444 681q-17 0 -30.5 5t-25 10.5 t-22 10.5t-21.5 5q-13 0 -23 -7t-25 -29l-60 36q21 49 49 72.5t70 23.5q16 0 29.5 -5t25 -10.5t22.5 -10.5t22 -5q13 0 23 7t25 29l60 -36q-21 -49 -49 -72.5t-70 -23.5z" />
<glyph unicode="&#x169;" d="M221 -11q-81 0 -113 38t-32 104q0 46 14 107l56 232h123l-53 -224q-8 -30 -12 -54.5t-4 -43.5q0 -52 50 -52q28 0 44.5 11.5t31.5 28.5q2 14 3.5 27t6.5 30l66 277h123l-67 -278q-4 -18 -6.5 -35.5t-2.5 -35.5q0 -29 6 -56.5t15 -54.5l-108 -18l-5 10t-6 13t-5 12.5 t-3 8.5q-20 -15 -52 -31t-70 -16zM408 542q-17 0 -30.5 5t-25 10.5t-22 10.5t-21.5 5q-13 0 -23 -7t-25 -29l-60 36q21 49 49 72.5t70 23.5q16 0 29.5 -5t25 -10.5t22.5 -10.5t22 -5q13 0 23 7t25 29l60 -36q-21 -49 -49 -72.5t-70 -23.5z" />
<glyph unicode="&#x16a;" d="M237 -13q-88 0 -129 42t-41 117q0 41 12 92l92 381h123l-91 -380q-5 -23 -9 -43.5t-4 -37.5q0 -30 14 -47t51 -17q22 0 38 6.5t28 22t21.5 41.5t18.5 65l94 390h123l-96 -399q-13 -55 -29.5 -98t-43.5 -73t-68.5 -46t-103.5 -16zM272 786h287l-21 -87h-288z" />
<glyph unicode="&#x16b;" d="M221 -11q-81 0 -113 38t-32 104q0 46 14 107l56 232h123l-53 -224q-8 -30 -12 -54.5t-4 -43.5q0 -52 50 -52q28 0 44.5 11.5t31.5 28.5q2 14 3.5 27t6.5 30l66 277h123l-67 -278q-4 -18 -6.5 -35.5t-2.5 -35.5q0 -29 6 -56.5t15 -54.5l-108 -18l-5 10t-6 13t-5 12.5 t-3 8.5q-20 -15 -52 -31t-70 -16zM236 647h287l-21 -87h-288z" />
<glyph unicode="&#x16c;" d="M237 -13q-88 0 -129 42t-41 117q0 41 12 92l92 381h123l-91 -380q-5 -23 -9 -43.5t-4 -37.5q0 -30 14 -47t51 -17q22 0 38 6.5t28 22t21.5 41.5t18.5 65l94 390h123l-96 -399q-13 -55 -29.5 -98t-43.5 -73t-68.5 -46t-103.5 -16zM372 821q-1 -5 -1.5 -9t-0.5 -9 q0 -21 9.5 -33t31.5 -12t38.5 15.5t21.5 47.5h91q-3 -37 -18 -65t-37.5 -46.5t-50 -27.5t-54.5 -9q-24 0 -46.5 7t-39.5 22t-27.5 37t-10.5 52q0 17 4 30h90z" />
<glyph unicode="&#x16d;" d="M221 -11q-81 0 -113 38t-32 104q0 46 14 107l56 232h123l-53 -224q-8 -30 -12 -54.5t-4 -43.5q0 -52 50 -52q28 0 44.5 11.5t31.5 28.5q2 14 3.5 27t6.5 30l66 277h123l-67 -278q-4 -18 -6.5 -35.5t-2.5 -35.5q0 -29 6 -56.5t15 -54.5l-108 -18l-5 10t-6 13t-5 12.5 t-3 8.5q-20 -15 -52 -31t-70 -16zM327 682q-1 -5 -1.5 -9t-0.5 -9q0 -21 9.5 -33t31.5 -12t38.5 15.5t21.5 47.5h91q-3 -37 -18 -65t-37.5 -46.5t-50 -27.5t-54.5 -9q-24 0 -46.5 7t-39.5 22t-27.5 37t-10.5 52q0 17 4 30h90z" />
<glyph unicode="&#x16e;" d="M237 -13q-88 0 -129 42t-41 117q0 41 12 92l87 361h123l-86 -360q-5 -23 -9 -43.5t-4 -37.5q0 -30 14 -47t51 -17q22 0 38 6.5t28 22t21.5 41.5t18.5 65l89 370h123l-91 -379q-13 -55 -29.5 -98t-43.5 -73t-68.5 -46t-103.5 -16zM486 723q0 -50 -31.5 -76t-74.5 -26 q-20 0 -39 6.5t-33.5 19.5t-23 32t-8.5 44t8.5 44.5t23 32.5t33.5 19.5t39 6.5q43 0 74.5 -26t31.5 -77zM421 723q0 21 -12 31.5t-29 10.5q-15 0 -27.5 -10.5t-12.5 -31.5q0 -20 12.5 -31t27.5 -11q17 0 29 11t12 31z" />
<glyph unicode="&#x16f;" d="M221 -11q-81 0 -113 38t-32 104q0 46 14 107l56 232h123l-53 -224q-8 -30 -12 -54.5t-4 -43.5q0 -52 50 -52q28 0 44.5 11.5t31.5 28.5q2 14 3.5 27t6.5 30l66 277h123l-67 -278q-4 -18 -6.5 -35.5t-2.5 -35.5q0 -29 6 -56.5t15 -54.5l-108 -18l-5 10t-6 13t-5 12.5 t-3 8.5q-20 -15 -52 -31t-70 -16zM480 624q0 -50 -31.5 -76t-74.5 -26q-20 0 -39 6.5t-33.5 19.5t-23 32t-8.5 44t8.5 44.5t23 32.5t33.5 19.5t39 6.5q43 0 74.5 -26t31.5 -77zM415 624q0 21 -12 31.5t-29 10.5q-15 0 -27.5 -10.5t-12.5 -31.5q0 -20 12.5 -31t27.5 -11 q17 0 29 11t12 31z" />
<glyph unicode="&#x170;" d="M237 -13q-88 0 -129 42t-41 117q0 41 12 92l92 381h123l-91 -380q-5 -23 -9 -43.5t-4 -37.5q0 -30 14 -47t51 -17q22 0 38 6.5t28 22t21.5 41.5t18.5 65l94 390h123l-96 -399q-13 -55 -29.5 -98t-43.5 -73t-68.5 -46t-103.5 -16zM609 751l-154 -102l-47 59l142 122z M409 751l-154 -102l-47 59l142 122z" />
<glyph unicode="&#x171;" d="M221 -11q-81 0 -113 38t-32 104q0 46 14 107l56 232h123l-53 -224q-8 -30 -12 -54.5t-4 -43.5q0 -52 50 -52q28 0 44.5 11.5t31.5 28.5q2 14 3.5 27t6.5 30l66 277h123l-67 -278q-4 -18 -6.5 -35.5t-2.5 -35.5q0 -29 6 -56.5t15 -54.5l-108 -18l-5 10t-6 13t-5 12.5 t-3 8.5q-20 -15 -52 -31t-70 -16zM582 612l-154 -102l-47 59l142 122zM382 612l-154 -102l-47 59l142 122z" />
<glyph unicode="&#x172;" d="M320 -156q-17 -6 -39.5 -10t-45.5 -4q-55 0 -77 16t-22 37q0 26 17 51t62 54q-76 5 -112 46t-36 112q0 41 12 92l92 381h123l-91 -380q-5 -23 -9 -43.5t-4 -37.5q0 -30 14 -47t51 -17q22 0 38 6.5t28 22t21.5 41.5t18.5 65l94 390h123l-96 -399q-9 -38 -18.5 -68.5 t-24.5 -57t-39 -50t-61 -47.5q-47 -29 -64 -51t-17 -33q0 -14 22 -14q13 0 27.5 3.5t20.5 5.5z" />
<glyph unicode="&#x173;" d="M432 -156q-17 -6 -39.5 -10t-45.5 -4q-55 0 -77 16t-22 37q0 29 23 58t84 64q-4 8 -7.5 17.5t-4.5 13.5q-20 -15 -52 -31t-70 -16q-81 0 -113 38t-32 104q0 46 14 107l56 232h123l-53 -224q-8 -30 -12 -54.5t-4 -43.5q0 -52 50 -52q28 0 44.5 11.5t31.5 28.5q2 14 3.5 27 t6.5 30l66 277h123l-67 -278q-4 -18 -6.5 -35.5t-2.5 -35.5q0 -29 6 -56.5t15 -54.5l-19 -13q-46 -32 -63.5 -52t-17.5 -32q0 -14 22 -14q13 0 27.5 3.5t20.5 5.5z" />
<glyph unicode="&#x174;" d="M324 0q-2 21 -5.5 55.5t-6.5 74t-6 81t-4 77.5l-149 -288h-114q20 151 50.5 304.5t65.5 314.5h113l-123 -486l137 267h87q2 -66 7 -134t10 -128l111 481h112q-21 -76 -43 -158t-45 -163.5t-46 -157.5t-45 -140h-106zM537 695l-54 -46l-74 69l-101 -69l-41 55l160 126z " />
<glyph unicode="&#x175;" d="M307 0q-5 53 -8.5 107.5t-7.5 124.5q-18 -37 -33 -66.5t-30.5 -55.5t-32 -52.5t-36.5 -57.5h-95q0 44 2 97.5t6.5 114t11.5 125.5t18 133h107q-17 -87 -32 -170.5t-26 -176.5q23 40 41 74t33 64t28 57.5t26 56.5h81q2 -56 4.5 -114t6.5 -138q16 48 29.5 91t25 85t22.5 84 t22 87h108q-44 -137 -87.5 -258t-91.5 -212h-92zM501 556l-54 -46l-74 69l-101 -69l-41 55l160 126z" />
<glyph unicode="&#x176;" d="M311 340q16 23 39 57.5t47 73t47.5 77.5t41.5 71h132q-31 -51 -61.5 -99t-62.5 -95t-67.5 -93.5t-75.5 -95.5l-57 -236h-123l56 235q-31 97 -51 189.5t-34 194.5h121q6 -72 19.5 -144.5t28.5 -134.5zM546 695l-54 -46l-74 69l-101 -69l-41 55l160 126z" />
<glyph unicode="&#x177;" d="M549 470q-26 -69 -51 -128t-51.5 -112t-55.5 -101.5t-62 -95.5q-25 -36 -53.5 -71.5t-62 -64.5t-73.5 -47t-87 -18q-62 0 -96 21l39 98q16 -7 30 -10.5t36 -3.5q73 0 121 72q-24 96 -43.5 208.5t-26.5 252.5h128q1 -36 3.5 -79t6.5 -87t9.5 -87t12.5 -78q46 70 81 151.5 t64 179.5h131zM501 556l-54 -46l-74 69l-101 -69l-41 55l160 126z" />
<glyph unicode="&#x178;" d="M311 340q16 23 39 57.5t47 73t47.5 77.5t41.5 71h132q-31 -51 -61.5 -99t-62.5 -95t-67.5 -93.5t-75.5 -95.5l-57 -236h-123l56 235q-31 97 -51 189.5t-34 194.5h121q6 -72 19.5 -144.5t28.5 -134.5zM295 677q-26 0 -43 16t-17 43q0 17 6.5 31t16.5 24t23 15.5t26 5.5 q25 0 43 -16.5t18 -43.5q0 -17 -7 -30.5t-17.5 -23.5t-23.5 -15.5t-25 -5.5zM493 677q-26 0 -43 16t-17 43q0 34 23 55t50 21q25 0 42.5 -16.5t17.5 -43.5q0 -17 -7 -30.5t-17.5 -23.5t-23.5 -15.5t-25 -5.5z" />
<glyph unicode="&#x179;" d="M547 519q-58 -65 -107 -121t-92 -106.5t-82 -97.5t-76 -93h269l-25 -101h-406l20 81q31 42 66.5 88t79 98.5t97 114.5t119.5 136h-250l25 101h386zM531 736l-174 -91l-45 67l158 118z" />
<glyph unicode="&#x17a;" d="M509 380q-20 -17 -52.5 -47.5t-71.5 -68t-81 -79.5t-80 -83h225l-25 -102h-375l21 81q27 32 61.5 69.5t72 76t74.5 75t69 66.5h-203l25 102h361zM495 597l-174 -91l-45 67l158 118z" />
<glyph unicode="&#x17b;" d="M547 519q-58 -65 -107 -121t-92 -106.5t-82 -97.5t-76 -93h269l-25 -101h-406l20 81q31 42 66.5 88t79 98.5t97 114.5t119.5 136h-250l25 101h386zM395 675q-28 0 -45.5 16t-17.5 45q0 38 23.5 58t52.5 20q27 0 46 -16t19 -46q0 -18 -7 -32t-18 -24t-25 -15.5t-28 -5.5z " />
<glyph unicode="&#x17c;" d="M509 380q-20 -17 -52.5 -47.5t-71.5 -68t-81 -79.5t-80 -83h225l-25 -102h-375l21 81q27 32 61.5 69.5t72 76t74.5 75t69 66.5h-203l25 102h361zM377 536q-28 0 -45.5 16t-17.5 45q0 38 23.5 58t52.5 20q27 0 46 -16t19 -46q0 -18 -7 -32t-18 -24t-25 -15.5t-28 -5.5z " />
<glyph unicode="&#x17d;" d="M547 519q-58 -65 -107 -121t-92 -106.5t-82 -97.5t-76 -93h269l-25 -101h-406l20 81q31 42 66.5 88t79 98.5t97 114.5t119.5 136h-250l25 101h386zM267 784l54 46l74 -69l101 69l41 -55l-160 -126z" />
<glyph unicode="&#x17e;" d="M509 380q-20 -17 -52.5 -47.5t-71.5 -68t-81 -79.5t-80 -83h225l-25 -102h-375l21 81q27 32 61.5 69.5t72 76t74.5 75t69 66.5h-203l25 102h361zM247 645l54 46l74 -69l101 69l41 -55l-160 -126z" />
<glyph unicode="&#x17f;" d="M278 26q-19 -94 -72 -144t-141 -50q-30 0 -55 5.5t-45 14.5l34 104q13 -5 28.5 -8.5t35.5 -3.5q22 0 38 7t26.5 18.5t17 27t9.5 33.5l94 467q12 57 33.5 94.5t51 60t65.5 32t76 9.5q39 0 72.5 -7.5t58.5 -19.5l-42 -100q-21 10 -42.5 16t-48.5 6q-18 0 -33.5 -2.5 t-28.5 -12t-23 -27.5t-16 -49z" />
<glyph unicode="&#x180;" d="M280 452q46 22 91 22q63 0 101 -42t38 -137q0 -68 -20.5 -125t-57.5 -97.5t-89 -63t-115 -22.5q-41 0 -88 8t-85 22l124 515h-55l20 83h54l15 58l126 21l-19 -79h127l-19 -83h-128zM196 97q11 -2 22.5 -3t22.5 -1q36 0 63.5 16t46.5 42.5t29 61t10 72.5q0 52 -18 69 t-44 17q-17 0 -37 -6t-35 -17z" />
<glyph unicode="&#x181;" d="M255 531q-39 -4 -57.5 -29t-18.5 -60q0 -7 1 -12l-89 -12q-2 8 -2 18q0 63 23.5 100.5t62 57.5t88.5 26t104 6q49 0 84 -12t57 -31.5t32 -44.5t10 -52q0 -55 -26.5 -95.5t-81.5 -63.5q19 -6 32.5 -18.5t22.5 -29.5t13 -36.5t4 -38.5q0 -49 -17.5 -88.5t-49 -67t-75.5 -42 t-96 -14.5q-35 0 -72.5 3.5t-73.5 14.5zM302 276l-44 -184q8 -2 20 -3t18 -1q25 0 46 9.5t36 25t23.5 37t8.5 45.5q0 29 -15.5 50t-48.5 21h-44zM359 371q21 0 37 9t27 23.5t16.5 33t5.5 38.5q0 35 -18 46.5t-44 11.5h-10t-10 -1l-38 -161h34z" />
<glyph unicode="&#x182;" d="M495 233q0 -62 -23 -107.5t-63.5 -75t-96 -44t-119.5 -14.5q-36 0 -76.5 4t-83.5 15l146 608h351l-24 -102h-229l-29 -118h51q100 0 148 -45.5t48 -120.5zM371 220q0 34 -21.5 54t-79.5 20h-48l-45 -193q18 -3 37 -3q75 0 116 31.5t41 90.5z" />
<glyph unicode="&#x183;" d="M547 687l-25 -102h-222l-31 -129q21 11 44.5 17t45.5 6q66 0 104.5 -44.5t38.5 -139.5q0 -68 -21 -125t-59 -97.5t-91 -63t-117 -22.5q-40 0 -88 8t-86 22l161 670h346zM182 97q11 -2 23 -3t23 -1q37 0 65 16t47.5 42.5t29.5 61t10 72.5q0 52 -17.5 71.5t-46.5 19.5 q-16 0 -36.5 -6t-34.5 -17z" />
<glyph unicode="&#x184;" d="M115 611q48 25 102 45.5t117 36.5l-57 -237q21 11 44.5 17t45.5 6q66 0 104.5 -44.5t38.5 -139.5q0 -68 -21 -125t-59 -97.5t-91 -63t-117 -22.5q-40 0 -88 8t-86 22l124 514zM190 97q11 -2 23 -3t23 -1q37 0 65 16t47.5 42.5t29.5 61t10 72.5q0 52 -17.5 71.5 t-46.5 19.5q-16 0 -36.5 -6t-34.5 -17z" />
<glyph unicode="&#x185;" d="M277 403q8 2 20.5 2h20.5q91 0 139 -45.5t48 -118.5q0 -56 -20 -101.5t-57 -78.5t-90.5 -51t-119.5 -18q-34 0 -76.5 4t-78.5 15l110 453l-60 81q51 25 103.5 46t114.5 37zM287 306h-14t-18 -1l-50 -205q6 -1 19 -1h19q36 0 62.5 10t44 28t26 42t8.5 52q0 35 -25 55 t-72 20z" />
<glyph unicode="&#x186;" d="M197 94q55 0 92 28t58.5 71.5t30.5 94.5t9 98q0 29 -5 54.5t-17 44t-32.5 29.5t-52.5 11q-43 0 -69 -10t-47 -21l-17 96q26 17 70 30t98 13q47 0 83.5 -18t61.5 -49.5t38 -74.5t13 -92q0 -79 -18 -153t-56.5 -131.5t-98 -92.5t-141.5 -35q-37 0 -66.5 6t-51.5 14 t-35.5 16t-18.5 13l49 93q20 -14 48.5 -24.5t74.5 -10.5z" />
<glyph unicode="&#x187;" d="M266 -13q-48 0 -83 15.5t-58.5 44t-34.5 69t-11 89.5q0 75 19.5 151.5t59.5 138t99.5 100t140.5 38.5q20 0 36 -2t34 -9q23 48 49 64t60 16q42 0 78 -20l-44 -93q-11 6 -20.5 8t-16.5 2q-19 0 -28.5 -13t-19.5 -35l-29 -61q-20 15 -46 25.5t-65 10.5q-46 0 -80.5 -29 t-57 -74t-34 -99.5t-11.5 -106.5q0 -27 4.5 -49t15.5 -38.5t29 -25.5t45 -9q44 0 74 11t50 23l13 -99q-25 -16 -68.5 -29.5t-99.5 -13.5z" />
<glyph unicode="&#x188;" d="M71 188q0 60 20.5 113.5t58 93.5t89 63.5t114.5 23.5q11 0 25 -1.5t25 -3.5q21 47 52 66t73 19q20 0 39 -4t39 -12l-45 -93q-22 8 -39 8q-40 0 -57 -39l-28 -66q-18 8 -37.5 13.5t-46.5 5.5q-33 0 -62 -12.5t-50 -35.5t-33 -54.5t-12 -70.5q0 -54 25.5 -79.5t79.5 -25.5 q26 0 50 5.5t43 13.5l13 -102q-25 -10 -57 -18.5t-74 -8.5q-55 0 -94 16t-63.5 43.5t-36 64t-11.5 77.5z" />
<glyph unicode="&#x189;" d="M529 409q0 -80 -19 -155.5t-60 -133.5t-105 -93t-155 -35q-33 0 -69 3.5t-71 11.5l63 263h-58l25 102h57l58 239q38 9 68.5 12t60.5 3q46 0 83.5 -14.5t64.5 -42.5t42 -68t15 -92zM234 270l-41 -170q5 -1 11 -1h8q54 0 91 29.5t60 75t33 99.5t10 102q0 49 -17.5 81.5 t-66.5 32.5h-15.5t-13.5 -1l-34 -146h61l-25 -102h-61z" />
<glyph unicode="&#x18a;" d="M255 531q-39 -4 -57.5 -29t-18.5 -60q0 -7 1 -12l-89 -12q-1 3 -1.5 7t-0.5 10q0 91 58 141t184 50q116 0 167.5 -48.5t51.5 -155.5q0 -41 -6.5 -89t-21 -96t-37.5 -92t-55 -78t-73.5 -54.5t-94.5 -20.5q-41 0 -76 4t-56 12zM279 88q28 0 51 16t41 42.5t31.5 61t22 71.5 t13 74t4.5 68q0 21 -2.5 41t-9 35.5t-19 25.5t-31.5 10h-8t-8 -1l-105 -441q7 -3 20 -3z" />
<glyph unicode="&#x18b;" d="M190 517l24 102h366l-147 -608q-48 -11 -85 -14t-72 -3q-52 0 -92 13t-67 36.5t-41 55t-14 67.5q0 64 23.5 108.5t64 72.5t95.5 40t118 12h40l29 118h-242zM280 98q14 0 28.5 1t23.5 3l46 192h-46q-27 0 -53 -6t-47 -19.5t-34 -35.5t-13 -54q0 -38 24 -59.5t71 -21.5z " />
<glyph unicode="&#x18c;" d="M251 94q28 0 47 12.5t33 29.5q2 14 4 27t6 30l43 178q-11 3 -23 4t-23 1q-35 0 -63 -16.5t-48 -43.5t-30.5 -62t-10.5 -72q0 -26 4.5 -43t13 -27t20.5 -14t27 -4zM213 585l24 102h345l-119 -495q-4 -18 -6 -35.5t-2 -35.5q0 -29 5.5 -56.5t14.5 -54.5l-108 -18l-5 10 t-6 13t-5 12.5t-3 8.5q-20 -15 -54 -31t-88 -16q-66 1 -104 47.5t-38 135.5q0 68 23 124.5t62.5 96.5t93 62t113.5 22q27 0 52 -7l28 115h-223z" />
<glyph unicode="&#x18d;" d="M513 322q0 -84 -44.5 -149.5t-127.5 -106.5q23 -20 32 -42.5t9 -47.5q0 -39 -15.5 -66t-42.5 -44.5t-64 -25.5t-80 -8q-40 0 -82 9.5t-73 23.5l42 89q23 -11 55 -18t64 -7q13 0 26.5 1.5t24 6.5t17.5 14t7 24q0 10 -6 18.5t-18 18t-30 22.5t-43 32q-40 32 -62.5 70.5 t-22.5 88.5q0 54 18 101t51 81.5t80 54.5t105 20q87 0 133.5 -45t46.5 -115zM320 377q-26 0 -48 -11t-37.5 -29.5t-24 -42.5t-8.5 -51q0 -38 19.5 -65.5t48.5 -45.5q53 23 87 70t34 107q0 35 -18.5 51.5t-52.5 16.5z" />
<glyph unicode="&#x18e;" d="M30 0l24 102h264l41 174h-220l25 102h220l33 139h-252l25 102h375l-149 -619h-386z" />
<glyph unicode="&#x18f;" d="M417 345q3 14 4 30.5t1 30.5q0 34 -9.5 57.5t-26.5 37t-40.5 19.5t-50.5 6q-37 0 -68 -6t-56 -17l-11 96q33 18 77 26t82 8q109 0 164 -57t55 -162q0 -44 -6.5 -93t-21 -96.5t-37.5 -90.5t-56 -75.5t-76.5 -52t-98.5 -19.5q-50 0 -84 17t-55 45.5t-30 66.5t-9 79 q0 38 5.5 76.5t13.5 73.5h334zM177 248q-2 -11 -3 -25.5t-1 -30.5q0 -19 3.5 -38t11.5 -34t22.5 -24t37.5 -9q27 0 50.5 13t42 34.5t32.5 51t23 62.5h-219z" />
<glyph unicode="&#x190;" d="M438 272h-80q-26 0 -55 -5t-53.5 -17t-41 -33.5t-16.5 -54.5q0 -35 29.5 -51.5t73.5 -16.5q50 0 90.5 7.5t78.5 27.5l18 -101q-48 -24 -100 -32.5t-108 -8.5q-40 0 -76.5 9.5t-65 29t-45.5 48t-17 67.5q0 70 38 116t106 75q-29 21 -40.5 50.5t-11.5 62.5q0 44 20 79 t53.5 59t76.5 37t90 13q53 0 99.5 -10t78.5 -34l-50 -91q-11 7 -22.5 12t-26.5 9t-35.5 6t-51.5 2q-20 0 -40 -5.5t-36 -17t-26.5 -29t-10.5 -41.5q0 -56 92 -56h90z" />
<glyph unicode="&#x191;" d="M185 18q-11 -43 -23.5 -77t-32.5 -58t-51.5 -37t-79.5 -13q-13 0 -34.5 2t-41.5 10l31 99q11 -5 19 -6t22 -1q26 0 40.5 16t22.5 47l148 619h380l-24 -102h-256l-37 -150h224l-24 -102h-224z" />
<glyph unicode="&#x192;" d="M278 26q-19 -94 -72 -144t-141 -50q-30 0 -55 5.5t-45 14.5l34 104q13 -5 28.5 -8.5t35.5 -3.5q22 0 38 7t26.5 18.5t17 27t9.5 33.5l68 338h-101l25 102h97l5 27q12 57 33.5 94.5t51 60t65.5 32t76 9.5q32 0 61.5 -5t55.5 -17l-43 -100q-20 9 -37.5 13t-38.5 4 q-18 0 -33.5 -2.5t-28.5 -12t-23 -27.5t-16 -49l-5 -27h170l-25 -102h-165z" />
<glyph unicode="&#x193;" d="M78 205q0 75 19.5 151.5t59 138t99 100t140.5 38.5q20 0 36 -2t34 -9q23 48 49 64t60 16q42 0 78 -20l-44 -93q-11 6 -20.5 8t-16.5 2q-19 0 -28 -13t-20 -35l-29 -61q-20 15 -46 25.5t-65 10.5q-46 0 -80.5 -29t-57 -74t-34 -99.5t-11.5 -106.5q0 -54 20 -88.5t68 -34.5 q13 0 25.5 1t23.5 3l54 226h123l-74 -309q-23 -8 -71.5 -18t-106.5 -10q-93 0 -139 57t-46 161z" />
<glyph unicode="&#x194;" d="M626 619q-94 -150 -166 -258t-125 -183q17 -62 29.5 -113.5t12.5 -93.5q0 -33 -13.5 -58.5t-35.5 -42.5t-49 -26t-55 -9q-24 0 -47 7t-40.5 21.5t-28 37t-10.5 52.5q0 27 7.5 50t23 50t39.5 60t57 79q-11 43 -23 96t-24 109.5t-22.5 113.5t-18.5 108h117q3 -33 8.5 -72.5 t12.5 -81.5t14 -83.5t15 -77.5q41 60 91.5 137t111.5 178h119zM280 -17q0 14 -4.5 44t-12.5 63q-18 -25 -31 -42t-21.5 -30t-12 -24t-3.5 -23q0 -19 12 -28.5t27 -9.5q17 0 31.5 12t14.5 38z" />
<glyph unicode="&#x195;" d="M174 673l102 21l-55 -231q12 7 32 11t34 4q24 0 40 -8t26 -21.5t14 -31t4 -36.5q0 -27 -8 -56l-22 -93q-8 -33 -14 -64t-6 -54q0 -17 5 -27.5t19 -10.5t23 6t16 22.5t14.5 45.5t18.5 74l58 246h97l-61 -255q-13 -54 -25.5 -96.5t-31.5 -72t-48 -44.5t-76 -15 q-32 0 -53 8.5t-33.5 23t-17.5 34.5t-5 43q0 32 7 66t15 66l25 105q3 13 3 24q0 14 -7 23t-26 9q-13 0 -20.5 -1.5t-15.5 -5.5l-92 -382h-97z" />
<glyph unicode="&#x196;" d="M388 517l-80 -332q-2 -12 -4 -22t-2 -18q0 -26 15 -37.5t50 -11.5q22 0 47 6t43 13l5 -101q-23 -9 -54 -18t-83 -9q-42 0 -70.5 9.5t-46.5 26t-25.5 40t-7.5 50.5q0 17 2.5 35.5t7.5 38.5l79 330h-116l24 102h375l-24 -102h-135z" />
<glyph unicode="&#x197;" d="M35 0l24 102h136l40 169h-90l24 99h90l36 147h-136l24 102h393l-24 -102h-134l-36 -147h90l-24 -99h-90l-40 -169h134l-24 -102h-393z" />
<glyph unicode="&#x198;" d="M393 540q41 48 75.5 69t75.5 21q22 0 44 -8t47 -42l-64 -83q-12 11 -21.5 15.5t-21.5 4.5q-16 0 -31 -12.5t-32 -32.5l-128 -150q24 -29 46 -67t40.5 -80t33 -87t23.5 -88h-129q-7 35 -20.5 75.5t-31 79.5t-37.5 73.5t-40 58.5l-68 -287h-124l149 619h123l-63 -260z" />
<glyph unicode="&#x199;" d="M181 525q12 48 29 80.5t39.5 52t52 27.5t66.5 8q18 0 34.5 -3t36.5 -10l-30 -92q-9 2 -17 3.5t-16 1.5q-24 0 -43 -13t-28 -52l-58 -238q18 15 42 37t49 46.5t48.5 50t40.5 46.5h140q-48 -58 -108 -114.5t-114 -101.5q18 -22 36.5 -53.5t36.5 -66.5t33 -70t25 -64h-133 q-8 25 -21 57t-28 64t-31 60t-31 46l-54 -227h-124z" />
<glyph unicode="&#x19a;" d="M345 315l-31 -127q-2 -10 -4 -21.5t-2 -20.5q0 -20 11 -35t44 -15q14 0 29 2.5t28 6.5t23 7t15 5l7 -97q-4 -2 -15.5 -7.5t-30 -10.5t-44 -9t-56.5 -4q-68 0 -102 35t-34 98q0 17 2.5 35.5t7.5 38.5l28 119h-128l20 85h129l46 191h-131l24 102h254l-71 -293h134l-20 -85 h-133z" />
<glyph unicode="&#x19b;" d="M400 563q-9 16 -22.5 23t-37.5 7q-14 0 -26 -2.5t-22 -4.5l5 96q30 11 80 11q56 0 86.5 -26t47.5 -68l119 39l9 -74l-109 -36q49 -254 58 -528h-132q-1 97 -4.5 185t-10.5 147q-21 -34 -44.5 -75t-46 -84.5t-43.5 -88t-37 -84.5h-130q31 76 66.5 142t72 124.5t73 110 t70.5 96.5l-1 19l-119 -39l-10 74z" />
<glyph unicode="&#x19c;" d="M144 -12q-57 0 -82 29t-25 80q0 35 11 85l104 437h100l-106 -442q-4 -15 -6 -26.5t-2 -20.5q0 -25 10 -33.5t24 -8.5q12 0 22.5 4t20.5 8q0 24 3.5 45.5t8.5 44.5l46 194h97l-50 -207q-7 -27 -7 -46q0 -43 35 -43q11 0 30 8l125 523h100l-145 -605q-23 -7 -41.5 -12 t-34.5 -8t-30.5 -4.5t-29.5 -1.5q-28 0 -49.5 8t-35.5 28q-19 -15 -43 -25.5t-50 -10.5z" />
<glyph unicode="&#x19d;" d="M181 619h104q14 -44 28.5 -96t27 -105t23.5 -105t18 -95l95 401h108l-148 -619h-99q-17 103 -38 211t-53 233l-101 -426q-10 -41 -22 -74.5t-32 -58.5t-50.5 -38.5t-75.5 -13.5q-13 0 -31 2t-38 10l31 99q11 -5 19 -6t22 -1q49 0 64 63z" />
<glyph unicode="&#x19e;" d="M153 455q35 9 77.5 17t99.5 8q85 0 126 -35.5t41 -100.5q0 -17 -2.5 -37t-7.5 -42l-104 -430h-123l100 414q3 16 7 33t4 34q0 23 -12.5 40.5t-45.5 17.5q-14 0 -28.5 -1.5t-29.5 -3.5l-88 -369h-123z" />
<glyph unicode="&#x19f;" d="M368 633q81 0 127 -52.5t46 -139.5q0 -39 -6 -88t-20 -99.5t-37 -98.5t-56 -85.5t-78 -60t-102 -22.5q-82 0 -128 52.5t-46 139.5q0 39 6 88t20.5 99.5t37 98.5t56 85.5t78 60t102.5 22.5zM354 526q-25 0 -46.5 -13.5t-38.5 -37t-30.5 -54t-23.5 -63.5h198q2 20 3.5 38.5 t1.5 35.5q0 39 -13.5 66.5t-50.5 27.5zM255 94q25 0 46 13.5t38 36t30.5 53t23.5 63.5h-197q-2 -20 -3.5 -38t-1.5 -34q0 -20 3 -37t10.5 -29.5t19.5 -20t31 -7.5z" />
<glyph unicode="&#x1a0;" d="M357 633q55 0 94 -30q23 27 29 56.5t9 55.5h113q-5 -54 -27.5 -100.5t-69.5 -82.5q17 -40 17 -91q0 -39 -6 -88t-19.5 -99.5t-36 -98.5t-54.5 -85.5t-75.5 -60t-99.5 -22.5q-77 0 -120.5 52t-43.5 140q0 39 6 88t19.5 99.5t35.5 98.5t54 85.5t75.5 60t99.5 22.5zM245 94 q39 0 68 35t48 86.5t28.5 110t9.5 106.5q0 39 -11.5 66.5t-44.5 27.5q-39 0 -68 -35t-47.5 -86.5t-28 -110.5t-9.5 -106q0 -39 11.5 -66.5t43.5 -27.5z" />
<glyph unicode="&#x1a1;" d="M221 -13q-80 0 -118 48t-38 128q0 60 17.5 117t51 102t83.5 72.5t116 27.5q59 0 95 -32q17 19 26 42.5t16 71.5h111q-6 -118 -103 -190q4 -14 6.5 -31.5t2.5 -37.5q0 -59 -16.5 -116t-50 -102t-83.5 -72.5t-116 -27.5zM246 94q28 0 50 18t37 45t23 58.5t8 59.5 q0 47 -11.5 74t-48.5 27q-27 0 -48.5 -18t-36.5 -45t-23 -58.5t-8 -59.5q0 -47 11.5 -74t46.5 -27z" />
<glyph unicode="&#x1a2;" d="M290 631q56 0 81 -40q29 24 53.5 32t50.5 8q25 0 41.5 -9t26.5 -24t14 -35.5t4 -43.5q0 -20 -3 -42.5t-7 -44.5t-9 -43t-9 -38l-84 -351h-93l97 403q15 66 15 94q0 23 -7.5 31.5t-21.5 8.5t-25 -7t-19 -15q1 -7 1 -13.5v-14.5q0 -26 -3.5 -61t-10 -74t-16.5 -80.5 t-23 -81.5q-11 -32 -26.5 -68t-37 -66t-51.5 -50t-69 -20q-51 0 -78.5 34.5t-27.5 109.5q0 26 3.5 61t10 74t16.5 80.5t23 81.5q11 32 26.5 68t37 66t51.5 50t69 20zM171 80q16 0 29.5 14.5t25.5 39.5t23 58.5t22 70.5q4 17 10 43.5t11.5 56.5t9 60t3.5 55q0 26 -6 42.5 t-20 16.5q-16 0 -29.5 -14.5t-26 -39.5t-23.5 -58t-21 -70q-5 -18 -11 -44.5t-11 -56.5t-8.5 -60t-3.5 -55q0 -26 6 -42.5t20 -16.5z" />
<glyph unicode="&#x1a3;" d="M263 482q49 0 76 -30q28 16 53.5 22t45.5 6q29 0 48 -8t30.5 -22t16 -32t4.5 -39q0 -25 -4.5 -51.5t-10.5 -50.5l-107 -442h-92l104 430q2 11 8 33.5t6 44.5q0 19 -7.5 32.5t-28.5 13.5q-20 0 -36 -9q2 -9 2 -17.5v-16.5q0 -31 -4.5 -69.5t-14.5 -78t-26 -77.5t-40 -67 t-55.5 -47t-71.5 -18q-31 0 -51.5 11.5t-33 30t-18 43.5t-5.5 52q0 31 4.5 69t14.5 78t26.5 77.5t40 66.5t55 47t71.5 18zM176 82q28 0 48 28t32.5 66.5t18 79.5t5.5 67q0 38 -9 52t-25 14q-19 0 -34 -13t-26.5 -34t-19.5 -47t-13.5 -53t-8 -51.5t-2.5 -42.5q0 -38 9 -52 t25 -14z" />
<glyph unicode="&#x1a4;" d="M374 626q85 0 137 -38t52 -123q0 -45 -13.5 -90t-43 -81t-75 -59t-108.5 -23h-28l-51 -212h-108l127 531q-40 -4 -58 -29t-18 -60q0 -7 1 -12l-90 -12q-2 8 -2 18q0 63 23.5 100.5t62 57.5t88.5 26t104 6zM390 533h-9.5t-9.5 -1l-53 -224h26q27 0 48 14t34.5 36t20.5 49 t7 52q0 35 -17 54.5t-47 19.5z" />
<glyph unicode="&#x1a5;" d="M185 98q5 -2 11 -2h13q41 0 74 16.5t55.5 44.5t34.5 65.5t12 78.5q0 15 -3 28.5t-11 24t-23 17t-39 6.5q-20 0 -34 -3t-25 -5zM273 468q17 5 35.5 8.5t35.5 3.5q81 0 121.5 -47.5t40.5 -122.5q0 -62 -18 -120t-54.5 -102.5t-92.5 -71t-131 -26.5q-20 0 -31 1t-19 3 l-39 -159h-123l166 690q12 48 29 80.5t39.5 52t52 27.5t66.5 8q18 0 34.5 -3t36.5 -10l-30 -92q-9 2 -17 3.5t-16 1.5q-24 0 -43 -13t-28 -52z" />
<glyph unicode="&#x1a6;" d="M280 330q26 0 49.5 7t41.5 22t28.5 38t10.5 54q0 35 -21 54t-72 19q-11 0 -20 -1t-17 -3l-46 -190h46zM305 623q8 1 16 1.5t15 0.5q99 0 148 -43t49 -117q0 -35 -10 -68.5t-29.5 -62t-48 -49.5t-66.5 -31q26 -51 57 -140.5t60 -210.5h-121q-13 58 -26 106t-26.5 87.5 t-27 71.5t-26.5 60h-59l-55 -228h-121l166 693h121z" />
<glyph unicode="&#x1a7;" d="M187 158q0 -21 8.5 -34t22.5 -20.5t31 -10.5t35 -3q52 0 95 10t73 23l10 -100q-50 -20 -98 -28t-99 -8q-44 0 -81 8.5t-64 27.5t-42 49t-15 72q0 53 19 89t49.5 61t69.5 41.5t78 30.5q29 10 55.5 20.5t46.5 22.5t32 27.5t12 36.5q0 34 -25 45.5t-62 11.5q-31 0 -71 -8.5 t-71 -21.5l-14 91q44 23 95.5 32.5t97.5 9.5q37 0 68.5 -9t54.5 -27t36 -44t13 -59q0 -54 -18.5 -90t-49 -60.5t-70.5 -41.5t-82 -33q-30 -12 -55.5 -22.5t-44.5 -23.5t-29.5 -28.5t-10.5 -36.5z" />
<glyph unicode="&#x1a8;" d="M274 88q38 0 76 6.5t75 18.5l5 -99q-23 -8 -68 -17.5t-116 -9.5q-46 0 -79 10t-54.5 27t-31.5 38.5t-10 45.5q0 40 17 68t43.5 47t59 31t63.5 21q24 7 45 13.5t36.5 15t25 18.5t9.5 24q0 17 -15 26.5t-59 9.5q-40 0 -72.5 -7.5t-58.5 -17.5l-9 94q16 6 38 12t46 10 t49 6.5t48 2.5q78 0 116.5 -32.5t38.5 -89.5q0 -43 -17 -71.5t-42.5 -47t-55.5 -29.5t-56 -19q-62 -19 -94.5 -33t-32.5 -38q0 -20 17.5 -27t62.5 -7z" />
<glyph unicode="&#x1a9;" d="M597 619l-25 -102h-276q13 -26 30 -55l34 -58t33 -55.5t28 -46.5q-17 -15 -45.5 -41t-60.5 -54.5l-64 -57t-54 -47.5h279l-25 -102h-432l21 88q26 24 57 52.5t64 58.5l66 60t63 57q-15 24 -32.5 54.5t-35.5 62t-35 61t-30 50.5l18 75h422z" />
<glyph unicode="&#x1aa;" d="M341 519q6 21 8 29.5t2 15.5q0 18 -8.5 32t-35.5 14q-15 0 -27 -7t-20.5 -17.5t-13 -23.5t-4.5 -25q0 -18 8 -30.5t31 -12.5q16 0 31 5.5t27 16.5zM423 -164q-14 -2 -32.5 -3t-38.5 -1q-68 0 -102 35t-34 98q0 17 2.5 35.5t7.5 38.5l90 375q-17 -8 -32.5 -11t-27.5 -3 q-31 0 -52.5 9.5t-35 26t-20 38.5t-6.5 46q0 32 12.5 63.5t36.5 57t59 41t80 15.5q74 0 106 -36.5t32 -96.5q0 -36 -11 -78l-110 -456q-2 -9 -4 -20.5t-2 -20.5q0 -20 11.5 -35t46.5 -15h49z" />
<glyph unicode="&#x1ab;" d="M345 96q32 0 65.5 5t51.5 11q0 -48 -5 -98t-24 -90t-55 -65.5t-99 -25.5q-12 0 -32.5 3t-42.5 11l27 87q25 -10 50 -10q35 0 50.5 20t17.5 51q-6 -1 -22 -2t-24 -1q-72 0 -111 33t-39 99q0 16 2 32.5t7 35.5l42 176h-108l25 102h107l28 118l129 20l-34 -138h189l-25 -102 h-188l-44 -183q-5 -25 -5 -39q0 -30 20.5 -40t46.5 -10z" />
<glyph unicode="&#x1ac;" d="M609 619l-24 -102h-155l-124 -517h-123l124 517h-40q-40 0 -58 -20t-18 -55q0 -7 1 -12l-91 -12q-1 6 -1.5 10.5t-0.5 10.5q0 63 21 99t51.5 54t66.5 22.5t66 4.5h305z" />
<glyph unicode="&#x1ad;" d="M540 470l-25 -102h-188l-44 -183q-5 -25 -5 -39q0 -30 20.5 -40t46.5 -10q27 0 55.5 6.5t55.5 17.5l7 -101q-31 -14 -72.5 -22t-78.5 -8q-80 0 -119.5 34.5t-39.5 100.5q0 16 2 32.5t7 35.5l42 176h-108l25 102h107l6 27q13 57 35 94.5t51 60t64 32t75 9.5q39 0 72 -7.5 t59 -19.5l-43 -100q-20 10 -41.5 16t-49.5 6q-17 0 -32 -3t-27.5 -12.5t-22.5 -27.5t-17 -48l-6 -27h189z" />
<glyph unicode="&#x1ae;" d="M293 8q-5 -20 -5 -31q0 -37 37 -37q28 0 52 7l-6 -102q-24 -8 -45.5 -10t-34.5 -2q-128 0 -128 114q0 15 1.5 32t6.5 36l121 502h-163l24 102h450l-24 -102h-164z" />
<glyph unicode="&#x1af;" d="M219 -13q-42 0 -71.5 11t-48 30.5t-26.5 46.5t-8 60q0 21 3.5 43.5t8.5 45.5l94 395h116l-95 -396q-3 -14 -8 -36t-5 -41q0 -25 10 -43t40 -18q38 0 60 31t41 108l94 395h52q26 0 42 6t25.5 18t13.5 30t6 42h102q-3 -32 -12 -59.5t-26 -49t-42.5 -36t-61.5 -18.5 l-78 -328q-13 -54 -28 -98t-39.5 -75t-62.5 -47.5t-96 -16.5z" />
<glyph unicode="&#x1b0;" d="M414 191q-7 -31 -7 -74q0 -29 6 -56t16 -53l-106 -16q-4 7 -9.5 21t-7.5 23q-22 -21 -56 -34t-63 -13q-35 0 -59.5 11t-39.5 30t-22 44.5t-7 53.5q0 26 4 54.5t11 55.5l56 232h115l-55 -224q-3 -13 -8 -37t-5 -49q0 -26 9 -45t35 -19q23 0 39 10.5t30 24.5q2 18 4 31.5 t6 30.5l67 277h57q21 0 35 7.5t23 20.5t13.5 30t7.5 36h102q-3 -32 -12 -59.5t-25.5 -49t-42 -35t-60.5 -17.5z" />
<glyph unicode="&#x1b1;" d="M535 365q0 -66 -15.5 -133.5t-50.5 -122t-90.5 -89t-134.5 -34.5q-39 0 -72.5 11.5t-58 35.5t-38.5 60.5t-14 85.5q0 95 38 181t106 157h-85l24 102h210l-21 -87q-33 -30 -60.5 -68.5t-47.5 -82.5t-31 -92t-11 -97q0 -43 17 -71t60 -28q45 0 75.5 27t49.5 68t27 89t8 89 q0 45 -9.5 92t-28.5 74l21 87h210l-24 -102h-93q20 -35 29.5 -75.5t9.5 -76.5z" />
<glyph unicode="&#x1b2;" d="M415 624q69 0 99.5 -44.5t30.5 -117.5q0 -86 -21 -171t-60.5 -152.5t-98 -109.5t-133.5 -42q-45 0 -76.5 10.5t-50.5 29.5t-27.5 46t-8.5 61q0 46 14 105l91 380h123l-88 -368q-17 -70 -17 -105q0 -27 11.5 -39.5t39.5 -12.5q31 0 56 18.5t45 48.5t35 68.5t24.5 78 t14.5 77t5 66.5q0 31 -11 48.5t-39 17.5q-16 0 -31 -4l11 105q14 3 31.5 4.5t30.5 1.5z" />
<glyph unicode="&#x1b3;" d="M403 527q18 32 35 52t33.5 31.5t34.5 15.5t38 4q22 0 44 -8t47 -42l-64 -83q-12 11 -20 15.5t-20 4.5q-15 0 -27.5 -14.5t-26.5 -37.5l-144 -236l-54 -229h-124l57 235q-29 96 -48 194t-31 190h118q3 -31 7.5 -67.5t9.5 -74t11.5 -74t14.5 -67.5z" />
<glyph unicode="&#x1b4;" d="M234 470q0 -29 2 -68t5.5 -82.5t8.5 -88.5t12 -86l98 227q23 55 55.5 80t88.5 25q19 0 37 -4t38 -14l-32 -97q-11 6 -22.5 7t-18.5 1q-14 0 -27.5 -9.5t-24.5 -34.5l-111 -247q-22 -48 -51.5 -92.5t-67 -79t-82 -55t-95.5 -20.5q-27 0 -49 6t-35 14l36 97q16 -8 32 -10 t27 -2q35 0 65 20t50 50q-29 125 -41.5 236.5t-18.5 226.5h121z" />
<glyph unicode="&#x1b5;" d="M459 101l-25 -101h-406l19 79q61 83 148 188h-96l24 98h154q30 35 63.5 73t71.5 80h-252l25 101h386l-24 -98q-38 -43 -72 -81.5t-66 -74.5h103l-24 -98h-163q-37 -44 -71 -85t-66 -81h271z" />
<glyph unicode="&#x1b6;" d="M449 102l-25 -102h-375l20 78q23 27 50.5 57.5t58.5 62.5h-60l19 79h118q25 25 49 48t46 43h-206l25 102h361l-20 -87q-20 -17 -50 -44.5t-65 -61.5h79l-19 -79h-141q-24 -24 -47 -48.5t-46 -47.5h228z" />
<glyph unicode="&#x1b7;" d="M232 353q18 16 41.5 37.5t47 44t45.5 44t39 38.5h-237l24 102h380l-19 -77q-14 -14 -35 -35.5t-47 -46.5t-54 -51.5t-55 -50.5q28 -6 51.5 -16t40 -27t25.5 -42.5t9 -61.5q0 -56 -20.5 -98.5t-56 -71t-83.5 -43t-103 -14.5q-64 0 -114 15.5t-82 35.5l58 96 q11 -7 28.5 -14.5t37.5 -13.5t40.5 -10t38.5 -4q55 0 92.5 30t37.5 87q0 80 -107 80h-39z" />
<glyph unicode="&#x1b8;" d="M411 285h-17q-90 0 -139 -29.5t-49 -82.5q0 -42 25.5 -63t80.5 -21q38 0 76 7.5t71 23.5l13 -99q-51 -22 -95.5 -29.5t-82.5 -7.5q-47 0 -86 10.5t-67.5 31.5t-44.5 52t-16 72q0 35 10 67.5t35 60.5t67.5 50t106.5 36q-14 21 -29 47.5l-30 53t-27.5 50t-21.5 40.5l14 64 h380l-24 -102h-228q17 -32 42 -77t53 -87z" />
<glyph unicode="&#x1b9;" d="M384 136h-26q-36 0 -68.5 -6.5t-57 -21t-39 -36.5t-14.5 -52q0 -37 26 -58.5t80 -21.5q20 0 41.5 2.5t41 6.5t36 10t28.5 12l5 -97q-35 -21 -81.5 -30t-94.5 -9q-39 0 -76 9t-66 29.5t-47 54t-18 82.5q0 35 12.5 67t39 59t68 47t98.5 32q-30 49 -57.5 99t-44.5 82l18 74 h359l-25 -102h-216q20 -40 44.5 -82.5t50.5 -81.5z" />
<glyph unicode="&#x1ba;" d="M6 -170q-7 20 -8.5 33t-1.5 28q0 33 12 56.5t34.5 40.5t54.5 28.5t71 21.5l65 16q17 4 33 8.5t28 12t19.5 19.5t7.5 30q0 15 -5 27t-20 20.5t-41.5 13t-69.5 3.5l14 65q18 13 38.5 29t40.5 31.5t38 30t30 24.5h-207l24 102h360l-19 -81q-17 -13 -39.5 -31.5t-47.5 -38.5 t-49.5 -39.5t-43.5 -32.5q37 -6 60.5 -18t37.5 -28.5t19.5 -36.5t5.5 -41q0 -57 -36.5 -98.5t-114.5 -60.5l-117 -27q-45 -11 -60 -26t-15 -35q0 -8 1 -12.5t3 -12.5z" />
<glyph unicode="&#x1bb;" d="M171 558q35 41 88 57.5t110 16.5q41 0 71.5 -10.5t51 -29.5t30.5 -44t10 -55q0 -35 -15.5 -70t-53.5 -77h62l-21 -89h-136q-44 -32 -86.5 -66.5t-80.5 -88.5h268l-25 -102h-398q5 45 20.5 82.5t37.5 68.5t50 57t58 49h-79l20 89h165q49 41 68.5 68t19.5 56q0 26 -16 41.5 t-48 15.5q-29 0 -61 -10.5t-70 -43.5z" />
<glyph unicode="&#x1bc;" d="M294 387q98 -6 149 -52.5t51 -120.5q0 -57 -18.5 -100t-53 -72t-82.5 -43.5t-108 -14.5q-53 0 -95 8t-89 31l45 102q21 -11 57 -23.5t84 -12.5q38 0 63.5 9.5t41.5 25.5t22.5 36.5t6.5 43.5q0 20 -9 39.5t-32.5 34.5t-65.5 23t-108 6q11 31 20 58t17.5 52t16 49.5 t15.5 50.5h-79l28 102h401l-28 -102h-210q-8 -29 -18.5 -65t-21.5 -65z" />
<glyph unicode="&#x1bd;" d="M285 297q43 -3 76 -10.5t55.5 -23.5t34 -41.5t11.5 -63.5q0 -45 -18.5 -78t-51 -54t-76.5 -31.5t-95 -10.5q-42 0 -82.5 7.5t-77.5 22.5l44 102q24 -12 58 -19.5t67 -7.5q50 0 78 15t28 46q0 42 -35 55.5t-110 13.5h-21t-23 -1q8 22 14.5 41t12.5 36.5l12 35t12 37.5h-64 l28 102h356l-28 -102h-183q-11 -41 -22 -71z" />
<glyph unicode="&#x1be;" d="M110 368l25 102h93l28 118l129 20l-34 -138h179l-25 -102h-178q-5 -21 -6 -35.5t3 -24.5t13.5 -16.5t25.5 -12.5q30 -12 52 -24t36.5 -27t21 -35t6.5 -48q0 -29 -12 -57t-38 -50.5t-66.5 -36.5t-98.5 -14q-41 0 -72 5t-53.5 12t-38 14.5t-24.5 12.5l45 97 q20 -11 55.5 -24t84.5 -13q52 0 72.5 14t20.5 33q0 9 -3.5 16t-12 13t-23.5 13t-38 16q-33 13 -52 27t-26.5 33.5t-5.5 46.5t11 65h-94z" />
<glyph unicode="&#x1bf;" d="M186 79q45 11 80 35.5t58.5 54.5t35.5 62t12 59q0 33 -16 54.5t-51 21.5q-27 0 -52 -11zM140 443q45 17 98.5 27t98.5 10q87 0 128 -44t41 -125q0 -57 -21.5 -112.5t-65 -103.5t-109.5 -85t-155 -57l-27 -118h-132z" />
<glyph unicode="&#x1c0;" d="M333 699h123l-207 -864h-124z" />
<glyph unicode="&#x1c1;" d="M436 699h123l-207 -864h-123zM239 699h124l-208 -864h-123z" />
<glyph unicode="&#x1c2;" d="M104 408h163l70 291h123l-70 -291h164l-23 -96h-164l-20 -81h165l-24 -96h-163l-72 -300h-124l73 300h-163l23 96h162l20 81h-163z" />
<glyph unicode="&#x1c3;" d="M405 452q-9 -36 -17 -65t-17 -55t-19 -51.5t-22 -55.5h-102q3 34 6.5 63.5t7.5 57.5t9.5 55.5t13.5 57.5l38 160h142zM255 155q32 0 53 -18.5t21 -55.5q0 -20 -7.5 -37t-20 -29.5t-28.5 -19.5t-34 -7q-31 0 -52.5 19t-21.5 56q0 21 7.5 38t20 29t29 18.5t33.5 6.5z" />
<glyph unicode="&#x1c4;" d="M450 772l39 38l65 -67l106 68l29 -47l-149 -101zM610 541q-23 -42 -51.5 -97t-58.5 -115t-60 -121t-55 -115h117l-22 -93h-203l19 76q34 72 62 128.5t53.5 107.5l51 102t55.5 112h-97l23 93h185zM247 626q67 0 95.5 -39.5t28.5 -130.5q0 -47 -8 -100t-23.5 -104.5 t-38.5 -98t-54 -82t-69 -56.5t-84 -21q-4 0 -13.5 0.5t-22 1.5t-26 3t-24.5 5l146 611q25 5 47 8t46 3zM115 88q4 -1 10 -1q33 0 61.5 35t50.5 88t34.5 116t12.5 120q0 55 -10 74.5t-39 19.5q-8 0 -12 -1z" />
<glyph unicode="&#x1c5;" d="M433 622l39 38l52 -55l82 55l30 -47l-125 -89zM580 388q-19 -29 -41 -65t-45 -75t-46 -79t-43 -76h104l-22 -93h-194l17 71q27 48 48.5 88t42 76t40.5 70.5t43 71.5h-91l21 93h185zM247 626q67 0 95.5 -39.5t28.5 -130.5q0 -47 -8 -100t-23.5 -104.5t-38.5 -98t-54 -82 t-69 -56.5t-84 -21q-4 0 -13.5 0.5t-22 1.5t-26 3t-24.5 5l146 611q25 5 47 8t46 3zM115 88q4 -1 10 -1q33 0 61.5 35t50.5 88t34.5 116t12.5 120q0 55 -10 74.5t-39 19.5q-8 0 -12 -1z" />
<glyph unicode="&#x1c6;" d="M442 622l39 38l52 -55l82 55l30 -47l-125 -89zM580 388q-19 -29 -41 -65t-45 -75t-46 -79t-43 -76h104l-22 -93h-194l17 71q27 48 48.5 88t42 76t40.5 70.5t43 71.5h-91l21 93h185zM247 14q-27 -12 -54.5 -19.5t-52.5 -7.5q-23 0 -43.5 7t-35.5 24.5t-23.5 45.5t-8.5 70 q0 44 12.5 103.5t36.5 113.5t58.5 91.5t78.5 37.5q24 0 53 -17l50 211l92 19zM245 368q-19 19 -32 19q-15 0 -28 -14.5t-24 -38t-19.5 -51.5t-15 -55.5t-9.5 -51t-3 -36.5q0 -35 10.5 -47.5t29.5 -12.5q10 0 23 5z" />
<glyph unicode="&#x1c7;" d="M231 0h-234l148 619h87l-128 -533h148zM292 74q21 0 39.5 3t34 12t27 26t18.5 45l110 459h87l-105 -440q-12 -50 -25.5 -86t-38 -59.5t-64.5 -34.5t-104 -11z" />
<glyph unicode="&#x1c8;" d="M273 0h-260l149 619h87l-128 -533h173zM196 -63q19 -7 36 -11t31 -4q31 0 51 20t32 71l110 457h88l-107 -446q-23 -94 -64 -142t-117 -48q-20 0 -41.5 4t-45.5 14zM596 612q0 -15 -6.5 -30.5t-18 -28t-27.5 -20t-34 -7.5q-23 0 -38.5 13.5t-15.5 36.5q0 19 8 35.5 t20.5 27.5t27.5 17.5t30 6.5q23 0 38.5 -14t15.5 -37z" />
<glyph unicode="&#x1c9;" d="M210 -69q38 -13 64 -13q30 0 51 22t33 73l110 457h87l-107 -446q-23 -94 -63.5 -142t-116.5 -48q-20 0 -41.5 4t-46.5 14zM607 612q0 -15 -6.5 -30.5t-17.5 -28t-27 -20t-34 -7.5q-23 0 -38.5 13.5t-15.5 36.5q0 19 8 35.5t20 27.5t27.5 17.5t30.5 6.5q23 0 38 -14 t15 -37zM238 -9q-46 1 -76 9t-48 21.5t-25 32t-7 41.5q0 20 5 44.5t12 52.5l116 486l92 15l-127 -528q-21 -87 79 -90z" />
<glyph unicode="&#x1ca;" d="M305 72q18 0 34.5 3.5t30 13t24 26.5t17.5 45l110 459h87l-105 -440q-11 -44 -22 -79t-33.5 -60.5t-61 -39t-102.5 -13.5zM178 0q-1 58 -2 103.5t-1 90t1 91.5t3 108l-95 -393h-87l148 619h75l7 -363l86 363h88l-148 -619h-75z" />
<glyph unicode="&#x1cb;" d="M198 -63q20 -7 37 -11t31 -4q30 0 50.5 20t32.5 71l110 457h88l-108 -446q-23 -94 -63.5 -142t-116.5 -48q-20 0 -41.5 4t-46.5 14zM598 612q0 -15 -6.5 -30.5t-17.5 -28t-27 -20t-34 -7.5q-23 0 -38.5 13.5t-15.5 36.5q0 19 8 35.5t20 27.5t27.5 17.5t30.5 6.5 q23 0 38 -14t15 -37zM187 0q-1 58 -2 103.5t-1 90t1 91.5t3 108l-95 -393h-87l148 619h75l7 -363l86 363h88l-148 -619h-75z" />
<glyph unicode="&#x1cc;" d="M217 -63q20 -7 37 -11t31 -4q30 0 50.5 20t32.5 71l110 457h87l-107 -446q-23 -94 -63.5 -142t-116.5 -48q-20 0 -41.5 4t-46.5 14zM617 612q0 -15 -6.5 -30.5t-17.5 -28t-27 -20t-34 -7.5q-23 0 -38.5 13.5t-15.5 36.5q0 19 8 35.5t20 27.5t27.5 17.5t30.5 6.5 q23 0 38 -14t15 -37zM113 455q37 10 75.5 17.5t73.5 7.5q62 0 87.5 -30t25.5 -80q0 -16 -2.5 -33t-6.5 -35l-72 -302h-88l71 294q2 11 4.5 24.5t2.5 27.5q0 20 -10 35t-39 15q-25 0 -50 -10l-93 -386h-87z" />
<glyph unicode="&#x1cd;" d="M356 144h-176q-15 -34 -31 -70t-30 -74h-125q85 186 164 341.5t154 277.5h131q14 -118 22.5 -249.5t10.5 -280.5v-89h-124zM352 502q-13 -25 -25.5 -49t-27 -53.5t-32.5 -67.5t-41 -89h132q1 51 0.5 89t-1.5 67.5t-2.5 54t-2.5 48.5zM269 784l54 46l74 -69l101 69l41 -55 l-160 -126z" />
<glyph unicode="&#x1ce;" d="M251 94q28 0 47 12.5t33 29.5q2 14 4 27t6 30l43 178q-11 3 -23 4t-23 1q-35 0 -63 -16.5t-48 -43.5t-30.5 -62t-10.5 -72q0 -26 4.5 -43t13 -27t20.5 -14t27 -4zM206 -11q-66 1 -104 47.5t-38 135.5q0 68 23 125t63 97.5t93.5 63t113.5 22.5q41 0 83 -8t85 -25l-62 -255 q-4 -18 -6 -35.5t-2 -35.5q0 -29 5.5 -56.5t14.5 -54.5l-108 -18l-5 10t-6 13t-5 12.5t-3 8.5q-20 -15 -54 -31t-88 -16zM267 645l54 46l74 -69l101 69l41 -55l-160 -126z" />
<glyph unicode="&#x1cf;" d="M35 0l24 102h136l100 415h-136l24 102h393l-24 -102h-134l-100 -415h134l-24 -102h-393zM274 784l54 46l74 -69l101 69l41 -55l-160 -126z" />
<glyph unicode="&#x1d0;" d="M459 13q-37 -14 -69.5 -19t-60.5 -5q-71 0 -105 34.5t-34 97.5q0 33 11 77l40 170h-130l25 102h253l-68 -287q-6 -21 -6 -37q0 -50 51 -50q17 0 40 3.5t51 13.5zM213 645l54 46l74 -69l101 69l41 -55l-160 -126z" />
<glyph unicode="&#x1d1;" d="M367 633q81 0 127 -52.5t46 -139.5q0 -39 -6 -88t-20 -99.5t-37 -98.5t-56 -85.5t-77.5 -60t-102.5 -22.5q-82 0 -128 52.5t-46 139.5q0 39 6 88t20.5 99.5t37 98.5t56 85.5t78 60t102.5 22.5zM255 94q41 0 71.5 35t50.5 86.5t30 110t10 106.5q0 39 -13.5 66.5 t-50.5 27.5q-41 0 -72 -35t-51 -86.5t-30 -110.5t-10 -106q0 -39 13.5 -66.5t51.5 -27.5zM283 784l54 46l74 -69l101 69l41 -55l-160 -126z" />
<glyph unicode="&#x1d2;" d="M256 94q30 0 53 18t39.5 45t25 58.5t8.5 59.5q0 47 -13.5 74t-55.5 27q-29 0 -52.5 -18t-39.5 -45t-24.5 -58.5t-8.5 -59.5q0 -47 13.5 -74t54.5 -27zM231 -13q-84 0 -125 48t-41 128q0 60 18 117t53 102t87 72.5t120 27.5q73 0 117.5 -44.5t44.5 -132.5q0 -59 -17 -116 t-51.5 -102t-86 -72.5t-119.5 -27.5zM247 645l54 46l74 -69l101 69l41 -55l-160 -126z" />
<glyph unicode="&#x1d3;" d="M237 -13q-88 0 -129 42t-41 117q0 41 12 92l92 381h123l-91 -380q-5 -23 -9 -43.5t-4 -37.5q0 -30 14 -47t51 -17q22 0 38 6.5t28 22t21.5 41.5t18.5 65l94 390h123l-96 -399q-13 -55 -29.5 -98t-43.5 -73t-68.5 -46t-103.5 -16zM275 784l54 46l74 -69l101 69l41 -55 l-160 -126z" />
<glyph unicode="&#x1d4;" d="M221 -11q-81 0 -113 38t-32 104q0 46 14 107l56 232h123l-53 -224q-8 -30 -12 -54.5t-4 -43.5q0 -52 50 -52q28 0 44.5 11.5t31.5 28.5q2 14 3.5 27t6.5 30l66 277h123l-67 -278q-4 -18 -6.5 -35.5t-2.5 -35.5q0 -29 6 -56.5t15 -54.5l-108 -18l-5 10t-6 13t-5 12.5 t-3 8.5q-20 -15 -52 -31t-70 -16zM239 645l54 46l74 -69l101 69l41 -55l-160 -126z" />
<glyph unicode="&#x1d5;" d="M237 -13q-88 0 -129 42t-41 117q0 41 12 92l83 341h123l-82 -340q-5 -23 -9 -43.5t-4 -37.5q0 -30 14 -47t51 -17q22 0 38 6.5t28 22t21.5 41.5t18.5 65l85 350h123l-87 -359q-13 -55 -29.5 -98t-43.5 -73t-68.5 -46t-103.5 -16zM302 621q-22 0 -36 13.5t-14 35.5 q0 29 18.5 46.5t41.5 17.5q20 0 35 -14t15 -37q0 -13 -5.5 -24.5t-14.5 -19.5t-19.5 -13t-20.5 -5zM466 621q-21 0 -35.5 13.5t-14.5 35.5q0 29 18.5 46.5t41.5 17.5q21 0 36 -14t15 -37q0 -26 -19.5 -44t-41.5 -18zM307 830h232l-17 -71h-232z" />
<glyph unicode="&#x1d6;" d="M221 -11q-81 0 -113 38t-32 104q0 46 14 107l56 232h123l-53 -224q-8 -30 -12 -54.5t-4 -43.5q0 -52 50 -52q28 0 44.5 11.5t31.5 28.5q2 14 3.5 27t6.5 30l66 277h123l-67 -278q-4 -18 -6.5 -35.5t-2.5 -35.5q0 -29 6 -56.5t15 -54.5l-108 -18l-5 10t-6 13t-5 12.5 t-3 8.5q-20 -15 -52 -31t-70 -16zM270 523q-22 0 -36 13.5t-14 35.5q0 29 18.5 46.5t41.5 17.5q20 0 35 -14t15 -37q0 -13 -5.5 -24.5t-14.5 -19.5t-19.5 -13t-20.5 -5zM434 523q-21 0 -35.5 13.5t-14.5 35.5q0 29 18.5 46.5t41.5 17.5q21 0 36 -14t15 -37q0 -26 -19.5 -44 t-41.5 -18zM275 732h232l-17 -71h-232z" />
<glyph unicode="&#x1d7;" d="M237 -13q-88 0 -129 42t-41 117q0 41 12 92l87 361h123l-86 -360q-5 -23 -9 -43.5t-4 -37.5q0 -30 14 -47t51 -17q22 0 38 6.5t28 22t21.5 41.5t18.5 65l89 370h123l-91 -379q-13 -55 -29.5 -98t-43.5 -73t-68.5 -46t-103.5 -16zM501 644q-21 0 -35.5 13t-14.5 36 q0 29 18.5 46t41.5 17q21 0 36 -13.5t15 -37.5q0 -26 -19.5 -43.5t-41.5 -17.5zM264 644q-20 0 -35 13t-15 36q0 29 19 46t41 17t36.5 -13.5t14.5 -37.5q0 -26 -19.5 -43.5t-41.5 -17.5zM476 782l-77 -95l-56 39l65 104z" />
<glyph unicode="&#x1d8;" d="M221 -11q-81 0 -113 38t-32 104q0 46 14 107l56 232h123l-53 -224q-8 -30 -12 -54.5t-4 -43.5q0 -52 50 -52q28 0 44.5 11.5t31.5 28.5q2 14 3.5 27t6.5 30l66 277h123l-67 -278q-4 -18 -6.5 -35.5t-2.5 -35.5q0 -29 6 -56.5t15 -54.5l-108 -18l-5 10t-6 13t-5 12.5 t-3 8.5q-20 -15 -52 -31t-70 -16zM484 527q-21 0 -35.5 13.5t-14.5 35.5q0 29 18.5 46t41.5 17q21 0 36 -13.5t15 -37.5q0 -26 -19.5 -43.5t-41.5 -17.5zM247 527q-20 0 -35 13.5t-15 35.5q0 29 19 46t41 17t36.5 -13.5t14.5 -37.5q0 -26 -19.5 -43.5t-41.5 -17.5zM496 731 l-122 -126l-53 42l101 151z" />
<glyph unicode="&#x1d9;" d="M237 -13q-88 0 -129 42t-41 117q0 41 12 92l87 361h123l-86 -360q-5 -23 -9 -43.5t-4 -37.5q0 -30 14 -47t51 -17q22 0 38 6.5t28 22t21.5 41.5t18.5 65l89 370h123l-91 -379q-13 -55 -29.5 -98t-43.5 -73t-68.5 -46t-103.5 -16zM510 644q-21 0 -35.5 13t-14.5 36 q0 29 18.5 46t41.5 17q21 0 36 -13.5t15 -37.5q0 -26 -20 -43.5t-41 -17.5zM273 644q-20 0 -35 13t-15 36q0 29 19 46t41 17t36.5 -13.5t14.5 -37.5q0 -26 -19.5 -43.5t-41.5 -17.5zM319 781l46 49l38 -34l55 34l31 -52l-97 -74z" />
<glyph unicode="&#x1da;" d="M221 -11q-81 0 -113 38t-32 104q0 46 14 107l56 232h123l-53 -224q-8 -30 -12 -54.5t-4 -43.5q0 -52 50 -52q28 0 44.5 11.5t31.5 28.5q2 14 3.5 27t6.5 30l66 277h123l-67 -278q-4 -18 -6.5 -35.5t-2.5 -35.5q0 -29 6 -56.5t15 -54.5l-108 -18l-5 10t-6 13t-5 12.5 t-3 8.5q-20 -15 -52 -31t-70 -16zM484 527q-21 0 -35.5 13.5t-14.5 35.5q0 29 18.5 46t41.5 17q21 0 36 -13.5t15 -37.5q0 -26 -19.5 -43.5t-41.5 -17.5zM247 527q-20 0 -35 13.5t-15 35.5q0 29 19 46t41 17t36.5 -13.5t14.5 -37.5q0 -26 -19.5 -43.5t-41.5 -17.5zM264 717 l48 49l68 -63l93 63l32 -52l-140 -112z" />
<glyph unicode="&#x1db;" d="M237 -13q-88 0 -129 42t-41 117q0 41 12 92l87 361h123l-86 -360q-5 -23 -9 -43.5t-4 -37.5q0 -30 14 -47t51 -17q22 0 38 6.5t28 22t21.5 41.5t18.5 65l89 370h123l-91 -379q-13 -55 -29.5 -98t-43.5 -73t-68.5 -46t-103.5 -16zM509 644q-21 0 -35.5 13t-14.5 36 q0 29 18.5 46t41.5 17q21 0 36 -13.5t15 -37.5q0 -26 -20 -43.5t-41 -17.5zM272 644q-20 0 -35 13t-15 36q0 29 19 46t41 17t36.5 -13.5t14.5 -37.5q0 -26 -19.5 -43.5t-41.5 -17.5zM384 830l66 -104l-56 -39l-77 95z" />
<glyph unicode="&#x1dc;" d="M221 -11q-81 0 -113 38t-32 104q0 46 14 107l56 232h123l-53 -224q-8 -30 -12 -54.5t-4 -43.5q0 -52 50 -52q28 0 44.5 11.5t31.5 28.5q2 14 3.5 27t6.5 30l66 277h123l-67 -278q-4 -18 -6.5 -35.5t-2.5 -35.5q0 -29 6 -56.5t15 -54.5l-108 -18l-5 10t-6 13t-5 12.5 t-3 8.5q-20 -15 -52 -31t-70 -16zM466 527q-21 0 -35.5 13.5t-14.5 35.5q0 29 18.5 46t41.5 17q22 0 36.5 -13.5t14.5 -37.5q0 -26 -19.5 -43.5t-41.5 -17.5zM229 527q-20 0 -35 13.5t-15 35.5q0 29 19 46t41 17t36.5 -13.5t14.5 -37.5q0 -26 -19.5 -43.5t-41.5 -17.5z M342 794l59 -158l-55 -33l-90 143z" />
<glyph unicode="&#x1dd;" d="M377 301q-1 17 -7 31.5t-19.5 25.5t-35.5 17.5t-56 6.5q-40 0 -74 -8.5t-51 -16.5l-12 91q24 12 67 23t94 11q58 0 98.5 -14t66.5 -39.5t38 -61.5t12 -79q0 -59 -18.5 -113t-55 -95t-90.5 -66t-126 -25q-69 0 -112.5 34.5t-43.5 95.5q0 51 25.5 85.5t69.5 56t103 31 t127 9.5zM231 88q54 0 95 35.5t51 94.5q-66 -1 -107 -9t-63.5 -20t-30.5 -26t-8 -27q0 -24 16.5 -36t46.5 -12z" />
<glyph unicode="&#x1de;" d="M297 621q-22 0 -36 13.5t-14 35.5q0 29 18.5 46.5t41.5 17.5q20 0 35 -14t15 -37q0 -13 -5.5 -24.5t-14.5 -19.5t-19.5 -13t-20.5 -5zM461 621q-21 0 -35.5 13.5t-14.5 35.5q0 29 18.5 46.5t41.5 17.5q21 0 36 -14t15 -37q0 -26 -19.5 -44t-41.5 -18zM302 830h232 l-17 -71h-232zM355 124h-176q-15 -29 -30.5 -60t-29.5 -64h-125q82 174 159 319t149 260h131q20 -127 32.5 -269.5t10.5 -309.5h-124zM342 462q-12 -23 -24 -45.5t-25.5 -49.5t-29.5 -62t-38 -82h132q1 47 0 82t-3.5 62.5t-5.5 49.5t-6 45z" />
<glyph unicode="&#x1df;" d="M251 94q28 0 47 12.5t33 29.5q2 14 4 27t6 30l43 178q-11 3 -23 4t-23 1q-35 0 -63 -16.5t-48 -43.5t-30.5 -62t-10.5 -72q0 -26 4.5 -43t13 -27t20.5 -14t27 -4zM206 -11q-66 1 -104 47.5t-38 135.5q0 68 23 125t63 97.5t93.5 63t113.5 22.5q41 0 83 -8t85 -25l-62 -255 q-4 -18 -6 -35.5t-2 -35.5q0 -29 5.5 -56.5t14.5 -54.5l-108 -18l-5 10t-6 13t-5 12.5t-3 8.5q-20 -15 -54 -31t-88 -16zM296 523q-22 0 -36 13.5t-14 35.5q0 29 18.5 46.5t41.5 17.5q20 0 35 -14t15 -37q0 -13 -5.5 -24.5t-14.5 -19.5t-19.5 -13t-20.5 -5zM460 523 q-21 0 -35.5 13.5t-14.5 35.5q0 29 18.5 46.5t41.5 17.5q21 0 36 -14t15 -37q0 -26 -19.5 -44t-41.5 -18zM301 732h232l-17 -71h-232z" />
<glyph unicode="&#x1e0;" d="M379 621q-21 0 -35.5 13.5t-14.5 35.5q0 29 18.5 46.5t41.5 17.5q21 0 36 -14t15 -37q0 -26 -19.5 -44t-41.5 -18zM305 830h232l-17 -71h-232zM355 124h-176q-15 -29 -30.5 -60t-29.5 -64h-125q82 174 159 319t149 260h131q20 -127 32.5 -269.5t10.5 -309.5h-124z M342 462q-12 -23 -24 -45.5t-25.5 -49.5t-29.5 -62t-38 -82h132q1 47 0 82t-3.5 62.5t-5.5 49.5t-6 45z" />
<glyph unicode="&#x1e1;" d="M251 94q28 0 47 12.5t33 29.5q2 14 4 27t6 30l43 178q-11 3 -23 4t-23 1q-35 0 -63 -16.5t-48 -43.5t-30.5 -62t-10.5 -72q0 -26 4.5 -43t13 -27t20.5 -14t27 -4zM206 -11q-66 1 -104 47.5t-38 135.5q0 68 23 125t63 97.5t93.5 63t113.5 22.5q41 0 83 -8t85 -25l-62 -255 q-4 -18 -6 -35.5t-2 -35.5q0 -29 5.5 -56.5t14.5 -54.5l-108 -18l-5 10t-6 13t-5 12.5t-3 8.5q-20 -15 -54 -31t-88 -16zM377 523q-21 0 -35.5 13.5t-14.5 35.5q0 29 18.5 46.5t41.5 17.5q21 0 36 -14t15 -37q0 -26 -19.5 -44t-41.5 -18zM303 732h232l-17 -71h-232z" />
<glyph unicode="&#x1e2;" d="M271 144h-99l-62 -144h-123q51 106 91.5 188t78 152.5t76 137t86.5 141.5h286l-24 -102h-112l-34 -139h89l-24 -102h-89l-42 -174h126l-24 -102h-234zM365 536q-38 -67 -74 -138t-74 -155h78zM361 786h287l-21 -87h-288z" />
<glyph unicode="&#x1e3;" d="M457 359q0 14 -6 24t-24 10q-10 0 -22.5 -8t-25 -25t-24 -44t-19.5 -66q26 0 48.5 8.5t38.5 23t25 34.5t9 43zM147 77q10 0 22.5 8t25 25t24 44t19.5 66q-26 0 -48.5 -8.5t-38.5 -23.5t-25 -35t-9 -42q0 -14 6 -24t24 -10zM30 93q0 50 17.5 87.5t46.5 63t68 39.5t83 18 q1 4 1 7.5v6.5q0 36 -15.5 56t-54.5 20q-17 0 -35 -7t-35 -19l-12 88q21 14 47.5 21.5t54.5 7.5q45 0 78 -23t44 -71q24 47 58 70.5t72 23.5q18 0 35.5 -5.5t31 -18t21.5 -32.5t8 -49q0 -50 -17 -87.5t-46.5 -63t-68.5 -39.5t-82 -18q-1 -5 -1 -8v-7q0 -35 15 -55t54 -20 q36 0 70 25l12 -87q-21 -14 -47.5 -22t-53.5 -8q-46 0 -79 23.5t-44 71.5q-24 -47 -58 -71t-72 -24q-18 0 -35.5 5.5t-31 18t-21.5 32.5t-8 50zM245 647h287l-21 -87h-288z" />
<glyph unicode="&#x1e4;" d="M428 15q-12 -5 -30.5 -9.5t-41.5 -9t-48 -7t-50 -2.5q-92 0 -136 57t-44 161q0 75 20.5 151.5t62.5 138t105.5 100t148.5 38.5q32 0 56 -6t41 -13.5t27.5 -16t15.5 -12.5l-49 -95q-20 15 -41 25.5t-62 10.5q-51 0 -89 -29t-63 -74t-37.5 -99.5t-12.5 -106.5 q0 -27 4 -49.5t14 -39t26 -25.5t40 -9q8 0 21 1t24 3l21 91h-71l21 90h71l16 66h119l-16 -66h45l-22 -90h-44z" />
<glyph unicode="&#x1e5;" d="M479 300h67l-19 -80h-67l-39 -165q-14 -58 -35 -100t-52.5 -69.5t-75 -40.5t-102.5 -13q-50 0 -85 9.5t-70 29.5l43 97q23 -11 53.5 -21t70.5 -10q57 0 85.5 25.5t37.5 67.5l6 26q-20 -11 -41 -17.5t-40 -6.5q-74 0 -107 45t-33 119q0 68 24 121t63 89t90 55t105 19 q40 0 81 -6.5t76 -22.5zM337 220h-61l19 80h61l18 74q-20 6 -37 6q-32 0 -57.5 -14.5t-44.5 -38.5t-29 -56t-10 -66q0 -30 11 -52t45 -22q13 0 32.5 5.5t36.5 18.5z" />
<glyph unicode="&#x1e6;" d="M263 -13q-93 0 -139 57t-46 161q0 75 21.5 151.5t64 138t106.5 100t150 38.5q32 0 57 -6t44 -13.5t31 -16t17 -12.5l-46 -95q-20 15 -47 25.5t-69 10.5q-51 0 -89.5 -29t-64.5 -74t-39 -99.5t-13 -106.5q0 -54 20 -88.5t68 -34.5q13 0 25.5 1t23.5 3l54 226h123l-74 -309 q-23 -8 -71.5 -18t-106.5 -10zM310 784l54 46l74 -69l101 69l41 -55l-160 -126z" />
<glyph unicode="&#x1e7;" d="M438 55q-14 -58 -35 -100t-53.5 -69.5t-77.5 -40.5t-106 -13q-53 0 -90.5 9.5t-74.5 29.5l43 97q26 -11 58.5 -21t75.5 -10q60 0 90.5 25.5t40.5 67.5l6 26q-22 -11 -45 -17.5t-44 -6.5q-80 0 -115 45t-35 119q0 68 24.5 121t65.5 89t93.5 55t108.5 19q42 0 84.5 -6.5 t80.5 -22.5zM392 374q-24 6 -46 6q-34 0 -61.5 -14.5t-47 -38.5t-30.5 -56t-11 -66q0 -30 13 -52t53 -22q14 0 35.5 5.5t41.5 18.5zM292 645l54 46l74 -69l101 69l41 -55l-160 -126z" />
<glyph unicode="&#x1e8;" d="M338 322q24 -30 46 -67.5t40.5 -80t33 -87t23.5 -87.5h-129q-7 35 -20.5 75.5t-31 79.5t-37.5 73.5t-40 58.5l-69 -287h-123l148 619h124l-62 -257q31 28 62.5 61.5t60.5 68t54.5 67.5t43.5 60h141q-23 -31 -52 -68t-63 -76.5t-72 -78.5t-78 -74zM266 784l54 46l74 -69 l101 69l41 -55l-160 -126z" />
<glyph unicode="&#x1e9;" d="M567 470q-48 -58 -108 -114.5t-114 -101.5q18 -22 36.5 -53.5t36.5 -66.5t33 -70t25 -64h-133q-8 25 -21 57t-28 64t-31 60t-31 46l-54 -227h-124l147 613l128 21l-82 -344q18 15 42 37t49 46.5t48.5 50t40.5 46.5h140zM230 787l45 42l72 -56l95 56l34 -48l-139 -104z " />
<glyph unicode="&#x1ea;" d="M298 -156q-17 -6 -39.5 -10t-45.5 -4q-55 0 -77 16t-22 37q0 26 18 52t66 56q-63 13 -97 63t-34 125q0 39 6 88t20.5 99.5t37 98.5t56 85.5t78 60t102.5 22.5q81 0 127 -52.5t46 -139.5q0 -51 -10 -114t-34.5 -125t-67.5 -117t-109 -89q-50 -26 -66.5 -48.5t-16.5 -34.5 q0 -14 22 -14q13 0 27.5 3.5t20.5 5.5zM255 94q41 0 71.5 35t50.5 86.5t30 110t10 106.5q0 39 -13.5 66.5t-50.5 27.5q-41 0 -72 -35t-51 -86.5t-30 -110.5t-10 -106q0 -39 13.5 -66.5t51.5 -27.5z" />
<glyph unicode="&#x1eb;" d="M307 -156q-17 -6 -39.5 -10t-45.5 -4q-55 0 -77 16t-22 37q0 26 17.5 51.5t62.5 54.5q-70 8 -104 54.5t-34 119.5q0 60 18 117t53 102t87 72.5t120 27.5q73 0 117.5 -44.5t44.5 -132.5q0 -39 -7 -78.5t-23.5 -76.5t-42.5 -69t-63 -57q-39 -26 -63.5 -42t-38 -27.5 t-18 -21t-4.5 -20.5q0 -14 22 -14q13 0 27.5 3.5t20.5 5.5zM256 94q30 0 53 18t39.5 45t25 58.5t8.5 59.5q0 47 -13.5 74t-55.5 27q-29 0 -52.5 -18t-39.5 -45t-24.5 -58.5t-8.5 -59.5q0 -47 13.5 -74t54.5 -27z" />
<glyph unicode="&#x1ec;" d="M298 -156q-17 -6 -39.5 -10t-45.5 -4q-55 0 -77 16t-22 37q0 26 18 52t66 56q-63 13 -97 63t-34 125q0 39 6 88t20.5 99.5t37 98.5t56 85.5t78 60t102.5 22.5q81 0 127 -52.5t46 -139.5q0 -51 -10 -114t-34.5 -125t-67.5 -117t-109 -89q-50 -26 -66.5 -48.5t-16.5 -34.5 q0 -14 22 -14q13 0 27.5 3.5t20.5 5.5zM255 94q41 0 71.5 35t50.5 86.5t30 110t10 106.5q0 39 -13.5 66.5t-50.5 27.5q-41 0 -72 -35t-51 -86.5t-30 -110.5t-10 -106q0 -39 13.5 -66.5t51.5 -27.5zM272 786h287l-21 -87h-288z" />
<glyph unicode="&#x1ed;" d="M307 -156q-17 -6 -39.5 -10t-45.5 -4q-55 0 -77 16t-22 37q0 26 17.5 51.5t62.5 54.5q-70 8 -104 54.5t-34 119.5q0 60 18 117t53 102t87 72.5t120 27.5q73 0 117.5 -44.5t44.5 -132.5q0 -39 -7 -78.5t-23.5 -76.5t-42.5 -69t-63 -57q-39 -26 -63.5 -42t-38 -27.5 t-18 -21t-4.5 -20.5q0 -14 22 -14q13 0 27.5 3.5t20.5 5.5zM256 94q30 0 53 18t39.5 45t25 58.5t8.5 59.5q0 47 -13.5 74t-55.5 27q-29 0 -52.5 -18t-39.5 -45t-24.5 -58.5t-8.5 -59.5q0 -47 13.5 -74t54.5 -27zM254 647h287l-21 -87h-288z" />
<glyph unicode="&#x1ee;" d="M232 353q18 16 41.5 37.5t47 44t45.5 44t39 38.5h-237l24 102h380l-19 -77q-14 -14 -35 -35.5t-47 -46.5t-54 -51.5t-55 -50.5q28 -6 51.5 -16t40 -27t25.5 -42.5t9 -61.5q0 -56 -20.5 -98.5t-56 -71t-83.5 -43t-103 -14.5q-64 0 -114 15.5t-82 35.5l58 96 q11 -7 28.5 -14.5t37.5 -13.5t40.5 -10t38.5 -4q55 0 92.5 30t37.5 87q0 80 -107 80h-39zM275 784l54 46l74 -69l101 69l41 -55l-160 -126z" />
<glyph unicode="&#x1ef;" d="M247 645l54 46l74 -69l101 69l41 -55l-160 -126zM179 204q18 16 41 37.5t46.5 44t45.5 44t39 38.5h-229l25 102h371l-19 -77q-14 -14 -35 -35.5t-47 -47t-54 -52t-55 -49.5q57 -11 91.5 -51.5t34.5 -95.5q0 -56 -20.5 -98.5t-56 -71t-83.5 -43t-103 -14.5q-23 0 -47 3 t-46.5 7.5t-41.5 11t-32 14.5l37 97q26 -13 64 -20.5t74 -7.5q54 0 91.5 30t37.5 87q0 42 -31 61t-85 19h-29z" />
<glyph unicode="&#x1f0;" d="M367 25q-14 -57 -33.5 -95t-45.5 -60t-59 -31t-74 -9q-51 0 -93 12.5t-68 32.5l48 99q22 -14 47 -25t57 -11q38 0 62 18.5t36 68.5l82 343h-190l25 102h313zM234 645l54 46l74 -69l101 69l41 -55l-160 -126z" />
<glyph unicode="&#x1f1;" d="M610 541q-23 -42 -51.5 -97t-58.5 -115t-60 -121t-55 -115h117l-22 -93h-203l19 76q34 72 62 128.5t53.5 107.5l51 102t55.5 112h-97l23 93h185zM247 626q67 0 95.5 -39.5t28.5 -130.5q0 -47 -8 -100t-23.5 -104.5t-38.5 -98t-54 -82t-69 -56.5t-84 -21q-4 0 -13.5 0.5 t-22 1.5t-26 3t-24.5 5l146 611q25 5 47 8t46 3zM115 88q4 -1 10 -1q33 0 61.5 35t50.5 88t34.5 116t12.5 120q0 55 -10 74.5t-39 19.5q-8 0 -12 -1z" />
<glyph unicode="&#x1f2;" d="M580 388q-19 -29 -41 -65t-45 -75t-46 -79t-43 -76h104l-22 -93h-194l17 71q27 48 48.5 88t42 76t40.5 70.5t43 71.5h-91l21 93h185zM247 626q67 0 95.5 -39.5t28.5 -130.5q0 -47 -8 -100t-23.5 -104.5t-38.5 -98t-54 -82t-69 -56.5t-84 -21q-4 0 -13.5 0.5t-22 1.5 t-26 3t-24.5 5l146 611q25 5 47 8t46 3zM115 88q4 -1 10 -1q33 0 61.5 35t50.5 88t34.5 116t12.5 120q0 55 -10 74.5t-39 19.5q-8 0 -12 -1z" />
<glyph unicode="&#x1f3;" d="M580 388q-19 -29 -41 -65t-45 -75t-46 -79t-43 -76h104l-22 -93h-194l17 71q27 48 48.5 88t42 76t40.5 70.5t43 71.5h-91l21 93h185zM247 14q-27 -12 -54.5 -19.5t-52.5 -7.5q-23 0 -43.5 7t-35.5 24.5t-23.5 45.5t-8.5 70q0 44 12.5 103.5t36.5 113.5t58.5 91.5 t78.5 37.5q24 0 53 -17l50 211l92 19zM245 368q-19 19 -32 19q-15 0 -28 -14.5t-24 -38t-19.5 -51.5t-15 -55.5t-9.5 -51t-3 -36.5q0 -35 10.5 -47.5t29.5 -12.5q10 0 23 5z" />
<glyph unicode="&#x1f4;" d="M263 -13q-93 0 -139 57t-46 161q0 75 21.5 151.5t64 138t106.5 100t150 38.5q32 0 57 -6t44 -13.5t31 -16t17 -12.5l-46 -95q-20 15 -47 25.5t-69 10.5q-51 0 -89.5 -29t-64.5 -74t-39 -99.5t-13 -106.5q0 -54 20 -88.5t68 -34.5q13 0 25.5 1t23.5 3l54 226h123l-74 -309 q-23 -8 -71.5 -18t-106.5 -10zM513 736l-174 -91l-45 67l158 118z" />
<glyph unicode="&#x1f5;" d="M438 55q-14 -58 -35 -100t-53.5 -69.5t-77.5 -40.5t-106 -13q-53 0 -90.5 9.5t-74.5 29.5l43 97q26 -11 58.5 -21t75.5 -10q60 0 90.5 25.5t40.5 67.5l6 26q-22 -11 -45 -17.5t-44 -6.5q-80 0 -115 45t-35 119q0 68 24.5 121t65.5 89t93.5 55t108.5 19q42 0 84.5 -6.5 t80.5 -22.5zM392 374q-24 6 -46 6q-34 0 -61.5 -14.5t-47 -38.5t-30.5 -56t-11 -66q0 -30 13 -52t53 -22q14 0 35.5 5.5t41.5 18.5zM513 597l-174 -91l-45 67l158 118z" />
<glyph unicode="&#x1f6;" d="M329 -13q-32 0 -53.5 8.5t-34 23t-17.5 34.5t-5 43q0 32 6.5 66t14.5 66l12 49h-82l-67 -277h-98l149 619h98l-60 -248h83l59 248h98l-92 -387q-8 -33 -14.5 -64t-6.5 -54q0 -17 5.5 -27.5t19.5 -10.5t23 6t16.5 22.5t15 45.5t18.5 74l58 246h97l-61 -255 q-13 -54 -25.5 -96.5t-31.5 -72t-48.5 -44.5t-76.5 -15z" />
<glyph unicode="&#x1f7;" d="M135 -165h-123l180 756q35 14 79.5 24.5t90.5 10.5q193 0 193 -190q0 -65 -24 -130t-72 -123t-119 -105.5t-165 -77.5zM204 121q52 18 94 51.5t71.5 74.5t45.5 86t16 87q0 45 -18.5 72t-57.5 27q-15 0 -30.5 -4t-28.5 -9z" />
<glyph unicode="&#x1f8;" d="M337 0q-17 103 -40.5 211t-55.5 233l-106 -444h-109l148 619h105q14 -44 29.5 -96t29 -105t25 -105t18.5 -95l95 401h109l-148 -619h-100zM317 830l158 -118l-45 -67l-174 91z" />
<glyph unicode="&#x1f9;" d="M152 450q31 10 81 20t107 10q84 0 120.5 -36t36.5 -100q0 -17 -2.5 -37t-7.5 -42l-65 -265h-123l61 249q3 16 7 33t4 34q0 23 -12.5 40.5t-45.5 17.5q-14 0 -29 -2.5t-29 -8.5l-88 -363h-123zM299 691l158 -118l-45 -67l-174 91z" />
<glyph unicode="&#x1fa;" d="M348 473q-12 -21 -23 -41.5t-24.5 -46.5t-31.5 -62t-43 -88h132q0 46 -0.5 81.5t-2 63t-3.5 50t-4 43.5zM491 764l-155 -55l-17 48l146 73zM473 607q0 -22 -7.5 -38.5t-20.5 -27.5q14 -121 23.5 -254.5t7.5 -286.5h-124l3 133h-176q-15 -32 -29.5 -64t-30.5 -69h-125 q84 172 159 313.5t146 256.5q-7 14 -7 37q0 21 7.5 37.5t20 28t29 17t33.5 5.5q36 0 63.5 -22.5t27.5 -65.5zM418 607q-1 18 -11.5 27.5t-24.5 9.5q-13 0 -24 -9.5t-11 -27.5t11 -27.5t24 -9.5q14 0 24.5 9.5t11.5 27.5z" />
<glyph unicode="&#x1fb;" d="M251 94q28 0 47 12.5t33 29.5q2 14 4 27t6 30l43 178q-11 3 -23 4t-23 1q-35 0 -63 -16.5t-48 -43.5t-30.5 -62t-10.5 -72q0 -26 4.5 -43t13 -27t20.5 -14t27 -4zM206 -11q-66 1 -104 47.5t-38 135.5q0 68 23 125t63 97.5t93.5 63t113.5 22.5q41 0 83 -8t85 -25l-62 -255 q-4 -18 -6 -35.5t-2 -35.5q0 -29 5.5 -56.5t14.5 -54.5l-108 -18l-5 10t-6 13t-5 12.5t-3 8.5q-20 -15 -54 -31t-88 -16zM491 607q0 -43 -27.5 -65.5t-63.5 -22.5q-17 0 -33.5 5.5t-29 17t-20 28t-7.5 37.5t7.5 37.5t20 28t29 17t33.5 5.5q36 0 63.5 -22.5t27.5 -65.5z M436 607q-1 18 -11.5 27.5t-24.5 9.5q-13 0 -24 -9.5t-11 -27.5t11 -27.5t24 -9.5q14 0 24.5 9.5t11.5 27.5zM509 764l-155 -55l-17 48l146 73z" />
<glyph unicode="&#x1fc;" d="M271 144h-99l-62 -144h-123q51 106 91.5 188t78 152.5t76 137t86.5 141.5h286l-24 -102h-112l-34 -139h89l-24 -102h-89l-42 -174h126l-24 -102h-234zM365 536q-38 -67 -74 -138t-74 -155h78zM589 736l-174 -91l-45 67l158 118z" />
<glyph unicode="&#x1fd;" d="M457 359q0 14 -6 24t-24 10q-10 0 -22.5 -8t-25 -25t-24 -44t-19.5 -66q26 0 48.5 8.5t38.5 23t25 34.5t9 43zM147 77q10 0 22.5 8t25 25t24 44t19.5 66q-26 0 -48.5 -8.5t-38.5 -23.5t-25 -35t-9 -42q0 -14 6 -24t24 -10zM30 93q0 50 17.5 87.5t46.5 63t68 39.5t83 18 q1 4 1 7.5v6.5q0 36 -15.5 56t-54.5 20q-17 0 -35 -7t-35 -19l-12 88q21 14 47.5 21.5t54.5 7.5q45 0 78 -23t44 -71q24 47 58 70.5t72 23.5q18 0 35.5 -5.5t31 -18t21.5 -32.5t8 -49q0 -50 -17 -87.5t-46.5 -63t-68.5 -39.5t-82 -18q-1 -5 -1 -8v-7q0 -35 15 -55t54 -20 q36 0 70 25l12 -87q-21 -14 -47.5 -22t-53.5 -8q-46 0 -79 23.5t-44 71.5q-24 -47 -58 -71t-72 -24q-18 0 -35.5 5.5t-31 18t-21.5 32.5t-8 50zM495 597l-174 -91l-45 67l158 118z" />
<glyph unicode="&#x1fe;" d="M367 633q49 0 86 -20l30 46l72 -40l-42 -64q13 -24 20 -52.5t7 -61.5q0 -39 -6 -88t-20 -99.5t-37 -98.5t-56 -85.5t-77.5 -60t-102.5 -22.5q-26 0 -48.5 5.5t-41.5 15.5l-32 -48l-71 40l45 68q-26 46 -26 111q0 39 6 88t20.5 99.5t37 98.5t56 85.5t78 60t102.5 22.5z M255 88q39 0 69.5 32t52.5 81t33.5 106.5t11.5 108.5l-209 -313q7 -6 18 -10.5t24 -4.5zM352 530q-38 0 -69 -31t-53 -78t-33.5 -104.5t-11.5 -109.5l206 313q-7 5 -17.5 7.5t-21.5 2.5zM469 736l-174 -91l-45 67l158 118z" />
<glyph unicode="&#x1ff;" d="M238 100q10 -6 20.5 -8t21.5 -2q34 0 59 18t41 46.5t23.5 65t7.5 73.5zM264 -13q-17 0 -29 0.5t-22 2.5t-20 5.5t-22 9.5l-43 -50l-58 48l46 52q-19 32 -23 61.5t-4 58.5q0 61 20.5 116.5t56.5 98t85 67.5t106 25q23 0 45.5 -3t47.5 -15l41 48l58 -48l-45 -51 q14 -25 19.5 -53.5t5.5 -63.5q0 -53 -17 -108t-50.5 -99.5t-83 -73t-114.5 -28.5zM380 371q-16 10 -39 10q-35 0 -60.5 -18.5t-42 -47.5t-24.5 -65t-8 -71zM469 597l-174 -91l-45 67l158 118z" />
<glyph unicode="&#x200;" d="M356 144h-176q-15 -34 -31 -70t-30 -74h-125q85 186 164 341.5t154 277.5h131q14 -118 22.5 -249.5t10.5 -280.5v-89h-124zM352 502q-13 -25 -25.5 -49t-27 -53.5t-32.5 -67.5t-41 -89h132q1 51 0.5 89t-1.5 67.5t-2.5 54t-2.5 48.5zM472 830l80 -139l-56 -40l-103 120z M301 830l80 -139l-57 -40l-103 120z" />
<glyph unicode="&#x201;" d="M251 94q28 0 47 12.5t33 29.5q2 14 4 27t6 30l43 178q-11 3 -23 4t-23 1q-35 0 -63 -16.5t-48 -43.5t-30.5 -62t-10.5 -72q0 -26 4.5 -43t13 -27t20.5 -14t27 -4zM206 -11q-66 1 -104 47.5t-38 135.5q0 68 23 125t63 97.5t93.5 63t113.5 22.5q41 0 83 -8t85 -25l-62 -255 q-4 -18 -6 -35.5t-2 -35.5q0 -29 5.5 -56.5t14.5 -54.5l-108 -18l-5 10t-6 13t-5 12.5t-3 8.5q-20 -15 -54 -31t-88 -16zM454 687l80 -139l-56 -40l-103 120zM283 687l80 -139l-57 -40l-103 120z" />
<glyph unicode="&#x202;" d="M356 144h-176q-15 -34 -31 -70t-30 -74h-125q85 186 164 341.5t154 277.5h131q14 -118 22.5 -249.5t10.5 -280.5v-89h-124zM352 502q-13 -25 -25.5 -49t-27 -53.5t-32.5 -67.5t-41 -89h132q1 51 0.5 89t-1.5 67.5t-2.5 54t-2.5 48.5zM436 670q0 5 0.5 9t0.5 9q0 21 -9 33 t-32 12q-21 0 -37.5 -15.5t-22.5 -47.5h-91q3 37 18 65t37.5 46.5t50 27.5t54.5 9q24 0 46.5 -7.5t39.5 -22.5t27.5 -37t10.5 -51q0 -15 -3 -30h-90z" />
<glyph unicode="&#x203;" d="M251 94q28 0 47 12.5t33 29.5q2 14 4 27t6 30l43 178q-11 3 -23 4t-23 1q-35 0 -63 -16.5t-48 -43.5t-30.5 -62t-10.5 -72q0 -26 4.5 -43t13 -27t20.5 -14t27 -4zM206 -11q-66 1 -104 47.5t-38 135.5q0 68 23 125t63 97.5t93.5 63t113.5 22.5q41 0 83 -8t85 -25l-62 -255 q-4 -18 -6 -35.5t-2 -35.5q0 -29 5.5 -56.5t14.5 -54.5l-108 -18l-5 10t-6 13t-5 12.5t-3 8.5q-20 -15 -54 -31t-88 -16zM423 527q0 5 0.5 9t0.5 9q0 21 -9 33t-32 12q-21 0 -37.5 -15.5t-22.5 -47.5h-91q3 37 18 65t37.5 46.5t50 27.5t54.5 9q24 0 46.5 -7.5t39.5 -22.5 t27.5 -37t10.5 -51q0 -15 -3 -30h-90z" />
<glyph unicode="&#x204;" d="M53 0l148 619h367l-24 -102h-244l-34 -139h212l-24 -102h-212l-42 -174h266l-24 -102h-389zM490 830l80 -139l-56 -40l-103 120zM319 830l80 -139l-57 -40l-103 120z" />
<glyph unicode="&#x205;" d="M196 167q0 -18 6 -32.5t19.5 -24.5t36 -15.5t56.5 -5.5q40 0 76 8.5t53 16.5l8 -93q-24 -12 -67 -22.5t-94 -10.5q-57 0 -98 14.5t-67 40.5t-38 61.5t-12 78.5q0 58 19.5 112.5t57 95.5t91 66t122.5 25t113 -34t44 -95q0 -51 -25 -86.5t-69 -57.5t-103.5 -32t-128.5 -10z M342 384q-46 0 -87.5 -31.5t-57.5 -100.5q63 0 103.5 8t63.5 20.5t32 27.5t9 28q0 23 -16.5 35.5t-46.5 12.5zM454 687l80 -139l-56 -40l-103 120zM283 687l80 -139l-57 -40l-103 120z" />
<glyph unicode="&#x206;" d="M53 0l148 619h367l-24 -102h-244l-34 -139h212l-24 -102h-212l-42 -174h266l-24 -102h-389zM459 670q0 5 0.5 9t0.5 9q0 21 -9 33t-32 12q-21 0 -37.5 -15.5t-22.5 -47.5h-91q3 37 18 65t37.5 46.5t50 27.5t54.5 9q24 0 46.5 -7.5t39.5 -22.5t27.5 -37t10.5 -51 q0 -15 -3 -30h-90z" />
<glyph unicode="&#x207;" d="M196 167q0 -18 6 -32.5t19.5 -24.5t36 -15.5t56.5 -5.5q40 0 76 8.5t53 16.5l8 -93q-24 -12 -67 -22.5t-94 -10.5q-57 0 -98 14.5t-67 40.5t-38 61.5t-12 78.5q0 58 19.5 112.5t57 95.5t91 66t122.5 25t113 -34t44 -95q0 -51 -25 -86.5t-69 -57.5t-103.5 -32t-128.5 -10z M342 384q-46 0 -87.5 -31.5t-57.5 -100.5q63 0 103.5 8t63.5 20.5t32 27.5t9 28q0 23 -16.5 35.5t-46.5 12.5zM415 527q0 5 0.5 9t0.5 9q0 21 -9 33t-32 12q-21 0 -37.5 -15.5t-22.5 -47.5h-91q3 37 18 65t37.5 46.5t50 27.5t54.5 9q24 0 46.5 -7.5t39.5 -22.5t27.5 -37 t10.5 -51q0 -15 -3 -30h-90z" />
<glyph unicode="&#x208;" d="M35 0l24 102h136l100 415h-136l24 102h393l-24 -102h-134l-100 -415h134l-24 -102h-393zM472 830l80 -139l-56 -40l-103 120zM301 830l80 -139l-57 -40l-103 120z" />
<glyph unicode="&#x209;" d="M459 13q-37 -14 -69.5 -19t-60.5 -5q-71 0 -105 34.5t-34 97.5q0 33 11 77l40 170h-130l25 102h253l-68 -287q-6 -21 -6 -37q0 -50 51 -50q17 0 40 3.5t51 13.5zM419 687l80 -139l-56 -40l-103 120zM248 687l80 -139l-57 -40l-103 120z" />
<glyph unicode="&#x20a;" d="M35 0l24 102h136l100 415h-136l24 102h393l-24 -102h-134l-100 -415h134l-24 -102h-393zM441 670q0 5 0.5 9t0.5 9q0 21 -9 33t-32 12q-21 0 -37.5 -15.5t-22.5 -47.5h-91q3 37 18 65t37.5 46.5t50 27.5t54.5 9q24 0 46.5 -7.5t39.5 -22.5t27.5 -37t10.5 -51 q0 -15 -3 -30h-90z" />
<glyph unicode="&#x20b;" d="M459 13q-37 -14 -69.5 -19t-60.5 -5q-71 0 -105 34.5t-34 97.5q0 33 11 77l40 170h-130l25 102h253l-68 -287q-6 -21 -6 -37q0 -50 51 -50q17 0 40 3.5t51 13.5zM379 527q0 5 0.5 9t0.5 9q0 21 -9 33t-32 12q-21 0 -37.5 -15.5t-22.5 -47.5h-91q3 37 18 65t37.5 46.5 t50 27.5t54.5 9q24 0 46.5 -7.5t39.5 -22.5t27.5 -37t10.5 -51q0 -15 -3 -30h-90z" />
<glyph unicode="&#x20c;" d="M367 633q81 0 127 -52.5t46 -139.5q0 -39 -6 -88t-20 -99.5t-37 -98.5t-56 -85.5t-77.5 -60t-102.5 -22.5q-82 0 -128 52.5t-46 139.5q0 39 6 88t20.5 99.5t37 98.5t56 85.5t78 60t102.5 22.5zM255 94q41 0 71.5 35t50.5 86.5t30 110t10 106.5q0 39 -13.5 66.5 t-50.5 27.5q-41 0 -72 -35t-51 -86.5t-30 -110.5t-10 -106q0 -39 13.5 -66.5t51.5 -27.5zM461 830l80 -139l-56 -40l-103 120zM290 830l80 -139l-57 -40l-103 120z" />
<glyph unicode="&#x20d;" d="M256 94q30 0 53 18t39.5 45t25 58.5t8.5 59.5q0 47 -13.5 74t-55.5 27q-29 0 -52.5 -18t-39.5 -45t-24.5 -58.5t-8.5 -59.5q0 -47 13.5 -74t54.5 -27zM231 -13q-84 0 -125 48t-41 128q0 60 18 117t53 102t87 72.5t120 27.5q73 0 117.5 -44.5t44.5 -132.5q0 -59 -17 -116 t-51.5 -102t-86 -72.5t-119.5 -27.5zM446 687l80 -139l-56 -40l-103 120zM275 687l80 -139l-57 -40l-103 120z" />
<glyph unicode="&#x20e;" d="M367 633q81 0 127 -52.5t46 -139.5q0 -39 -6 -88t-20 -99.5t-37 -98.5t-56 -85.5t-77.5 -60t-102.5 -22.5q-82 0 -128 52.5t-46 139.5q0 39 6 88t20.5 99.5t37 98.5t56 85.5t78 60t102.5 22.5zM255 94q41 0 71.5 35t50.5 86.5t30 110t10 106.5q0 39 -13.5 66.5 t-50.5 27.5q-41 0 -72 -35t-51 -86.5t-30 -110.5t-10 -106q0 -39 13.5 -66.5t51.5 -27.5zM450 670q0 5 0.5 9t0.5 9q0 21 -9 33t-32 12q-21 0 -37.5 -15.5t-22.5 -47.5h-91q3 37 18 65t37.5 46.5t50 27.5t54.5 9q24 0 46.5 -7.5t39.5 -22.5t27.5 -37t10.5 -51q0 -15 -3 -30 h-90z" />
<glyph unicode="&#x20f;" d="M256 94q30 0 53 18t39.5 45t25 58.5t8.5 59.5q0 47 -13.5 74t-55.5 27q-29 0 -52.5 -18t-39.5 -45t-24.5 -58.5t-8.5 -59.5q0 -47 13.5 -74t54.5 -27zM231 -13q-84 0 -125 48t-41 128q0 60 18 117t53 102t87 72.5t120 27.5q73 0 117.5 -44.5t44.5 -132.5q0 -59 -17 -116 t-51.5 -102t-86 -72.5t-119.5 -27.5zM415 527q0 5 0.5 9t0.5 9q0 21 -9 33t-32 12q-21 0 -37.5 -15.5t-22.5 -47.5h-91q3 37 18 65t37.5 46.5t50 27.5t54.5 9q24 0 46.5 -7.5t39.5 -22.5t27.5 -37t10.5 -51q0 -15 -3 -30h-90z" />
<glyph unicode="&#x210;" d="M381 253q15 -25 28.5 -56t25.5 -64.5t21.5 -67.5t15.5 -65h-120q-11 60 -31 116t-47 112h-64l-55 -228h-121l145 609q19 4 40.5 7.5t42.5 5.5t40 3t34 1q99 0 148 -43.5t49 -117.5q0 -35 -9.5 -68.5t-29 -62t-48 -50t-65.5 -31.5zM280 330q26 0 49.5 7t41.5 22t28.5 38 t10.5 54q0 35 -21 54t-72 19q-11 0 -20 -1t-17 -3l-46 -190h46zM454 830l80 -139l-56 -40l-103 120zM283 830l80 -139l-57 -40l-103 120z" />
<glyph unicode="&#x211;" d="M488 348q-19 7 -45 11t-64 4q-26 0 -53.5 -3.5t-50.5 -11.5l-83 -348h-123l105 439q47 19 101.5 29.5t102.5 10.5q56 0 91.5 -5t65.5 -13zM445 687l80 -139l-56 -40l-103 120zM274 687l80 -139l-57 -40l-103 120z" />
<glyph unicode="&#x212;" d="M381 253q15 -25 28.5 -56t25.5 -64.5t21.5 -67.5t15.5 -65h-120q-11 60 -31 116t-47 112h-64l-55 -228h-121l145 609q19 4 40.5 7.5t42.5 5.5t40 3t34 1q99 0 148 -43.5t49 -117.5q0 -35 -9.5 -68.5t-29 -62t-48 -50t-65.5 -31.5zM280 330q26 0 49.5 7t41.5 22t28.5 38 t10.5 54q0 35 -21 54t-72 19q-11 0 -20 -1t-17 -3l-46 -190h46zM441 670q0 5 0.5 9t0.5 9q0 21 -9 33t-32 12q-21 0 -37.5 -15.5t-22.5 -47.5h-91q3 37 18 65t37.5 46.5t50 27.5t54.5 9q24 0 46.5 -7.5t39.5 -22.5t27.5 -37t10.5 -51q0 -15 -3 -30h-90z" />
<glyph unicode="&#x213;" d="M488 348q-19 7 -45 11t-64 4q-26 0 -53.5 -3.5t-50.5 -11.5l-83 -348h-123l105 439q47 19 101.5 29.5t102.5 10.5q56 0 91.5 -5t65.5 -13zM423 527q0 5 0.5 9t0.5 9q0 21 -9 33t-32 12q-21 0 -37.5 -15.5t-22.5 -47.5h-91q3 37 18 65t37.5 46.5t50 27.5t54.5 9 q24 0 46.5 -7.5t39.5 -22.5t27.5 -37t10.5 -51q0 -15 -3 -30h-90z" />
<glyph unicode="&#x214;" d="M237 -13q-88 0 -129 42t-41 117q0 41 12 92l92 381h123l-91 -380q-5 -23 -9 -43.5t-4 -37.5q0 -30 14 -47t51 -17q22 0 38 6.5t28 22t21.5 41.5t18.5 65l94 390h123l-96 -399q-13 -55 -29.5 -98t-43.5 -73t-68.5 -46t-103.5 -16zM472 830l80 -139l-56 -40l-103 120z M301 830l80 -139l-57 -40l-103 120z" />
<glyph unicode="&#x215;" d="M221 -11q-81 0 -113 38t-32 104q0 46 14 107l56 232h123l-53 -224q-8 -30 -12 -54.5t-4 -43.5q0 -52 50 -52q28 0 44.5 11.5t31.5 28.5q2 14 3.5 27t6.5 30l66 277h123l-67 -278q-4 -18 -6.5 -35.5t-2.5 -35.5q0 -29 6 -56.5t15 -54.5l-108 -18l-5 10t-6 13t-5 12.5 t-3 8.5q-20 -15 -52 -31t-70 -16zM446 687l80 -139l-56 -40l-103 120zM275 687l80 -139l-57 -40l-103 120z" />
<glyph unicode="&#x216;" d="M237 -13q-88 0 -129 42t-41 117q0 41 12 92l92 381h123l-91 -380q-5 -23 -9 -43.5t-4 -37.5q0 -30 14 -47t51 -17q22 0 38 6.5t28 22t21.5 41.5t18.5 65l94 390h123l-96 -399q-13 -55 -29.5 -98t-43.5 -73t-68.5 -46t-103.5 -16zM441 670q0 5 0.5 9t0.5 9q0 21 -9 33 t-32 12q-21 0 -37.5 -15.5t-22.5 -47.5h-91q3 37 18 65t37.5 46.5t50 27.5t54.5 9q24 0 46.5 -7.5t39.5 -22.5t27.5 -37t10.5 -51q0 -15 -3 -30h-90z" />
<glyph unicode="&#x217;" d="M221 -11q-81 0 -113 38t-32 104q0 46 14 107l56 232h123l-53 -224q-8 -30 -12 -54.5t-4 -43.5q0 -52 50 -52q28 0 44.5 11.5t31.5 28.5q2 14 3.5 27t6.5 30l66 277h123l-67 -278q-4 -18 -6.5 -35.5t-2.5 -35.5q0 -29 6 -56.5t15 -54.5l-108 -18l-5 10t-6 13t-5 12.5 t-3 8.5q-20 -15 -52 -31t-70 -16zM414 527q0 5 0.5 9t0.5 9q0 21 -9 33t-32 12q-21 0 -37.5 -15.5t-22.5 -47.5h-91q3 37 18 65t37.5 46.5t50 27.5t54.5 9q24 0 46.5 -7.5t39.5 -22.5t27.5 -37t10.5 -51q0 -15 -3 -30h-90z" />
<glyph unicode="&#x218;" d="M236 90q23 0 44 4.5t36.5 15t25 26.5t9.5 40q0 18 -7.5 32.5t-20.5 26.5t-30.5 22t-37.5 20q-25 13 -46.5 26t-37 31t-24.5 43t-9 61q0 88 59.5 141.5t169.5 53.5q36 0 64.5 -5t50.5 -12t37.5 -15t25.5 -14l-52 -95q-23 16 -58 27t-84 11q-38 0 -64.5 -17t-26.5 -59 q0 -34 22.5 -51.5t54.5 -31.5q30 -14 55 -29t43 -35t28.5 -47t10.5 -64q0 -102 -65.5 -155.5t-185.5 -53.5q-40 0 -71.5 6t-54.5 14t-39.5 17.5t-26.5 16.5l53 94q10 -6 25.5 -14t35 -15t42.5 -11.5t49 -4.5zM166 -45h95q-12 -125 -145 -125q-14 0 -31 2.5t-22 4.5l14 59 q17 0 30.5 1t24.5 6.5t19 16t13 28.5z" />
<glyph unicode="&#x219;" d="M234 91q53 0 73 14t20 33q0 9 -3.5 16t-12 13.5t-23.5 13t-38 15.5q-28 10 -49 21t-35 25.5t-21 33.5t-7 45q0 73 51.5 117t154.5 44q51 0 93.5 -9t67.5 -21l-45 -97q-23 11 -52.5 18t-74.5 7q-10 0 -22.5 -1.5t-23.5 -6.5t-18.5 -13.5t-7.5 -21.5q0 -9 2.5 -15.5 t10.5 -13t23 -13.5t40 -16q30 -12 51.5 -24t36 -27t21 -35t6.5 -48q0 -29 -12 -57t-37.5 -50.5t-66.5 -36.5t-98 -14q-41 0 -72 5t-54 12t-38.5 14.5t-24.5 12.5l46 97q20 -11 55 -24t84 -13zM184 -45h95q-12 -125 -145 -125q-14 0 -31 2.5t-22 4.5l14 59q17 0 30.5 1 t24.5 6.5t19 16t13 28.5z" />
<glyph unicode="&#x21a;" d="M603 619l-24 -102h-164l-124 -517h-123l124 517h-163l24 102h450zM170 -45h95q-12 -125 -145 -125q-14 0 -31 2.5t-22 4.5l14 59q17 0 30.5 1t24.5 6.5t19 16t13 28.5z" />
<glyph unicode="&#x21b;" d="M204 368h-94l25 102h93l28 118l129 20l-34 -138h179l-25 -102h-178l-44 -183q-5 -25 -5 -39q0 -30 20.5 -40t46.5 -10q27 0 55.5 6.5t55.5 17.5l-1 -103q-31 -14 -68.5 -21t-74.5 -7q-80 0 -119.5 34.5t-39.5 100.5q0 16 2 32.5t7 35.5zM237 -45h95q-12 -125 -145 -125 q-14 0 -31 2.5t-22 4.5l14 59q17 0 30.5 1t24.5 6.5t19 16t13 28.5z" />
<glyph unicode="&#x21c;" d="M-4 -55q16 -2 34 -3t37 -1q50 0 99 9t87.5 29t62 51.5t23.5 77.5q0 29 -12 49.5t-32.5 33.5t-46 19t-52.5 6h-58l25 103h36q34 0 69.5 8t65 24t48.5 40.5t19 56.5q0 29 -22 53t-73 24q-17 0 -38 -2.5t-42 -6.5t-41 -9.5t-35 -12.5l-12 98q47 21 98 30.5t96 9.5 q90 0 142.5 -39.5t52.5 -124.5q0 -30 -11.5 -60t-32.5 -56.5t-50 -48.5t-63 -35q41 -22 68 -55.5t27 -93.5q0 -57 -22 -109t-71.5 -91t-129 -62t-194.5 -23q-20 0 -43 1t-41 3z" />
<glyph unicode="&#x21d;" d="M133 450q37 14 80.5 22.5t89.5 8.5q51 0 85.5 -11t56.5 -29t31.5 -42.5t9.5 -51.5q0 -51 -27.5 -93.5t-98.5 -70.5q46 -16 66 -45.5t20 -67.5q0 -34 -13.5 -71t-50.5 -70t-102.5 -57.5t-170.5 -33.5q-25 -2 -52.5 -3.5t-57.5 -1.5l19 107q54 1 108 7t97 20t70 37t27 58 q0 38 -36 53t-97 15h-32l27 103q39 0 71.5 5.5t56 16.5t37 27.5t13.5 39.5q0 15 -8 25t-21 16t-30 8.5t-34 2.5q-35 0 -69.5 -8.5t-56.5 -17.5z" />
<glyph unicode="&#x21e;" d="M586 619l-149 -619h-124l67 273h-165l-66 -273h-123l149 619h123l-59 -244h165l59 244h123zM274 784l54 46l74 -69l101 69l41 -55l-160 -126z" />
<glyph unicode="&#x21f;" d="M279 468q17 5 35 8.5t35 3.5q74 0 111 -35.5t37 -100.5q0 -17 -2.5 -37t-7.5 -42l-64 -265h-123l60 249q3 16 7 33t4 34q0 23 -12 40.5t-46 17.5q-13 0 -28.5 -2.5t-29.5 -8.5l-88 -363h-123l146 613l128 21zM220 788l45 42l72 -56l95 56l34 -48l-139 -104z" />
<glyph unicode="&#x220;" d="M173 605q38 9 86.5 18t109.5 9q48 0 80 -13t51.5 -36.5t27.5 -54.5t8 -67q0 -19 -2.5 -40t-7.5 -41l-130 -545h-124l131 545q3 13 6 31t3 37q0 30 -15.5 52.5t-51.5 22.5q-15 0 -33 -1t-38 -6l-123 -516h-123z" />
<glyph unicode="&#x221;" d="M227 11q-11 -5 -27.5 -10t-36.5 -5q-51 0 -85 42t-34 114q0 81 22.5 141.5t58 101t78 60.5t82.5 20q21 0 37 -2t26 -5l49 205l116 20l-138 -572q16 4 32 4q44 0 70 -33.5t26 -81.5q0 -39 -12 -71t-32.5 -55.5t-48.5 -36t-61 -12.5q-50 0 -74.5 28t-29.5 66l-94 -85 l-46 57zM359 -81q22 0 39.5 20.5t17.5 60.5q0 16 -8 29.5t-26 13.5q-9 0 -18.5 -3.5t-17.5 -8.5l-11 -36q-5 -17 -5 -34t6 -29.5t23 -12.5zM285 379q-20 0 -44 -11.5t-44.5 -37t-34.5 -67t-14 -100.5q0 -13 3 -26.5t9.5 -24t17.5 -17.5t26 -7q17 0 33.5 6.5t25.5 14.5 l62 262q-7 5 -17.5 6.5t-22.5 1.5z" />
<glyph unicode="&#x222;" d="M241 -13q-92 0 -144 41.5t-52 109.5q0 81 43.5 133.5t115.5 74.5q-29 17 -39 42.5t-10 49.5q0 48 15.5 91.5t38.5 89.5h116q-4 -9 -11.5 -28.5t-15 -44t-13 -51.5t-5.5 -49q0 -26 12 -42.5t37 -16.5q30 0 49.5 22t31.5 54q7 19 12 41t8 43t4.5 39.5t2.5 32.5h116 q0 -51 -8.5 -108t-36.5 -104q-14 -23 -31.5 -40.5t-42.5 -30.5q36 -19 56 -49t20 -72q0 -57 -20 -100t-56 -71.5t-85.5 -42.5t-107.5 -14zM258 94q60 0 94 30.5t34 84.5q0 35 -23.5 53.5t-59.5 18.5q-60 0 -94 -30.5t-34 -84.5q0 -35 23.5 -53.5t59.5 -18.5z" />
<glyph unicode="&#x223;" d="M336 437q36 0 58 30t34.5 71.5t18 84.5t8.5 70h123q-2 -48 -8 -100t-26 -96q-15 -35 -38 -61t-66 -43q18 -10 30.5 -25.5t20 -33.5t11 -38.5t3.5 -40.5q0 -55 -19.5 -103.5t-55 -85t-85.5 -58t-110 -21.5q-43 0 -76 13t-55.5 35.5t-34 53.5t-11.5 66q0 38 10 74.5 t29.5 68t48.5 56t66 39.5q-28 17 -39.5 41.5t-11.5 55.5q0 51 17 101.5t39 101.5h121q-18 -42 -36 -92t-18 -98q0 -29 14.5 -47.5t37.5 -18.5zM254 93q29 0 53 15t41 38.5t26.5 52t9.5 56.5q0 35 -19 55.5t-54 20.5q-29 0 -53.5 -14.5t-41.5 -38t-26.5 -52t-9.5 -55.5 q0 -36 19 -57t55 -21z" />
<glyph unicode="&#x224;" d="M28 0l20 81q31 42 66.5 88t79 98.5t97 114.5t119.5 136h-250l25 101h386l-24 -100q-58 -65 -107 -121t-92 -106.5t-82 -97.5t-76 -93h269l-28 -122q-7 -31 -18.5 -58t-30.5 -46.5t-47.5 -30.5t-70.5 -11q-22 0 -41.5 3.5t-36.5 11.5l29 80q27 -11 50 -11t39 12.5t22 38.5 l8 32h-306z" />
<glyph unicode="&#x225;" d="M466 380q-20 -17 -52.5 -47.5t-71.5 -68t-81 -79.5t-80 -83h222l-27 -123q-8 -31 -19.5 -58t-30.5 -46.5t-47.5 -30.5t-69.5 -11q-23 0 -42.5 3.5t-36.5 11.5l29 80q27 -11 50 -11t39 12.5t22 38.5l8 32h-272l20 81q27 32 61.5 69.5t72 76t75 75t69.5 66.5h-204l25 102 h362z" />
<glyph unicode="&#x226;" d="M356 144h-176q-15 -34 -31 -70t-30 -74h-125q85 186 164 341.5t154 277.5h131q14 -118 22.5 -249.5t10.5 -280.5v-89h-124zM352 502q-13 -25 -25.5 -49t-27 -53.5t-32.5 -67.5t-41 -89h132q1 51 0.5 89t-1.5 67.5t-2.5 54t-2.5 48.5zM390 675q-28 0 -45.5 16t-17.5 45 q0 38 23.5 58t52.5 20q27 0 46 -16t19 -46q0 -18 -7 -32t-18 -24t-25 -15.5t-28 -5.5z" />
<glyph unicode="&#x227;" d="M251 94q28 0 47 12.5t33 29.5q2 14 4 27t6 30l43 178q-11 3 -23 4t-23 1q-35 0 -63 -16.5t-48 -43.5t-30.5 -62t-10.5 -72q0 -26 4.5 -43t13 -27t20.5 -14t27 -4zM206 -11q-66 1 -104 47.5t-38 135.5q0 68 23 125t63 97.5t93.5 63t113.5 22.5q41 0 83 -8t85 -25l-62 -255 q-4 -18 -6 -35.5t-2 -35.5q0 -29 5.5 -56.5t14.5 -54.5l-108 -18l-5 10t-6 13t-5 12.5t-3 8.5q-20 -15 -54 -31t-88 -16zM386 536q-28 0 -45.5 16t-17.5 45q0 38 23.5 58t52.5 20q27 0 46 -16t19 -46q0 -18 -7 -32t-18 -24t-25 -15.5t-28 -5.5z" />
<glyph unicode="&#x228;" d="M285 -25q22 -11 31 -26t9 -33q0 -41 -34.5 -63.5t-88.5 -22.5q-48 0 -86 20l26 58q11 -6 25.5 -9.5t28.5 -3.5q23 0 30.5 9t7.5 16q0 11 -5.5 18.5t-20.5 12.5l-18 6l29 43h-166l148 619h367l-24 -102h-244l-34 -139h212l-24 -102h-212l-42 -174h266l-24 -102h-140 q-5 -6 -9 -12t-8 -13z" />
<glyph unicode="&#x229;" d="M295 -25q22 -11 31 -26t9 -33q0 -41 -34.5 -63.5t-88.5 -22.5q-48 0 -86 20l26 58q11 -6 25.5 -9.5t28.5 -3.5q23 0 30.5 9t7.5 16q0 11 -5.5 18.5t-20.5 12.5l-18 6q7 11 13 20t12 17q-80 15 -115 66t-35 123q0 58 19.5 112.5t57 95.5t91 66t122.5 25t113 -34t44 -95 q0 -51 -25 -86.5t-69 -57.5t-103.5 -32t-128.5 -10q0 -18 6 -32.5t19.5 -24.5t36 -15.5t56.5 -5.5q40 0 76 8.5t53 16.5l8 -93q-23 -11 -61.5 -21t-85.5 -12zM342 384q-46 0 -87.5 -31.5t-57.5 -100.5q63 0 103.5 8t63.5 20.5t32 27.5t9 28q0 23 -16.5 35.5t-46.5 12.5z" />
<glyph unicode="&#x22a;" d="M367 593q81 0 127 -47t46 -125q0 -37 -6 -84t-20 -95t-37 -94t-56 -82t-77.5 -57.5t-102.5 -21.5q-82 0 -128 47t-46 125q0 37 6 84t20.5 95t37 94t56 82t78 57.5t102.5 21.5zM255 94q41 0 71.5 33t50.5 81.5t30 103.5t10 100q0 31 -13 52.5t-51 21.5q-41 0 -72 -33 t-51 -81.5t-30 -103.5t-10 -100q0 -31 13.5 -52.5t51.5 -21.5zM303 621q-22 0 -36 13.5t-14 35.5q0 29 18.5 46.5t41.5 17.5q20 0 35 -14t15 -37q0 -13 -5.5 -24.5t-14.5 -19.5t-19.5 -13t-20.5 -5zM467 621q-21 0 -35.5 13.5t-14.5 35.5q0 29 18.5 46.5t41.5 17.5 q21 0 36 -14t15 -37q0 -26 -19.5 -44t-41.5 -18zM308 830h232l-17 -71h-232z" />
<glyph unicode="&#x22b;" d="M256 94q30 0 53 18t39.5 45t25 58.5t8.5 59.5q0 47 -13.5 74t-55.5 27q-29 0 -52.5 -18t-39.5 -45t-24.5 -58.5t-8.5 -59.5q0 -47 13.5 -74t54.5 -27zM231 -13q-84 0 -125 48t-41 128q0 60 18 117t53 102t87 72.5t120 27.5q73 0 117.5 -44.5t44.5 -132.5q0 -59 -17 -116 t-51.5 -102t-86 -72.5t-119.5 -27.5zM298 523q-22 0 -36 13.5t-14 35.5q0 29 18.5 46.5t41.5 17.5q20 0 35 -14t15 -37q0 -13 -5.5 -24.5t-14.5 -19.5t-19.5 -13t-20.5 -5zM462 523q-21 0 -35.5 13.5t-14.5 35.5q0 29 18.5 46.5t41.5 17.5q21 0 36 -14t15 -37 q0 -26 -19.5 -44t-41.5 -18zM303 732h232l-17 -71h-232z" />
<glyph unicode="&#x22c;" d="M367 593q81 0 127 -47t46 -125q0 -37 -6 -84t-20 -95t-37 -94t-56 -82t-77.5 -57.5t-102.5 -21.5q-82 0 -128 47t-46 125q0 37 6 84t20.5 95t37 94t56 82t78 57.5t102.5 21.5zM255 94q41 0 71.5 33t50.5 81.5t30 103.5t10 100q0 31 -13 52.5t-51 21.5q-41 0 -72 -33 t-51 -81.5t-30 -103.5t-10 -100q0 -31 13.5 -52.5t51.5 -21.5zM300 830h241l-17 -71h-241zM523 705q-20 -38 -44.5 -57.5t-58.5 -19.5q-14 0 -25.5 4t-21 8.5t-18 8.5t-17.5 4q-11 0 -22 -7t-24 -26l-48 33q20 38 44.5 57.5t58.5 19.5q14 0 25.5 -4t21 -9t18.5 -9t18 -4 q10 0 21 7t24 26z" />
<glyph unicode="&#x22d;" d="M256 94q30 0 53 18t39.5 45t25 58.5t8.5 59.5q0 47 -13.5 74t-55.5 27q-29 0 -52.5 -18t-39.5 -45t-24.5 -58.5t-8.5 -59.5q0 -47 13.5 -74t54.5 -27zM231 -13q-84 0 -125 48t-41 128q0 60 18 117t53 102t87 72.5t120 27.5q73 0 117.5 -44.5t44.5 -132.5q0 -59 -17 -116 t-51.5 -102t-86 -72.5t-119.5 -27.5zM295 732h241l-17 -71h-241zM518 607q-20 -38 -44.5 -57.5t-58.5 -19.5q-14 0 -25.5 4t-21 8.5t-18 8.5t-17.5 4q-11 0 -22 -7t-24 -26l-48 33q20 38 44.5 57.5t58.5 19.5q14 0 25.5 -4t21 -9t18.5 -9t18 -4q10 0 21 7t24 26z" />
<glyph unicode="&#x22e;" d="M367 633q81 0 127 -52.5t46 -139.5q0 -39 -6 -88t-20 -99.5t-37 -98.5t-56 -85.5t-77.5 -60t-102.5 -22.5q-82 0 -128 52.5t-46 139.5q0 39 6 88t20.5 99.5t37 98.5t56 85.5t78 60t102.5 22.5zM255 94q41 0 71.5 35t50.5 86.5t30 110t10 106.5q0 39 -13.5 66.5 t-50.5 27.5q-41 0 -72 -35t-51 -86.5t-30 -110.5t-10 -106q0 -39 13.5 -66.5t51.5 -27.5zM413 675q-28 0 -45.5 16t-17.5 45q0 38 23.5 58t52.5 20q27 0 46 -16t19 -46q0 -18 -7 -32t-18 -24t-25 -15.5t-28 -5.5z" />
<glyph unicode="&#x22f;" d="M256 94q30 0 53 18t39.5 45t25 58.5t8.5 59.5q0 47 -13.5 74t-55.5 27q-29 0 -52.5 -18t-39.5 -45t-24.5 -58.5t-8.5 -59.5q0 -47 13.5 -74t54.5 -27zM231 -13q-84 0 -125 48t-41 128q0 60 18 117t53 102t87 72.5t120 27.5q73 0 117.5 -44.5t44.5 -132.5q0 -59 -17 -116 t-51.5 -102t-86 -72.5t-119.5 -27.5zM379 536q-28 0 -45.5 16t-17.5 45q0 38 23.5 58t52.5 20q27 0 46 -16t19 -46q0 -18 -7 -32t-18 -24t-25 -15.5t-28 -5.5z" />
<glyph unicode="&#x230;" d="M367 593q81 0 127 -47t46 -125q0 -37 -6 -84t-20 -95t-37 -94t-56 -82t-77.5 -57.5t-102.5 -21.5q-82 0 -128 47t-46 125q0 37 6 84t20.5 95t37 94t56 82t78 57.5t102.5 21.5zM255 94q41 0 71.5 33t50.5 81.5t30 103.5t10 100q0 31 -13 52.5t-51 21.5q-41 0 -72 -33 t-51 -81.5t-30 -103.5t-10 -100q0 -31 13.5 -52.5t51.5 -21.5zM393 621q-21 0 -35.5 13.5t-14.5 35.5q0 29 18.5 46.5t41.5 17.5q21 0 36 -14t15 -37q0 -26 -19.5 -44t-41.5 -18zM319 830h232l-17 -71h-232z" />
<glyph unicode="&#x231;" d="M256 94q30 0 53 18t39.5 45t25 58.5t8.5 59.5q0 47 -13.5 74t-55.5 27q-29 0 -52.5 -18t-39.5 -45t-24.5 -58.5t-8.5 -59.5q0 -47 13.5 -74t54.5 -27zM231 -13q-84 0 -125 48t-41 128q0 60 18 117t53 102t87 72.5t120 27.5q73 0 117.5 -44.5t44.5 -132.5q0 -59 -17 -116 t-51.5 -102t-86 -72.5t-119.5 -27.5zM370 523q-21 0 -35.5 13.5t-14.5 35.5q0 29 18.5 46.5t41.5 17.5q21 0 36 -14t15 -37q0 -26 -19.5 -44t-41.5 -18zM296 732h232l-17 -71h-232z" />
<glyph unicode="&#x232;" d="M311 340q16 23 39 57.5t47 73t47.5 77.5t41.5 71h132q-31 -51 -61.5 -99t-62.5 -95t-67.5 -93.5t-75.5 -95.5l-57 -236h-123l56 235q-31 97 -51 189.5t-34 194.5h121q6 -72 19.5 -144.5t28.5 -134.5zM281 786h287l-21 -87h-288z" />
<glyph unicode="&#x233;" d="M549 470q-26 -69 -51 -128t-51.5 -112t-55.5 -101.5t-62 -95.5q-25 -36 -53.5 -71.5t-62 -64.5t-73.5 -47t-87 -18q-62 0 -96 21l39 98q16 -7 30 -10.5t36 -3.5q73 0 121 72q-24 96 -43.5 208.5t-26.5 252.5h128q1 -36 3.5 -79t6.5 -87t9.5 -87t12.5 -78q46 70 81 151.5 t64 179.5h131zM236 647h287l-21 -87h-288z" />
<glyph unicode="&#x234;" d="M278 591h-131l24 102h254l-137 -575q17 8 31 11t26 3q31 0 53 -9.5t36 -26t21 -38t7 -45.5q0 -32 -12.5 -63.5t-35.5 -57t-57.5 -41.5t-77.5 -16q-44 0 -78.5 20.5t-47.5 73.5l-96 -85l-50 61l135 120zM264 16q-7 -23 -9 -31.5t-2 -16.5q0 -18 8.5 -32t34.5 -14 q15 0 27.5 7t21 17.5t13 23.5t4.5 26q0 17 -8.5 29.5t-31.5 12.5q-29 0 -58 -22z" />
<glyph unicode="&#x235;" d="M153 -156l-49 61l144 130l53 221q3 14 6.5 32t3.5 35q0 23 -8.5 40.5t-36.5 17.5q-8 0 -21 -1t-24 -3l-91 -377h-109l108 455q33 9 74.5 17t93.5 8q36 0 60 -10.5t38.5 -28.5t20.5 -42t6 -51q0 -41 -11 -85l-35 -142q9 2 17.5 3t15.5 1q44 0 70 -33.5t26 -81.5 q0 -39 -12 -71t-32.5 -55.5t-48.5 -36t-61 -12.5q-50 0 -74.5 28t-30.5 66zM361 -81q22 0 39.5 20.5t17.5 60.5q0 16 -8 29.5t-26 13.5q-10 0 -19 -3.5t-18 -8.5q-5 -17 -8 -28.5t-4.5 -19.5t-2 -13t-0.5 -9q0 -17 6 -29.5t23 -12.5z" />
<glyph unicode="&#x236;" d="M204 368h-108l25 102h107l28 118l129 20l-34 -138h189l-25 -102h-188l-60 -250q17 8 31 11t26 3q31 0 53 -9.5t36 -26t21 -38t7 -45.5q0 -32 -12.5 -63.5t-35.5 -57t-57.5 -41.5t-77.5 -16t-78 20.5t-48 73.5l-95 -85l-50 61l140 124zM242 13q-6 -20 -8 -30.5t-2 -14.5 q0 -18 8.5 -32t35.5 -14q15 0 27 7t20.5 17.5t13 23.5t4.5 26q0 17 -8 29.5t-31 12.5q-16 0 -31 -5.5t-29 -19.5z" />
<glyph unicode="&#x237;" d="M367 25q-14 -57 -33.5 -95t-45.5 -60t-59 -31t-74 -9q-51 0 -93 12.5t-68 32.5l48 99q22 -14 47 -25t57 -11q38 0 62 18.5t36 68.5l82 343h-190l25 102h313z" />
<glyph unicode="&#x238;" d="M237 13q-23 -12 -45.5 -19t-42.5 -7q-55 0 -81.5 37t-26.5 108q0 38 6.5 78.5t19 79t30 73t38.5 60.5t45.5 41.5t51.5 15.5q13 0 30 -4.5t28 -15.5l51 212l102 21l-55 -230q16 8 28 12.5t26 4.5q38 0 62 -37.5t24 -100.5q0 -31 -5.5 -70t-16.5 -78t-28.5 -76.5 t-41.5 -66.5t-55.5 -46.5t-69.5 -17.5q-18 0 -38 6.5t-36 19.5zM324 82q21 0 40.5 23t34 59t23.5 80.5t9 88.5q0 23 -7 37.5t-20 14.5q-19 0 -39 -16l-68 -281q5 -2 12 -4t15 -2zM237 385q-20 0 -38 -26t-31.5 -64t-21.5 -81t-8 -77q0 -26 10.5 -40.5t24.5 -14.5q8 0 15.5 2 t12.5 4l68 281q-7 8 -14 12t-18 4z" />
<glyph unicode="&#x239;" d="M245 385q-21 0 -40.5 -22.5t-34 -58t-23.5 -80t-9 -88.5q0 -23 7 -38.5t20 -15.5q11 0 19.5 4t19.5 12l67 281q-4 2 -11 4t-15 2zM332 82q21 0 39 26t31.5 63.5t21 80.5t7.5 77q0 26 -10.5 41t-24.5 15q-8 0 -15.5 -2t-12.5 -4l-70 -288q12 -9 34 -9zM239 -165h-96 l41 171q-17 -10 -30 -13.5t-27 -3.5q-38 0 -62 37.5t-24 100.5q0 31 5.5 69.5t16.5 78t28.5 76.5t41.5 65.5t55 46t70 17.5q18 0 38 -6.5t36 -19.5q23 12 45.5 19t42.5 7q55 0 81.5 -37.5t26.5 -109.5q0 -57 -13.5 -117.5t-38.5 -110.5t-60.5 -82.5t-78.5 -32.5 q-18 0 -32 3.5t-25 8.5z" />
<glyph unicode="&#x23a;" d="M452 463q11 -101 19.5 -213t13.5 -250h-124l6 144h-73l-119 -237l-64 24l105 213h-50q-15 -34 -32 -70t-31 -74h-125q85 186 167.5 341.5t157.5 277.5h131l4 -34l54 106l63 -22zM343 502q-13 -25 -25.5 -49t-27 -53.5t-32 -67.5t-41.5 -89h40l97 191q-3 21 -5.5 34 t-5.5 34zM366 307l-35 -64h39z" />
<glyph unicode="&#x23b;" d="M149 27q-35 29 -52.5 74.5t-17.5 103.5q0 75 19.5 151.5t60.5 138t104.5 100t152.5 38.5q13 0 24.5 -1t22.5 -2l40 75l79 -34l-35 -69q14 -8 23.5 -14t16.5 -12l-46 -95q-10 7 -21 13.5t-24 12.5l-215 -410q8 -1 16.5 -1.5t17.5 -0.5q53 0 87 13t63 30l14 -99 q-25 -17 -75 -34.5t-120 -17.5q-33 0 -58 7l-44 -85l-77 34zM203 217q0 -19 2 -35.5t8 -30.5l196 375h-5q-54 0 -92 -29t-62.5 -74t-35.5 -99.5t-11 -106.5z" />
<glyph unicode="&#x23c;" d="M77 182q0 65 23 120t64.5 94.5t98.5 62t126 22.5h15t14 -1l36 70l62 -20l-30 -59q24 -7 45 -16l-44 -98q-21 10 -53 14l-142 -274q7 -1 14 -1h15q39 0 72.5 7.5t50.5 15.5l12 -98q-12 -6 -26 -12t-33 -10.5t-44.5 -7t-60.5 -2.5q-15 0 -28 1t-26 3l-37 -72l-59 20l35 69 q-55 23 -77.5 69.5t-22.5 102.5zM201 187q0 -23 6.5 -41t23.5 -30l132 257q-35 -4 -65 -18t-51.5 -37.5t-33.5 -56.5t-12 -74z" />
<glyph unicode="&#x23d;" d="M429 0h-354l67 282h-68l24 98h68l57 239h123l-57 -239h118l-24 -98h-118l-43 -180h231z" />
<glyph unicode="&#x23e;" d="M209 248l65 269h-163l24 102h411l52 58l51 -52l-307 -337l-69 -288h-123l24 103l-130 -144l-50 52zM377 433l76 84h-56z" />
<glyph unicode="&#x23f;" d="M95 128q20 -11 55 -24t84 -13q53 0 73 14t20 33q0 9 -3.5 16t-12 13.5t-23.5 13t-38 15.5q-28 10 -49 21t-35 25.5t-21 33.5t-7 45q0 73 51.5 117t154.5 44q51 0 93.5 -9t67.5 -21l-45 -97q-23 11 -52.5 18t-74.5 7q-10 0 -22.5 -1.5t-23.5 -6.5t-18.5 -13.5t-7.5 -21.5 q0 -9 2.5 -15.5t10.5 -13t23 -13.5t40 -16q30 -12 51.5 -24t36 -27t21 -35t6.5 -48q0 -29 -10.5 -56t-34.5 -47.5t-63 -33t-97 -12.5q-22 0 -43 3q31 -44 60 -57t57 -13q20 0 55 7l-9 -90q-22 -7 -39 -9t-43 -2q-52 0 -82.5 24.5t-53.5 57.5t-45 65.5t-55 48.5z" />
<glyph unicode="&#x240;" d="M196 71q31 -5 52.5 -26.5t40.5 -46.5t39.5 -44.5t50.5 -19.5q14 0 28.5 1.5t29.5 3.5l-11 -93q-23 -7 -44 -9t-37 -2q-31 0 -52 12t-37.5 30.5t-31.5 40t-34 40t-46 30.5t-66 12h-29l21 81q27 32 61.5 69.5t72 76t74.5 75t69 66.5h-203l25 102h361l-21 -90 q-20 -17 -57.5 -52t-82 -78.5t-90.5 -90.5t-83 -88z" />
<glyph unicode="&#x241;" d="M242 0h-123l45 195q9 40 31 68.5t49.5 49.5t57 38t54 34t40 35.5t15.5 44.5q0 24 -18.5 42t-58.5 18q-30 0 -72.5 -8.5t-80.5 -25.5l-14 97q40 22 90.5 33.5t101.5 11.5q36 0 68 -6.5t56.5 -23t39 -44.5t14.5 -71q0 -46 -16.5 -78t-42.5 -56t-57 -44t-60 -41t-51.5 -47.5 t-30.5 -63.5z" />
<glyph unicode="&#x242;" d="M267 0h-123l27 109q9 35 27.5 59t42 41t48 30t45 26t33.5 29.5t13 40.5q0 18 -12.5 30t-43.5 12q-17 0 -36.5 -2.5t-38.5 -6.5t-36 -9t-28 -10l-9 98q18 8 41 14.5t46.5 11t45.5 7t40 2.5q30 0 56.5 -6t47 -20.5t32.5 -37.5t12 -56q0 -43 -13.5 -72.5t-34.5 -50.5 t-46 -36t-47.5 -29t-40 -29.5t-22.5 -37.5z" />
<glyph unicode="&#x243;" d="M218 -8q-14 0 -34 1t-42 3.5t-44 6.5t-41 10l33 138h-55l19 79h55l91 377q19 5 40.5 8.5t42.5 6t39.5 3.5t32.5 1q81 0 131 -34t50 -112q0 -45 -24.5 -86.5t-88.5 -66.5q42 -20 61 -49.5t19 -73.5q0 -48 -18.5 -87t-54.5 -66.5t-89 -43t-123 -15.5zM238 272l-10 -42h62 l-19 -79h-61l-12 -50q9 -2 25 -3t39 -1q16 0 37 5t40 17t31.5 33t12.5 53q0 40 -24.5 53.5t-62.5 13.5h-58zM263 371h32q22 0 44.5 4.5t40 15.5t28.5 29t11 44q0 32 -19 45t-54 13q-13 0 -26 -0.5t-22 -2.5z" />
<glyph unicode="&#x244;" d="M124 390l55 229h123l-56 -229h143l56 229h123l-55 -229h55l-24 -98h-55l-17 -72q-13 -55 -29 -98t-41.5 -73t-65 -46t-98.5 -16q-84 0 -123.5 41t-39.5 116q0 20 3 44t10 50l12 54h-57l24 98h57zM255 94q20 0 34.5 6.5t25.5 22t19.5 41.5t16.5 65l15 63h-143l-12 -53 q-6 -24 -10 -45t-4 -39q0 -29 13 -45t45 -16z" />
<glyph unicode="&#x245;" d="M442 619q8 -59 14 -128t10.5 -142.5t7 -148.5t2.5 -145v-29t-1 -26h-126q2 47 3 107t1 126q0 70 -1.5 137t-5.5 124q-27 -52 -58 -118t-61.5 -133.5t-58 -131t-46.5 -111.5h-127q25 60 59.5 134t75 155.5t86.5 165.5t95 164h131z" />
<glyph unicode="&#x246;" d="M220 0l-64 -103l-69 27l47 76h-95l149 619h329l38 61l72 -25l-172 -277h49l-24 -102h-88l-108 -174h181l-25 -102h-220zM253 378h115l86 139h-168zM187 102h10l108 174h-76z" />
<glyph unicode="&#x247;" d="M441 20q-40 -16 -82 -24.5t-85 -8.5q-10 0 -19 0.5t-17 1.5l-29 -69l-67 18l29 68q-43 19 -69 61t-26 117q0 57 20 110.5t57.5 95.5t92.5 67t125 25l28 66l64 -18l-25 -60q38 -14 61 -44.5t23 -75.5q0 -27 -9 -53.5t-31.5 -49t-62 -38.5t-99.5 -22l-42 -102h8 q38 0 77.5 10.5t68.5 21.5zM194 258q24 0 45 1t40 3l51 123q-27 -3 -49 -15.5t-39 -30t-29 -38.5t-19 -43zM421 348q0 24 -17 39l-47 -111q21 6 34 14.5t19.5 18t8.5 20t2 19.5zM185 161q0 -21 7.5 -35t19.5 -22l33 78q-14 0 -27.5 0.5t-29.5 1.5q-3 -12 -3 -23z" />
<glyph unicode="&#x248;" d="M482 376h73l-24 -98h-72l-17 -71q-11 -47 -27 -87.5t-42.5 -70t-67 -46t-101.5 -16.5q-29 0 -54.5 6.5t-46.5 16.5t-37.5 22t-27.5 23l63 89q20 -18 46.5 -34t54.5 -16q46 0 74 25.5t45 94.5l15 64h-128l23 98h128l34 141h-182l24 102h305z" />
<glyph unicode="&#x249;" d="M305 283l21 85h-190l25 102h313l-45 -187h60l-19 -83h-61l-42 -175q-14 -57 -33.5 -95t-45.5 -60t-59 -31t-74 -9q-51 0 -93 12.5t-68 32.5l48 99q22 -14 47 -25t57 -11q38 0 62 18.5t36 68.5l42 175h-190l19 83h190zM396 527q-32 0 -52 17t-20 53q0 19 7 35.5t18.5 27.5 t26.5 17.5t31 6.5q30 0 51.5 -17t21.5 -55q0 -18 -7.5 -34t-19.5 -27t-27 -17.5t-30 -6.5z" />
<glyph unicode="&#x24a;" d="M361 633q48 0 79 -14.5t49.5 -39.5t26 -58.5t7.5 -70.5q0 -17 -1 -35.5t-5 -43.5t-11 -59.5t-19 -83.5l-52 -212q-2 -8 -4 -19.5t-2 -22.5q0 -15 6 -26t24 -11q15 0 30 5l-9 -98q-21 -8 -34.5 -9.5t-24.5 -1.5q-31 0 -51.5 7t-32.5 20.5t-16.5 31.5t-4.5 41q0 33 9 71 l6 26q-20 -22 -53.5 -32.5t-62.5 -10.5q-72 0 -108 50.5t-36 141.5q0 37 6 85t19.5 98.5t35.5 99t54 86.5t75.5 61.5t99.5 23.5zM248 94q25 0 46.5 17t38.5 44.5t29.5 63.5t21 73.5t13 74t4.5 65.5q0 19 -1.5 36.5t-7 30t-16.5 20t-30 7.5q-38 0 -66.5 -35t-48 -86.5 t-29.5 -110.5t-10 -106q0 -20 1.5 -37t7.5 -29.5t17 -20t30 -7.5z" />
<glyph unicode="&#x24b;" d="M415 4q-2 -11 -4 -21.5t-2 -18.5q0 -14 6.5 -22t23.5 -8q9 0 17.5 1t16.5 3l-8 -96q-20 -6 -35.5 -7.5t-38.5 -1.5q-21 0 -40.5 5.5t-35 18.5t-25 32.5t-9.5 48.5q0 25 7 54l6 21q-22 -11 -42.5 -16.5t-44.5 -5.5q-65 0 -101 46t-36 135q0 69 23 125.5t62 97t91.5 63 t111.5 22.5q41 0 80.5 -8t83.5 -25zM380 371q-11 3 -20.5 4t-20.5 1q-34 0 -61 -16.5t-46.5 -43.5t-30 -62t-10.5 -72q0 -26 4.5 -43t12.5 -27t19 -14t25 -4q16 0 34 6.5t33 17.5z" />
<glyph unicode="&#x24c;" d="M384 253q14 -25 27.5 -56t25.5 -64.5t21.5 -67.5t15.5 -65h-116q-11 60 -30.5 116t-46.5 112h-43l-55 -228h-117l55 228h-69l24 102h69l67 279q38 9 79 13t64 4q91 0 135 -43.5t44 -117.5q0 -35 -9.5 -68.5t-28 -62t-47 -50t-65.5 -31.5zM287 330q26 0 49.5 7t41 22 t27.5 38t10 54q0 35 -16.5 54t-58.5 19q-8 0 -18 -1t-15 -3l-45 -190h25z" />
<glyph unicode="&#x24d;" d="M488 348q-38 15 -111 15q-26 0 -48 -3.5t-45 -11.5l-22 -92h156l-20 -83h-156l-41 -173h-123l41 173h-60l20 83h60l44 183q47 19 96 29.5t97 10.5q57 0 93 -4t66 -14z" />
<glyph unicode="&#x24e;" d="M612 619l-65 -107h49l-22 -88h-84q-31 -47 -64.5 -93.5t-74.5 -94.5l-57 -236h-123l56 235q-16 48 -28 95t-21 94h-86l21 88h50q-5 26 -9 52t-8 55h117q2 -27 4.5 -54t6.5 -53h151q17 28 32 56t29 51h126zM308 324q14 19 30.5 44.5t34.5 55.5h-85q5 -27 9.5 -52t10.5 -48 z" />
<glyph unicode="&#x24f;" d="M529 241h-82q-26 -57 -55 -107.5t-64 -100.5q-24 -36 -52.5 -71.5t-62 -64.5t-73.5 -47t-87 -18q-62 0 -96 21l39 98q16 -7 30 -10.5t36 -3.5q73 0 121 72q-14 52 -25.5 109t-19.5 123h-80l20 83h51q-4 35 -6 71t-2 75h126q1 -31 1.5 -68.5t2.5 -77.5h113 q13 35 24.5 71.5t23.5 74.5h129q-14 -40 -28.5 -76t-28.5 -70h64zM271 129q17 26 31.5 53.5t28.5 58.5h-76q3 -31 6.5 -59.5t9.5 -52.5z" />
<glyph unicode="&#x292;" d="M179 204q18 16 41 37.5t46.5 44t45.5 44t39 38.5h-229l25 102h371l-19 -77q-14 -14 -35 -35.5t-47 -47t-54 -52t-55 -49.5q57 -11 91.5 -51.5t34.5 -95.5q0 -56 -20.5 -98.5t-56 -71t-83.5 -43t-103 -14.5q-23 0 -47 3t-46.5 7.5t-41.5 11t-32 14.5l37 97 q26 -13 64 -20.5t74 -7.5q54 0 91.5 30t37.5 87q0 42 -31 61t-85 19h-29z" />
<glyph unicode="&#x2bc;" d="M435 693q-9 -36 -18.5 -62.5t-21.5 -48.5t-27 -43t-35 -45l-79 28q15 24 26.5 44.5t19 40.5t12 41t7.5 45h116z" />
<glyph unicode="&#x2c6;" d="M501 556l-54 -46l-74 69l-101 -69l-41 55l160 126z" />
<glyph unicode="&#x2c7;" d="M247 645l54 46l74 -69l101 69l41 -55l-160 -126z" />
<glyph unicode="&#x2c9;" d="M236 647h287l-21 -87h-288z" />
<glyph unicode="&#x2d8;" d="M336 682q-1 -5 -1.5 -9t-0.5 -9q0 -21 9.5 -33t31.5 -12t38.5 15.5t21.5 47.5h91q-3 -37 -18 -65t-37.5 -46.5t-50 -27.5t-54.5 -9q-24 0 -46.5 7t-39.5 22t-27.5 37t-10.5 52q0 17 4 30h90z" />
<glyph unicode="&#x2d9;" d="M359 536q-28 0 -45.5 16t-17.5 45q0 38 23.5 58t52.5 20q27 0 46 -16t19 -46q0 -18 -7 -32t-18 -24t-25 -15.5t-28 -5.5z" />
<glyph unicode="&#x2da;" d="M480 624q0 -50 -31.5 -76t-74.5 -26q-20 0 -39 6.5t-33.5 19.5t-23 32t-8.5 44t8.5 44.5t23 32.5t33.5 19.5t39 6.5q43 0 74.5 -26t31.5 -77zM415 624q0 21 -12 31.5t-29 10.5q-15 0 -27.5 -10.5t-12.5 -31.5q0 -20 12.5 -31t27.5 -11q17 0 29 11t12 31z" />
<glyph unicode="&#x2db;" d="M280 -156q-17 -6 -39.5 -10t-45.5 -4q-55 0 -77 16t-22 37q0 15 6 30.5t20 31t37.5 32.5t58.5 36h104l-23 -16q-46 -32 -63.5 -52t-17.5 -32q0 -14 22 -14q13 0 27.5 3.5t20.5 5.5z" />
<glyph unicode="&#x2dc;" d="M408 542q-17 0 -30.5 5t-25 10.5t-22 10.5t-21.5 5q-13 0 -23 -7t-25 -29l-60 36q21 49 49 72.5t70 23.5q16 0 29.5 -5t25 -10.5t22.5 -10.5t22 -5q13 0 23 7t25 29l60 -36q-21 -49 -49 -72.5t-70 -23.5z" />
<glyph unicode="&#x2dd;" d="M573 612l-154 -102l-47 59l142 122zM373 612l-154 -102l-47 59l142 122z" />
<glyph unicode="&#x311;" d="M405 527q0 5 0.5 9t0.5 9q0 21 -9 33t-32 12q-21 0 -37.5 -15.5t-22.5 -47.5h-91q3 37 18 65t37.5 46.5t50 27.5t54.5 9q24 0 46.5 -7.5t39.5 -22.5t27.5 -37t10.5 -51q0 -15 -3 -30h-90z" />
<glyph unicode="&#x384;" d="M478 663l-143 -150l-69 47l137 167z" />
<glyph unicode="&#x385;" d="M289 613q0 -28 -18.5 -51t-53.5 -23q-26 0 -43 16t-17 42q0 35 22 54.5t51 19.5q25 0 42 -15.5t17 -42.5zM580 613q0 -28 -18.5 -51t-53.5 -23q-26 0 -43 16t-17 42q0 35 23 54.5t51 19.5q25 0 41.5 -15.5t16.5 -42.5zM457 667l-114 -146l-51 34l95 167z" />
<glyph unicode="&#x386;" d="M356 144h-176q-15 -34 -31 -70t-30 -74h-125q85 186 164 341.5t154 277.5h131q14 -118 22.5 -249.5t10.5 -280.5v-89h-124zM352 502q-13 -25 -25.5 -49t-27 -53.5t-32.5 -67.5t-41 -89h132q1 51 0.5 89t-1.5 67.5t-2.5 54t-2.5 48.5zM262 618l-105 -179l-79 31l81 188z " />
<glyph unicode="&#x388;" d="M159 618l-105 -179l-79 31l81 188zM53 0l148 619h367l-24 -102h-244l-34 -139h212l-24 -102h-212l-42 -174h266l-24 -102h-389z" />
<glyph unicode="&#x389;" d="M586 619l-149 -619h-124l67 273h-165l-66 -273h-123l149 619h123l-59 -244h165l59 244h123zM132 618l-105 -179l-79 31l81 188z" />
<glyph unicode="&#x38a;" d="M35 0l24 102h136l100 415h-136l24 102h393l-24 -102h-134l-100 -415h134l-24 -102h-393zM142 618l-105 -179l-79 31l81 188z" />
<glyph unicode="&#x38c;" d="M367 633q81 0 127 -52.5t46 -139.5q0 -39 -6 -88t-20 -99.5t-37 -98.5t-56 -85.5t-77.5 -60t-102.5 -22.5q-82 0 -128 52.5t-46 139.5q0 39 6 88t20.5 99.5t37 98.5t56 85.5t78 60t102.5 22.5zM255 94q41 0 71.5 35t50.5 86.5t30 110t10 106.5q0 39 -13.5 66.5 t-50.5 27.5q-41 0 -72 -35t-51 -86.5t-30 -110.5t-10 -106q0 -39 13.5 -66.5t51.5 -27.5zM179 618l-105 -179l-79 31l81 188z" />
<glyph unicode="&#x38e;" d="M311 340q16 23 39 57.5t47 73t47.5 77.5t41.5 71h132q-31 -51 -61.5 -99t-62.5 -95t-67.5 -93.5t-75.5 -95.5l-57 -236h-123l56 235q-31 97 -51 189.5t-34 194.5h121q6 -72 19.5 -144.5t28.5 -134.5zM110 618l-105 -179l-79 31l81 188z" />
<glyph unicode="&#x38f;" d="M77 254q0 66 15.5 133.5t50 122t90 89t135.5 34.5q39 0 72.5 -11.5t58 -35.5t38.5 -60.5t14 -85.5q0 -95 -38 -181t-107 -157h86l-24 -102h-210l21 87q33 30 60.5 68.5t47.5 82.5t31 92t11 97q0 43 -17 71t-60 28q-45 0 -76 -27t-49.5 -68t-26.5 -89t-8 -89 q0 -23 2.5 -46.5t7 -45.5t11.5 -41.5t17 -32.5l-21 -87h-211l24 102h94q-20 35 -29.5 75t-9.5 77zM164 618l-105 -179l-79 31l81 188z" />
<glyph unicode="&#x390;" d="M289 613q0 -28 -18.5 -51t-53.5 -23q-26 0 -43 16t-17 42q0 35 22 54.5t51 19.5q25 0 42 -15.5t17 -42.5zM580 613q0 -28 -18.5 -51t-53.5 -23q-26 0 -43 16t-17 42q0 35 23 54.5t51 19.5q25 0 41.5 -15.5t16.5 -42.5zM457 667l-114 -146l-51 34l95 167zM459 13 q-37 -14 -69.5 -19t-60.5 -5q-71 0 -105 34.5t-34 97.5q0 33 11 77l40 170h-130l25 102h253l-68 -287q-6 -21 -6 -37q0 -50 51 -50q17 0 40 3.5t51 13.5z" />
<glyph unicode="&#x391;" d="M356 144h-176q-15 -34 -31 -70t-30 -74h-125q85 186 164 341.5t154 277.5h131q14 -118 22.5 -249.5t10.5 -280.5v-89h-124zM352 502q-13 -25 -25.5 -49t-27 -53.5t-32.5 -67.5t-41 -89h132q1 51 0.5 89t-1.5 67.5t-2.5 54t-2.5 48.5z" />
<glyph unicode="&#x392;" d="M207 -8q-15 0 -35.5 1t-43.5 3.5t-46.5 6.5t-42.5 10l143 594q20 5 42.5 8.5t44 6t41.5 3.5t35 1q43 0 78 -8t60 -26t39 -45.5t14 -66.5q0 -45 -24.5 -86.5t-88.5 -66.5q42 -20 61 -49.5t19 -73.5q0 -48 -19 -87t-56.5 -66.5t-93 -43t-127.5 -15.5zM221 272l-41 -171 q11 -2 28.5 -3t42.5 -1q18 0 41 5t43 17t34 33t14 53q0 40 -27 53.5t-70 13.5h-65zM246 371h38q25 0 49 4.5t43 15.5t31 29t12 44q0 32 -22 45t-61 13q-16 0 -30.5 -0.5t-25.5 -2.5z" />
<glyph unicode="&#x393;" d="M128 102l124 517h348l-24 -102h-225l-100 -415h134l-24 -102h-347l24 102h90z" />
<glyph unicode="&#x394;" d="M-6 0q84 186 162.5 341.5t153.5 277.5h131q14 -118 22.5 -248.5t10.5 -279.5v-91h-480zM354 102q3 101 3 167t-1 109.5t-3 71.5t-3 52q-51 -98 -98.5 -197.5t-91.5 -202.5h194z" />
<glyph unicode="&#x395;" d="M53 0l148 619h367l-24 -102h-244l-34 -139h212l-24 -102h-212l-42 -174h266l-24 -102h-389z" />
<glyph unicode="&#x396;" d="M547 519q-58 -65 -107 -121t-92 -106.5t-82 -97.5t-76 -93h269l-25 -101h-406l20 81q31 42 66.5 88t79 98.5t97 114.5t119.5 136h-250l25 101h386z" />
<glyph unicode="&#x397;" d="M586 619l-149 -619h-124l67 273h-165l-66 -273h-123l149 619h123l-59 -244h165l59 244h123z" />
<glyph unicode="&#x398;" d="M244 357h146l-22 -93h-147zM368 633q81 0 126.5 -52.5t45.5 -139.5q0 -39 -6 -88t-20 -99.5t-36.5 -98.5t-56 -85.5t-78 -60t-101.5 -22.5q-82 0 -127.5 52.5t-45.5 139.5q0 39 6 88t20 99.5t37 98.5t56 85.5t77.5 60t102.5 22.5zM255 94q43 0 75 33t53 83t31.5 108.5 t10.5 109.5q0 19 -3.5 37t-12 31.5t-22 21.5t-33.5 8q-43 0 -75 -33t-53 -83t-31.5 -108.5t-10.5 -109.5q0 -39 16.5 -68.5t54.5 -29.5z" />
<glyph unicode="&#x399;" d="M35 0l24 102h136l100 415h-136l24 102h393l-24 -102h-134l-100 -415h134l-24 -102h-393z" />
<glyph unicode="&#x39a;" d="M338 322q24 -30 46 -67.5t40.5 -80t33 -87t23.5 -87.5h-129q-7 35 -20.5 75.5t-31 79.5t-37.5 73.5t-40 58.5l-69 -287h-123l148 619h124l-62 -257q31 28 62.5 61.5t60.5 68t54.5 67.5t43.5 60h141q-23 -31 -52 -68t-63 -76.5t-72 -78.5t-78 -74z" />
<glyph unicode="&#x39b;" d="M442 619q8 -59 14 -128t10.5 -142.5t7 -148.5t2.5 -145v-29t-1 -26h-126q2 47 3 107t1 126q0 70 -1.5 137t-5.5 124q-27 -52 -58 -118t-61.5 -133.5t-58 -131t-46.5 -111.5h-127q25 60 59.5 134t75 155.5t86.5 165.5t95 164h131z" />
<glyph unicode="&#x39c;" d="M291 619q2 -21 5.5 -55.5t6.5 -74t5.5 -81.5t4.5 -78l150 289h113q-20 -151 -50.5 -304.5t-65.5 -314.5h-113l124 486l-138 -267h-87q-2 66 -6.5 134t-9.5 128l-111 -481h-113q21 76 43.5 158t45.5 163.5t45.5 157.5t44.5 140h106z" />
<glyph unicode="&#x39d;" d="M337 0q-17 103 -40.5 211t-55.5 233l-106 -444h-109l148 619h105q14 -44 29.5 -96t29 -105t25 -105t18.5 -95l95 401h109l-148 -619h-100z" />
<glyph unicode="&#x39e;" d="M167 619h425l-25 -104h-425zM122 275l25 104h349l-25 -104h-349zM44 104h425l-25 -104h-425z" />
<glyph unicode="&#x39f;" d="M367 633q81 0 127 -52.5t46 -139.5q0 -39 -6 -88t-20 -99.5t-37 -98.5t-56 -85.5t-77.5 -60t-102.5 -22.5q-82 0 -128 52.5t-46 139.5q0 39 6 88t20.5 99.5t37 98.5t56 85.5t78 60t102.5 22.5zM255 94q41 0 71.5 35t50.5 86.5t30 110t10 106.5q0 39 -13.5 66.5 t-50.5 27.5q-41 0 -72 -35t-51 -86.5t-30 -110.5t-10 -106q0 -39 13.5 -66.5t51.5 -27.5z" />
<glyph unicode="&#x3a0;" d="M585 619l-149 -619h-123l124 517h-163l-124 -517h-123l149 619h409z" />
<glyph unicode="&#x3a1;" d="M347 626q55 0 94.5 -12.5t65 -35.5t37 -54.5t11.5 -68.5q0 -63 -23.5 -109.5t-65.5 -76.5t-100 -44.5t-128 -14.5h-26l-51 -210h-123l147 611q47 8 88.5 11.5t73.5 3.5zM331 519q-14 0 -23 -0.5t-23 -2.5l-48 -200h30q81 0 122.5 32t41.5 89q0 38 -21 60t-79 22z" />
<glyph unicode="&#x3a3;" d="M597 619l-25 -102h-276q13 -26 30 -55l34 -58t33 -55.5t28 -46.5q-17 -15 -45.5 -41t-60.5 -54.5l-64 -57t-54 -47.5h279l-25 -102h-432l21 88q26 24 57 52.5t64 58.5l66 60t63 57q-15 24 -32.5 54.5t-35.5 62t-35 61t-30 50.5l18 75h422z" />
<glyph unicode="&#x3a4;" d="M603 619l-24 -102h-164l-124 -517h-123l124 517h-163l24 102h450z" />
<glyph unicode="&#x3a5;" d="M311 340q16 23 39 57.5t47 73t47.5 77.5t41.5 71h132q-31 -51 -61.5 -99t-62.5 -95t-67.5 -93.5t-75.5 -95.5l-57 -236h-123l56 235q-31 97 -51 189.5t-34 194.5h121q6 -72 19.5 -144.5t28.5 -134.5z" />
<glyph unicode="&#x3a6;" d="M196 70q-69 19 -97 64t-28 117q0 57 15.5 116.5t47 108.5t78.5 81.5t110 36.5l16 65h99l-16 -65q69 -19 97.5 -64.5t28.5 -116.5q0 -57 -15.5 -116.5t-47 -108.5t-78.5 -81.5t-110 -36.5l-17 -70h-99zM317 158q29 7 53 32t41 60t26.5 76t9.5 79q0 18 -1.5 34t-6.5 29 t-14 22.5t-25 14.5zM301 505q-29 -6 -53 -31t-41 -60t-26.5 -76t-9.5 -80q0 -17 1.5 -33t6.5 -29.5t14 -23t25 -14.5z" />
<glyph unicode="&#x3a7;" d="M344 430q33 43 68.5 91.5t67.5 97.5h130q-54 -77 -110 -148t-113 -141q16 -43 31 -90t26.5 -91.5t19.5 -83t11 -65.5h-122q-7 51 -19.5 111.5t-29.5 116.5l-161 -228h-141l258 338l-110 281h126z" />
<glyph unicode="&#x3a8;" d="M335 235q17 1 32 7.5t28.5 24t26 48t24.5 78.5l54 226h100l-61 -256q-15 -63 -35.5 -104t-48.5 -65.5t-63 -35.5t-79 -13l-35 -145h-99l36 147q-36 5 -60.5 18.5t-39 33t-20.5 44t-6 51.5q0 26 4 55t10 55l51 215h101l-55 -226q-4 -17 -8.5 -40.5t-4.5 -47.5 q0 -26 10.5 -44.5t39.5 -23.5l58 238h98z" />
<glyph unicode="&#x3a9;" d="M77 254q0 66 15.5 133.5t50 122t90 89t135.5 34.5q39 0 72.5 -11.5t58 -35.5t38.5 -60.5t14 -85.5q0 -95 -38 -181t-107 -157h86l-24 -102h-210l21 87q33 30 60.5 68.5t47.5 82.5t31 92t11 97q0 43 -17 71t-60 28q-45 0 -76 -27t-49.5 -68t-26.5 -89t-8 -89 q0 -23 2.5 -46.5t7 -45.5t11.5 -41.5t17 -32.5l-21 -87h-211l24 102h94q-20 35 -29.5 75t-9.5 77z" />
<glyph unicode="&#x3aa;" d="M35 0l24 102h136l100 415h-136l24 102h393l-24 -102h-134l-100 -415h134l-24 -102h-393zM295 677q-26 0 -43 16t-17 43q0 17 6.5 31t16.5 24t23 15.5t26 5.5q25 0 43 -16.5t18 -43.5q0 -17 -7 -30.5t-17.5 -23.5t-23.5 -15.5t-25 -5.5zM493 677q-26 0 -43 16t-17 43 q0 34 23 55t50 21q25 0 42.5 -16.5t17.5 -43.5q0 -17 -7 -30.5t-17.5 -23.5t-23.5 -15.5t-25 -5.5z" />
<glyph unicode="&#x3ab;" d="M311 340q16 23 39 57.5t47 73t47.5 77.5t41.5 71h132q-31 -51 -61.5 -99t-62.5 -95t-67.5 -93.5t-75.5 -95.5l-57 -236h-123l56 235q-31 97 -51 189.5t-34 194.5h121q6 -72 19.5 -144.5t28.5 -134.5zM295 677q-26 0 -43 16t-17 43q0 17 6.5 31t16.5 24t23 15.5t26 5.5 q25 0 43 -16.5t18 -43.5q0 -17 -7 -30.5t-17.5 -23.5t-23.5 -15.5t-25 -5.5zM493 677q-26 0 -43 16t-17 43q0 34 23 55t50 21q25 0 42.5 -16.5t17.5 -43.5q0 -17 -7 -30.5t-17.5 -23.5t-23.5 -15.5t-25 -5.5z" />
<glyph unicode="&#x3ac;" d="M461 199q-5 -19 -8 -35.5t-3 -29.5q0 -36 39 -43l-34 -101q-46 1 -68.5 13t-36.5 33q-20 -17 -58 -32t-86 -15q-66 0 -104 47t-38 136q0 68 23 125t63 97.5t93.5 63t113.5 22.5q41 0 80.5 -8t83.5 -25zM380 371q-11 3 -21 4t-21 1q-35 0 -63 -16.5t-48 -43.5t-31 -62 t-11 -72q0 -26 5 -43t13.5 -27t20.5 -14t27 -4q28 0 48 10.5t34 21.5q-5 32 5 67zM532 663l-143 -150l-69 47l137 167z" />
<glyph unicode="&#x3ad;" d="M72 113q0 45 26.5 83t83.5 55q-25 15 -38.5 38t-13.5 49q0 39 19 66.5t50.5 44.5t72.5 25t86 8q57 0 98 -8.5t70 -21.5l-43 -94q-33 13 -66 17.5t-65 4.5q-19 0 -38 -2.5t-34 -8.5t-24.5 -16t-9.5 -25q0 -45 70 -45h95l-22 -89h-88q-54 0 -80 -15.5t-26 -40.5 q0 -14 9 -23.5t24.5 -15t36 -8t42.5 -2.5q55 0 89.5 9t54.5 17l15 -95q-42 -15 -90.5 -24t-97.5 -9q-40 0 -77.5 6.5t-66 21.5t-45.5 39t-17 59zM532 663l-143 -150l-69 47l137 167z" />
<glyph unicode="&#x3ae;" d="M153 455q35 9 77.5 17t99.5 8q85 0 126 -35.5t41 -100.5q0 -17 -2.5 -37t-7.5 -42l-104 -430h-123l100 414q3 16 7 33t4 34q0 23 -12.5 40.5t-45.5 17.5q-14 0 -28.5 -1.5t-29.5 -3.5l-88 -369h-123zM532 663l-143 -150l-69 47l137 167z" />
<glyph unicode="&#x3af;" d="M459 13q-37 -14 -69.5 -19t-60.5 -5q-71 0 -105 34.5t-34 97.5q0 33 11 77l40 170h-130l25 102h253l-68 -287q-6 -21 -6 -37q0 -50 51 -50q17 0 40 3.5t51 13.5zM496 663l-143 -150l-69 47l137 167z" />
<glyph unicode="&#x3b0;" d="M234 -13q-76 0 -115.5 37.5t-39.5 104.5q0 20 3.5 42t8.5 45l60 254h123l-60 -251q-3 -14 -6 -31t-3 -34q0 -24 11 -41.5t39 -17.5q41 0 60 28t34 93l61 254h123l-64 -267q-15 -61 -34 -102t-46.5 -66.5t-65 -36.5t-89.5 -11zM289 613q0 -28 -18.5 -51t-53.5 -23 q-26 0 -43 16t-17 42q0 35 22 54.5t51 19.5q25 0 42 -15.5t17 -42.5zM580 613q0 -28 -18.5 -51t-53.5 -23q-26 0 -43 16t-17 42q0 35 23 54.5t51 19.5q25 0 41.5 -15.5t16.5 -42.5zM457 667l-114 -146l-51 34l95 167z" />
<glyph unicode="&#x3b1;" d="M461 199q-5 -19 -8 -35.5t-3 -29.5q0 -36 39 -43l-34 -101q-46 1 -68.5 13t-36.5 33q-20 -17 -58 -32t-86 -15q-66 0 -104 47t-38 136q0 68 23 125t63 97.5t93.5 63t113.5 22.5q41 0 80.5 -8t83.5 -25zM380 371q-11 3 -21 4t-21 1q-35 0 -63 -16.5t-48 -43.5t-31 -62 t-11 -72q0 -26 5 -43t13.5 -27t20.5 -14t27 -4q28 0 48 10.5t34 21.5q-5 32 5 67z" />
<glyph unicode="&#x3b2;" d="M532 547q0 -57 -32.5 -103t-86.5 -72q48 -19 68.5 -58.5t20.5 -83.5q0 -52 -19 -96t-51.5 -76t-75.5 -50t-92 -18q-39 0 -63.5 7.5t-44.5 20.5l-43 -183h-123l155 645q26 113 87 163t152 50q64 0 106 -38.5t42 -107.5zM180 118q29 -22 75 -22q26 0 49 10t39.5 28t26 42 t9.5 52q0 16 -5 31.5t-15 27.5t-25 19t-36 7h-22l23 98h10q24 0 42.5 11t32 28t20.5 39t7 45q0 20 -11 37t-40 17q-32 0 -55.5 -25t-37.5 -84z" />
<glyph unicode="&#x3b3;" d="M128 -165q8 57 12.5 109.5t4.5 105.5q0 113 -9.5 217t-22.5 203h127q5 -32 8.5 -74t6 -87t3.5 -91t1 -86q65 76 102 161.5t63 176.5h129q-22 -75 -48.5 -139.5t-61 -122t-79.5 -111t-103 -106.5q-3 -47 -6 -85.5t-8 -70.5h-119z" />
<glyph unicode="&#x3b4;" d="M68 179q0 81 43 150t135 117q-23 25 -34 47.5t-11 53.5q0 40 16 67.5t42.5 45t61 25.5t70.5 8q45 0 87 -10t74 -27l-47 -93q-19 12 -52 22t-67 10q-29 0 -45.5 -13.5t-16.5 -31.5q0 -13 8.5 -28t21.5 -30t28 -29.5t27 -25.5q47 -43 67 -91.5t20 -99.5q0 -53 -17.5 -100.5 t-50.5 -82.5t-79 -55.5t-103 -20.5q-37 0 -69.5 11.5t-56.5 35t-38 59.5t-14 86zM308 375q-35 -16 -58 -37.5t-36.5 -45.5t-19 -49t-5.5 -47q0 -54 21.5 -77.5t53.5 -23.5q27 0 47.5 11.5t34 30.5t20.5 43.5t7 51.5q0 41 -16 80t-49 63z" />
<glyph unicode="&#x3b5;" d="M72 113q0 45 26.5 83t83.5 55q-25 15 -38.5 38t-13.5 49q0 39 19 66.5t50.5 44.5t72.5 25t86 8q57 0 98 -8.5t70 -21.5l-43 -94q-33 13 -66 17.5t-65 4.5q-19 0 -38 -2.5t-34 -8.5t-24.5 -16t-9.5 -25q0 -45 70 -45h95l-22 -89h-88q-54 0 -80 -15.5t-26 -40.5 q0 -14 9 -23.5t24.5 -15t36 -8t42.5 -2.5q55 0 89.5 9t54.5 17l15 -95q-42 -15 -90.5 -24t-97.5 -9q-40 0 -77.5 6.5t-66 21.5t-45.5 39t-17 59z" />
<glyph unicode="&#x3b6;" d="M227 196q0 -24 10.5 -40t27.5 -27.5t38 -19t43 -13.5q56 -17 89.5 -40.5t33.5 -71.5q0 -35 -20.5 -73t-68.5 -81l-87 46q20 21 35 40t15 38q0 20 -22 30t-55 20q-33 9 -63.5 20.5t-54 29.5t-37.5 45.5t-14 69.5q0 43 17.5 89t56.5 97t100.5 107.5t148.5 121.5h-219 l23 103h362l-26 -105q-64 -46 -124 -96.5t-106.5 -101t-74.5 -99t-28 -89.5z" />
<glyph unicode="&#x3b7;" d="M153 455q35 9 77.5 17t99.5 8q85 0 126 -35.5t41 -100.5q0 -17 -2.5 -37t-7.5 -42l-104 -430h-123l100 414q3 16 7 33t4 34q0 23 -12.5 40.5t-45.5 17.5q-14 0 -28.5 -1.5t-29.5 -3.5l-88 -369h-123z" />
<glyph unicode="&#x3b8;" d="M242 -13q-85 0 -124 54t-39 155q0 51 7 107.5t22.5 112t39.5 105.5t57.5 88.5t77 61t97.5 22.5q87 0 125 -54t38 -158q0 -50 -7 -106.5t-22.5 -111.5t-39.5 -105t-57.5 -88t-77 -60.5t-97.5 -22.5zM263 93q24 0 44.5 15.5t38 42.5t31 62.5t24.5 75.5h-201q-5 -24 -6 -45 t-1 -44q0 -48 15 -77.5t55 -29.5zM358 588q-23 0 -43 -15.5t-37.5 -42t-31.5 -62t-25 -74.5h200q5 25 6 46t1 39q0 48 -14.5 78.5t-55.5 30.5z" />
<glyph unicode="&#x3b9;" d="M459 13q-37 -14 -69.5 -19t-60.5 -5q-71 0 -105 34.5t-34 97.5q0 33 11 77l40 170h-130l25 102h253l-68 -287q-6 -21 -6 -37q0 -50 51 -50q17 0 40 3.5t51 13.5z" />
<glyph unicode="&#x3ba;" d="M567 470q-48 -58 -108 -114.5t-114 -101.5q18 -22 36.5 -53.5t36.5 -66.5t33 -70t25 -64h-133q-8 25 -21 57t-28 64t-31 60t-31 46l-54 -227h-124l113 470h123l-43 -180q18 15 42 37t49 46.5t48.5 50t40.5 46.5h140z" />
<glyph unicode="&#x3bb;" d="M330 0q-1 97 -4.5 185t-10.5 147q-21 -34 -44.5 -75t-46 -84.5t-43.5 -88t-37 -84.5h-130q63 151 137 267.5t144 206.5q-8 58 -24.5 86t-57.5 28q-14 0 -25.5 -2t-21.5 -4l5 100q30 11 82 11q39 0 65 -13.5t43 -36.5t27 -54t17 -65q6 -33 11.5 -67t10.5 -69 q14 -100 23.5 -200t11.5 -188h-132z" />
<glyph unicode="&#x3bc;" d="M462 199q-11 -39 -11 -65q0 -36 39 -43l-35 -101q-45 1 -67.5 13t-36.5 33q-20 -17 -49 -32t-66 -15q-26 0 -47 7t-34 18q-1 -26 -4.5 -48t-9.5 -48l-20 -83h-120l152 635h122l-54 -225q-6 -23 -11.5 -47.5t-5.5 -44.5q0 -25 11.5 -41t40.5 -16q28 0 46 10t32 20 q-3 16 -1.5 33t5.5 34l67 277h122z" />
<glyph unicode="&#x3bd;" d="M174 0q-23 91 -41.5 209.5t-26.5 260.5h128q1 -36 3 -79t5.5 -86.5t8 -86.5t9.5 -79q21 30 45 71.5t46.5 87t41.5 90.5t30 82h132q-24 -64 -57 -131.5t-69.5 -130t-74 -116.5t-69.5 -92h-111z" />
<glyph unicode="&#x3be;" d="M208 190q0 -24 10 -40.5t27 -28t39 -19t46 -12.5q56 -11 89 -36t33 -74q0 -32 -20.5 -69.5t-68.5 -80.5l-87 46q20 21 35 40t15 38q0 20 -22 30t-55 18q-35 8 -65 19.5t-52.5 30t-35.5 47t-13 70.5q0 31 11 63t34.5 60.5t59 51t83.5 35.5q-42 22 -58 54t-16 66 q0 36 14 70.5t43.5 62t75 44.5t108.5 17q26 0 46.5 -1.5t37.5 -5t32.5 -8t32.5 -10.5l-42 -99q-24 12 -52.5 16.5t-50.5 4.5q-54 0 -88.5 -25.5t-34.5 -73.5q0 -39 32.5 -56.5t78.5 -17.5h63l-25 -103h-69q-48 0 -84 -10t-60 -27t-35.5 -39.5t-11.5 -47.5z" />
<glyph unicode="&#x3bf;" d="M256 94q30 0 53 18t39.5 45t25 58.5t8.5 59.5q0 47 -13.5 74t-55.5 27q-29 0 -52.5 -18t-39.5 -45t-24.5 -58.5t-8.5 -59.5q0 -47 13.5 -74t54.5 -27zM231 -13q-84 0 -125 48t-41 128q0 60 18 117t53 102t87 72.5t120 27.5q73 0 117.5 -44.5t44.5 -132.5q0 -59 -17 -116 t-51.5 -102t-86 -72.5t-119.5 -27.5z" />
<glyph unicode="&#x3c0;" d="M533 470l-113 -470h-124l89 368h-130l-88 -368h-123l113 470h376z" />
<glyph unicode="&#x3c1;" d="M98 268q24 99 79.5 155.5t155.5 56.5q85 0 127 -46t42 -124q0 -62 -17 -120t-51 -102.5t-84.5 -71.5t-117.5 -27q-23 0 -42.5 5t-31.5 10l-41 -169h-123zM182 106q5 -4 18 -7.5t27 -3.5q41 0 70 16.5t47.5 45t27 66t8.5 78.5q0 34 -13 54.5t-42 20.5q-17 0 -32.5 -5 t-29 -17t-24.5 -33t-18 -54z" />
</font>
</defs>
</svg>
